%TF.GenerationSoftware,KiCad,Pcbnew,8.0.0*%
%TF.CreationDate,2024-02-27T23:55:06+02:00*%
%TF.ProjectId,my-rp2040,6d792d72-7032-4303-9430-2e6b69636164,rev?*%
%TF.SameCoordinates,PX555a960PY4fdec70*%
%TF.FileFunction,Legend,Top*%
%TF.FilePolarity,Positive*%
%FSLAX46Y46*%
G04 Gerber Fmt 4.6, Leading zero omitted, Abs format (unit mm)*
G04 Created by KiCad (PCBNEW 8.0.0) date 2024-02-27 23:55:06*
%MOMM*%
%LPD*%
G01*
G04 APERTURE LIST*
G04 Aperture macros list*
%AMRoundRect*
0 Rectangle with rounded corners*
0 $1 Rounding radius*
0 $2 $3 $4 $5 $6 $7 $8 $9 X,Y pos of 4 corners*
0 Add a 4 corners polygon primitive as box body*
4,1,4,$2,$3,$4,$5,$6,$7,$8,$9,$2,$3,0*
0 Add four circle primitives for the rounded corners*
1,1,$1+$1,$2,$3*
1,1,$1+$1,$4,$5*
1,1,$1+$1,$6,$7*
1,1,$1+$1,$8,$9*
0 Add four rect primitives between the rounded corners*
20,1,$1+$1,$2,$3,$4,$5,0*
20,1,$1+$1,$4,$5,$6,$7,0*
20,1,$1+$1,$6,$7,$8,$9,0*
20,1,$1+$1,$8,$9,$2,$3,0*%
G04 Aperture macros list end*
%ADD10C,0.150000*%
%ADD11C,0.120000*%
%ADD12C,0.100000*%
%ADD13C,0.250000*%
%ADD14RoundRect,0.150000X-0.150000X0.512500X-0.150000X-0.512500X0.150000X-0.512500X0.150000X0.512500X0*%
%ADD15R,1.700000X1.700000*%
%ADD16O,1.700000X1.700000*%
%ADD17RoundRect,0.140000X0.170000X-0.140000X0.170000X0.140000X-0.170000X0.140000X-0.170000X-0.140000X0*%
%ADD18RoundRect,0.135000X0.185000X-0.135000X0.185000X0.135000X-0.185000X0.135000X-0.185000X-0.135000X0*%
%ADD19RoundRect,0.140000X-0.170000X0.140000X-0.170000X-0.140000X0.170000X-0.140000X0.170000X0.140000X0*%
%ADD20RoundRect,0.135000X-0.185000X0.135000X-0.185000X-0.135000X0.185000X-0.135000X0.185000X0.135000X0*%
%ADD21RoundRect,0.050000X-0.387500X-0.050000X0.387500X-0.050000X0.387500X0.050000X-0.387500X0.050000X0*%
%ADD22RoundRect,0.050000X-0.050000X-0.387500X0.050000X-0.387500X0.050000X0.387500X-0.050000X0.387500X0*%
%ADD23R,3.200000X3.200000*%
%ADD24C,1.700000*%
%ADD25RoundRect,0.135000X0.135000X0.185000X-0.135000X0.185000X-0.135000X-0.185000X0.135000X-0.185000X0*%
%ADD26RoundRect,0.218750X-0.256250X0.218750X-0.256250X-0.218750X0.256250X-0.218750X0.256250X0.218750X0*%
%ADD27RoundRect,0.218750X0.256250X-0.218750X0.256250X0.218750X-0.256250X0.218750X-0.256250X-0.218750X0*%
%ADD28R,1.360000X1.230000*%
%ADD29RoundRect,0.112500X0.112500X-0.187500X0.112500X0.187500X-0.112500X0.187500X-0.112500X-0.187500X0*%
%ADD30RoundRect,0.140000X-0.140000X-0.170000X0.140000X-0.170000X0.140000X0.170000X-0.140000X0.170000X0*%
%ADD31R,0.800000X0.400000*%
%ADD32R,2.300000X3.000000*%
%ADD33C,0.650000*%
%ADD34R,0.600000X1.450000*%
%ADD35R,0.300000X1.450000*%
%ADD36O,1.000000X2.100000*%
%ADD37O,1.000000X1.600000*%
%ADD38R,1.150000X1.000000*%
%ADD39RoundRect,0.140000X0.140000X0.170000X-0.140000X0.170000X-0.140000X-0.170000X0.140000X-0.170000X0*%
G04 APERTURE END LIST*
D10*
X16269819Y5308208D02*
X15793628Y4974875D01*
X16269819Y4736780D02*
X15269819Y4736780D01*
X15269819Y4736780D02*
X15269819Y5117732D01*
X15269819Y5117732D02*
X15317438Y5212970D01*
X15317438Y5212970D02*
X15365057Y5260589D01*
X15365057Y5260589D02*
X15460295Y5308208D01*
X15460295Y5308208D02*
X15603152Y5308208D01*
X15603152Y5308208D02*
X15698390Y5260589D01*
X15698390Y5260589D02*
X15746009Y5212970D01*
X15746009Y5212970D02*
X15793628Y5117732D01*
X15793628Y5117732D02*
X15793628Y4736780D01*
X16222200Y5689161D02*
X16269819Y5832018D01*
X16269819Y5832018D02*
X16269819Y6070113D01*
X16269819Y6070113D02*
X16222200Y6165351D01*
X16222200Y6165351D02*
X16174580Y6212970D01*
X16174580Y6212970D02*
X16079342Y6260589D01*
X16079342Y6260589D02*
X15984104Y6260589D01*
X15984104Y6260589D02*
X15888866Y6212970D01*
X15888866Y6212970D02*
X15841247Y6165351D01*
X15841247Y6165351D02*
X15793628Y6070113D01*
X15793628Y6070113D02*
X15746009Y5879637D01*
X15746009Y5879637D02*
X15698390Y5784399D01*
X15698390Y5784399D02*
X15650771Y5736780D01*
X15650771Y5736780D02*
X15555533Y5689161D01*
X15555533Y5689161D02*
X15460295Y5689161D01*
X15460295Y5689161D02*
X15365057Y5736780D01*
X15365057Y5736780D02*
X15317438Y5784399D01*
X15317438Y5784399D02*
X15269819Y5879637D01*
X15269819Y5879637D02*
X15269819Y6117732D01*
X15269819Y6117732D02*
X15317438Y6260589D01*
X15269819Y6546304D02*
X15269819Y7117732D01*
X16269819Y6832018D02*
X15269819Y6832018D01*
X8306009Y4510113D02*
X8353628Y4652970D01*
X8353628Y4652970D02*
X8401247Y4700589D01*
X8401247Y4700589D02*
X8496485Y4748208D01*
X8496485Y4748208D02*
X8639342Y4748208D01*
X8639342Y4748208D02*
X8734580Y4700589D01*
X8734580Y4700589D02*
X8782200Y4652970D01*
X8782200Y4652970D02*
X8829819Y4557732D01*
X8829819Y4557732D02*
X8829819Y4176780D01*
X8829819Y4176780D02*
X7829819Y4176780D01*
X7829819Y4176780D02*
X7829819Y4510113D01*
X7829819Y4510113D02*
X7877438Y4605351D01*
X7877438Y4605351D02*
X7925057Y4652970D01*
X7925057Y4652970D02*
X8020295Y4700589D01*
X8020295Y4700589D02*
X8115533Y4700589D01*
X8115533Y4700589D02*
X8210771Y4652970D01*
X8210771Y4652970D02*
X8258390Y4605351D01*
X8258390Y4605351D02*
X8306009Y4510113D01*
X8306009Y4510113D02*
X8306009Y4176780D01*
X7829819Y5367256D02*
X7829819Y5557732D01*
X7829819Y5557732D02*
X7877438Y5652970D01*
X7877438Y5652970D02*
X7972676Y5748208D01*
X7972676Y5748208D02*
X8163152Y5795827D01*
X8163152Y5795827D02*
X8496485Y5795827D01*
X8496485Y5795827D02*
X8686961Y5748208D01*
X8686961Y5748208D02*
X8782200Y5652970D01*
X8782200Y5652970D02*
X8829819Y5557732D01*
X8829819Y5557732D02*
X8829819Y5367256D01*
X8829819Y5367256D02*
X8782200Y5272018D01*
X8782200Y5272018D02*
X8686961Y5176780D01*
X8686961Y5176780D02*
X8496485Y5129161D01*
X8496485Y5129161D02*
X8163152Y5129161D01*
X8163152Y5129161D02*
X7972676Y5176780D01*
X7972676Y5176780D02*
X7877438Y5272018D01*
X7877438Y5272018D02*
X7829819Y5367256D01*
X7829819Y6414875D02*
X7829819Y6605351D01*
X7829819Y6605351D02*
X7877438Y6700589D01*
X7877438Y6700589D02*
X7972676Y6795827D01*
X7972676Y6795827D02*
X8163152Y6843446D01*
X8163152Y6843446D02*
X8496485Y6843446D01*
X8496485Y6843446D02*
X8686961Y6795827D01*
X8686961Y6795827D02*
X8782200Y6700589D01*
X8782200Y6700589D02*
X8829819Y6605351D01*
X8829819Y6605351D02*
X8829819Y6414875D01*
X8829819Y6414875D02*
X8782200Y6319637D01*
X8782200Y6319637D02*
X8686961Y6224399D01*
X8686961Y6224399D02*
X8496485Y6176780D01*
X8496485Y6176780D02*
X8163152Y6176780D01*
X8163152Y6176780D02*
X7972676Y6224399D01*
X7972676Y6224399D02*
X7877438Y6319637D01*
X7877438Y6319637D02*
X7829819Y6414875D01*
X7829819Y7129161D02*
X7829819Y7700589D01*
X8829819Y7414875D02*
X7829819Y7414875D01*
D11*
%TO.C,U1*%
X16840000Y24712500D02*
X16840000Y25512500D01*
X16840000Y24712500D02*
X16840000Y23912500D01*
X19960000Y24712500D02*
X19960000Y26512500D01*
X19960000Y24712500D02*
X19960000Y23912500D01*
%TO.C,J4*%
X8145000Y580000D02*
X8145000Y1910000D01*
X9475000Y580000D02*
X8145000Y580000D01*
X10745000Y3240000D02*
X15885000Y3240000D01*
X10745000Y580000D02*
X10745000Y3240000D01*
X10745000Y580000D02*
X15885000Y580000D01*
X15885000Y580000D02*
X15885000Y3240000D01*
%TO.C,U3*%
X7690000Y10990000D02*
X7690000Y11640000D01*
X8340000Y18210000D02*
X7690000Y18210000D01*
X8340000Y10990000D02*
X7690000Y10990000D01*
X14260000Y18210000D02*
X14910000Y18210000D01*
X14260000Y10990000D02*
X14910000Y10990000D01*
X14910000Y18210000D02*
X14910000Y17560000D01*
X14910000Y10990000D02*
X14910000Y11640000D01*
%TO.C,J2*%
X670000Y560000D02*
X3330000Y560000D01*
X730000Y36180000D02*
X670000Y560000D01*
D12*
X730000Y36180000D02*
X3270000Y36180000D01*
D11*
X3270000Y36180000D02*
X3330000Y560000D01*
%TO.C,F1*%
X18290000Y34262779D02*
X18290000Y33937221D01*
X19310000Y34262779D02*
X19310000Y33937221D01*
%TO.C,J3*%
X20670000Y36240000D02*
X22000000Y36240000D01*
X20670000Y34910000D02*
X20670000Y36240000D01*
X20670000Y33640000D02*
X20670000Y560000D01*
X20670000Y33640000D02*
X23330000Y33640000D01*
X20670000Y560000D02*
X23330000Y560000D01*
X23330000Y33640000D02*
X23330000Y560000D01*
%TO.C,D2*%
X17085000Y21890000D02*
X17085000Y19605000D01*
X17085000Y19605000D02*
X18555000Y19605000D01*
X18555000Y19605000D02*
X18555000Y21890000D01*
D10*
%TO.C,SW1*%
X16760000Y5500000D02*
X17330000Y5500000D01*
X16760000Y1440000D02*
X16760000Y5500000D01*
X19840000Y5500000D02*
X19310000Y5500000D01*
X19840000Y1440000D02*
X19840000Y5500000D01*
D13*
X19200000Y3470000D02*
G75*
G02*
X17400000Y3470000I-900000J0D01*
G01*
X17400000Y3470000D02*
G75*
G02*
X19200000Y3470000I900000J0D01*
G01*
D11*
%TO.C,D1*%
X17950000Y29190000D02*
X17950000Y31850000D01*
X17950000Y29190000D02*
X19650000Y29190000D01*
X19650000Y29190000D02*
X19650000Y31850000D01*
D10*
%TO.C,SW2*%
X4200000Y5500000D02*
X4690000Y5500000D01*
X4200000Y1440000D02*
X4200000Y5500000D01*
X7280000Y5500000D02*
X6800000Y5500000D01*
X7280000Y1440000D02*
X7280000Y5500000D01*
D13*
X6640000Y3470000D02*
G75*
G02*
X4840000Y3470000I-900000J0D01*
G01*
X4840000Y3470000D02*
G75*
G02*
X6640000Y3470000I900000J0D01*
G01*
%TO.C,U2*%
X4700000Y22225000D02*
X4700000Y22465000D01*
X4930000Y25955000D02*
X5230000Y26257000D01*
X5230000Y26257000D02*
X8700000Y26257000D01*
X8700000Y26225000D02*
X8700000Y25985000D01*
X8700000Y22465000D02*
X8700000Y22225000D01*
X8700000Y22225000D02*
X4700000Y22225000D01*
D11*
%TO.C,J1*%
X7300000Y34560000D02*
X7300000Y36460000D01*
X7300000Y30660000D02*
X7300000Y32660000D01*
X16700000Y36460000D02*
X7300000Y36460000D01*
X16700000Y34560000D02*
X16700000Y36460000D01*
X16700000Y30660000D02*
X16700000Y32660000D01*
%TO.C,Y1*%
X13885000Y6790000D02*
X10505000Y6790000D01*
X13885000Y3910000D02*
X13885000Y6790000D01*
%TD*%
%LPC*%
D14*
%TO.C,U1*%
X19350000Y25850000D03*
X18400000Y25850000D03*
X17450000Y25850000D03*
X17450000Y23575000D03*
X19350000Y23575000D03*
%TD*%
D15*
%TO.C,J4*%
X9475000Y1910000D03*
D16*
X12015000Y1910000D03*
X14555000Y1910000D03*
%TD*%
D17*
%TO.C,C1*%
X19350000Y27270000D03*
X19350000Y28230000D03*
%TD*%
%TO.C,C15*%
X9770000Y4470000D03*
X9770000Y5430000D03*
%TD*%
%TO.C,C16*%
X14490000Y5240000D03*
X14490000Y6200000D03*
%TD*%
D18*
%TO.C,R6*%
X4800000Y27700000D03*
X4800000Y28720000D03*
%TD*%
D19*
%TO.C,C2*%
X19350000Y22150000D03*
X19350000Y21190000D03*
%TD*%
D20*
%TO.C,R1*%
X6100000Y31460000D03*
X6100000Y30440000D03*
%TD*%
D18*
%TO.C,R4*%
X15980000Y20700000D03*
X15980000Y21720000D03*
%TD*%
D21*
%TO.C,U3*%
X7862500Y17200000D03*
X7862500Y16800000D03*
X7862500Y16400000D03*
X7862500Y16000000D03*
X7862500Y15600000D03*
X7862500Y15200000D03*
X7862500Y14800000D03*
X7862500Y14400000D03*
X7862500Y14000000D03*
X7862500Y13600000D03*
X7862500Y13200000D03*
X7862500Y12800000D03*
X7862500Y12400000D03*
X7862500Y12000000D03*
D22*
X8700000Y11162500D03*
X9100000Y11162500D03*
X9500000Y11162500D03*
X9900000Y11162500D03*
X10300000Y11162500D03*
X10700000Y11162500D03*
X11100000Y11162500D03*
X11500000Y11162500D03*
X11900000Y11162500D03*
X12300000Y11162500D03*
X12700000Y11162500D03*
X13100000Y11162500D03*
X13500000Y11162500D03*
X13900000Y11162500D03*
D21*
X14737500Y12000000D03*
X14737500Y12400000D03*
X14737500Y12800000D03*
X14737500Y13200000D03*
X14737500Y13600000D03*
X14737500Y14000000D03*
X14737500Y14400000D03*
X14737500Y14800000D03*
X14737500Y15200000D03*
X14737500Y15600000D03*
X14737500Y16000000D03*
X14737500Y16400000D03*
X14737500Y16800000D03*
X14737500Y17200000D03*
D22*
X13900000Y18037500D03*
X13500000Y18037500D03*
X13100000Y18037500D03*
X12700000Y18037500D03*
X12300000Y18037500D03*
X11900000Y18037500D03*
X11500000Y18037500D03*
X11100000Y18037500D03*
X10700000Y18037500D03*
X10300000Y18037500D03*
X9900000Y18037500D03*
X9500000Y18037500D03*
X9100000Y18037500D03*
X8700000Y18037500D03*
D23*
X11300000Y14600000D03*
%TD*%
D24*
%TO.C,J2*%
X2000000Y34910000D03*
D16*
X2000000Y32370000D03*
X2000000Y29830000D03*
X2000000Y27290000D03*
X2000000Y24750000D03*
X2000000Y22210000D03*
X2000000Y19670000D03*
X2000000Y17130000D03*
X2000000Y14590000D03*
X2000000Y12050000D03*
X2000000Y9510000D03*
X2000000Y6970000D03*
X2000000Y4430000D03*
X2000000Y1890000D03*
%TD*%
D18*
%TO.C,R2*%
X6100000Y27690000D03*
X6100000Y28710000D03*
%TD*%
D25*
%TO.C,R5*%
X18290000Y7980000D03*
X17270000Y7980000D03*
%TD*%
D19*
%TO.C,C10*%
X6410000Y18490000D03*
X6410000Y17530000D03*
%TD*%
D26*
%TO.C,F1*%
X18800000Y34887500D03*
X18800000Y33312500D03*
%TD*%
D15*
%TO.C,J3*%
X22000000Y34910000D03*
D16*
X22000000Y32370000D03*
X22000000Y29830000D03*
X22000000Y27290000D03*
X22000000Y24750000D03*
X22000000Y22210000D03*
X22000000Y19670000D03*
X22000000Y17130000D03*
X22000000Y14590000D03*
X22000000Y12050000D03*
X22000000Y9510000D03*
X22000000Y6970000D03*
X22000000Y4430000D03*
X22000000Y1890000D03*
%TD*%
D19*
%TO.C,C8*%
X12083332Y21700000D03*
X12083332Y20740000D03*
%TD*%
D27*
%TO.C,D2*%
X17820000Y20302500D03*
X17820000Y21877500D03*
%TD*%
D28*
%TO.C,SW1*%
X18300000Y5650000D03*
X18300000Y1290000D03*
%TD*%
D29*
%TO.C,D1*%
X18800000Y29750000D03*
X18800000Y31850000D03*
%TD*%
D30*
%TO.C,C11*%
X4990000Y13330000D03*
X5950000Y13330000D03*
%TD*%
D20*
%TO.C,R9*%
X11300000Y8680000D03*
X11300000Y7660000D03*
%TD*%
D28*
%TO.C,SW2*%
X5740000Y5650000D03*
X5740000Y1290000D03*
%TD*%
D30*
%TO.C,C14*%
X9660000Y25400000D03*
X10620000Y25400000D03*
%TD*%
D20*
%TO.C,R3*%
X5730000Y8000000D03*
X5730000Y6980000D03*
%TD*%
D31*
%TO.C,U2*%
X4800000Y25425000D03*
X4800000Y24625000D03*
X4800000Y23825000D03*
X4800000Y23025000D03*
X8600000Y23025000D03*
X8600000Y23825000D03*
X8600000Y24625000D03*
X8600000Y25425000D03*
D32*
X6700000Y24225000D03*
%TD*%
D19*
%TO.C,C9*%
X11116666Y21700000D03*
X11116666Y20740000D03*
%TD*%
D33*
%TO.C,J1*%
X14890000Y29960000D03*
X9110000Y29960000D03*
D34*
X15250000Y28515000D03*
X14450000Y28515000D03*
D35*
X13250000Y28515000D03*
X12250000Y28515000D03*
X11750000Y28515000D03*
X10750000Y28515000D03*
D34*
X9550000Y28515000D03*
X8750000Y28515000D03*
X8750000Y28515000D03*
X9550000Y28515000D03*
D35*
X10250000Y28515000D03*
X11250000Y28515000D03*
X12750000Y28515000D03*
X13750000Y28515000D03*
D34*
X14450000Y28515000D03*
X15250000Y28515000D03*
D36*
X16320000Y29430000D03*
D37*
X16320000Y33610000D03*
D36*
X7680000Y29430000D03*
D37*
X7680000Y33610000D03*
%TD*%
D17*
%TO.C,C12*%
X12310000Y7710000D03*
X12310000Y8670000D03*
%TD*%
D20*
%TO.C,R7*%
X13049998Y21710000D03*
X13049998Y20690000D03*
%TD*%
D17*
%TO.C,C4*%
X13300000Y7710000D03*
X13300000Y8670000D03*
%TD*%
D38*
%TO.C,Y1*%
X13020000Y6020000D03*
X11270000Y6020000D03*
X11270000Y4620000D03*
X13020000Y4620000D03*
%TD*%
D19*
%TO.C,C3*%
X9790000Y21740000D03*
X9790000Y20780000D03*
%TD*%
D39*
%TO.C,C7*%
X16930000Y18250000D03*
X15970000Y18250000D03*
%TD*%
D19*
%TO.C,C5*%
X14983330Y21700000D03*
X14983330Y20740000D03*
%TD*%
D39*
%TO.C,C13*%
X16930000Y17200000D03*
X15970000Y17200000D03*
%TD*%
%TO.C,C6*%
X15960000Y19350000D03*
X15000000Y19350000D03*
%TD*%
D20*
%TO.C,R8*%
X14016664Y21710000D03*
X14016664Y20690000D03*
%TD*%
%LPD*%
M02*
