%TF.GenerationSoftware,KiCad,Pcbnew,8.0.0*%
%TF.CreationDate,2024-02-27T23:55:06+02:00*%
%TF.ProjectId,my-rp2040,6d792d72-7032-4303-9430-2e6b69636164,rev?*%
%TF.SameCoordinates,PX555a960PY4fdec70*%
%TF.FileFunction,Copper,L1,Top*%
%TF.FilePolarity,Positive*%
%FSLAX46Y46*%
G04 Gerber Fmt 4.6, Leading zero omitted, Abs format (unit mm)*
G04 Created by KiCad (PCBNEW 8.0.0) date 2024-02-27 23:55:06*
%MOMM*%
%LPD*%
G01*
G04 APERTURE LIST*
G04 Aperture macros list*
%AMRoundRect*
0 Rectangle with rounded corners*
0 $1 Rounding radius*
0 $2 $3 $4 $5 $6 $7 $8 $9 X,Y pos of 4 corners*
0 Add a 4 corners polygon primitive as box body*
4,1,4,$2,$3,$4,$5,$6,$7,$8,$9,$2,$3,0*
0 Add four circle primitives for the rounded corners*
1,1,$1+$1,$2,$3*
1,1,$1+$1,$4,$5*
1,1,$1+$1,$6,$7*
1,1,$1+$1,$8,$9*
0 Add four rect primitives between the rounded corners*
20,1,$1+$1,$2,$3,$4,$5,0*
20,1,$1+$1,$4,$5,$6,$7,0*
20,1,$1+$1,$6,$7,$8,$9,0*
20,1,$1+$1,$8,$9,$2,$3,0*%
G04 Aperture macros list end*
%TA.AperFunction,SMDPad,CuDef*%
%ADD10RoundRect,0.150000X-0.150000X0.512500X-0.150000X-0.512500X0.150000X-0.512500X0.150000X0.512500X0*%
%TD*%
%TA.AperFunction,ComponentPad*%
%ADD11R,1.700000X1.700000*%
%TD*%
%TA.AperFunction,ComponentPad*%
%ADD12O,1.700000X1.700000*%
%TD*%
%TA.AperFunction,SMDPad,CuDef*%
%ADD13RoundRect,0.140000X0.170000X-0.140000X0.170000X0.140000X-0.170000X0.140000X-0.170000X-0.140000X0*%
%TD*%
%TA.AperFunction,SMDPad,CuDef*%
%ADD14RoundRect,0.135000X0.185000X-0.135000X0.185000X0.135000X-0.185000X0.135000X-0.185000X-0.135000X0*%
%TD*%
%TA.AperFunction,SMDPad,CuDef*%
%ADD15RoundRect,0.140000X-0.170000X0.140000X-0.170000X-0.140000X0.170000X-0.140000X0.170000X0.140000X0*%
%TD*%
%TA.AperFunction,SMDPad,CuDef*%
%ADD16RoundRect,0.135000X-0.185000X0.135000X-0.185000X-0.135000X0.185000X-0.135000X0.185000X0.135000X0*%
%TD*%
%TA.AperFunction,SMDPad,CuDef*%
%ADD17RoundRect,0.050000X-0.387500X-0.050000X0.387500X-0.050000X0.387500X0.050000X-0.387500X0.050000X0*%
%TD*%
%TA.AperFunction,SMDPad,CuDef*%
%ADD18RoundRect,0.050000X-0.050000X-0.387500X0.050000X-0.387500X0.050000X0.387500X-0.050000X0.387500X0*%
%TD*%
%TA.AperFunction,SMDPad,CuDef*%
%ADD19R,3.200000X3.200000*%
%TD*%
%TA.AperFunction,ComponentPad*%
%ADD20C,1.700000*%
%TD*%
%TA.AperFunction,SMDPad,CuDef*%
%ADD21RoundRect,0.135000X0.135000X0.185000X-0.135000X0.185000X-0.135000X-0.185000X0.135000X-0.185000X0*%
%TD*%
%TA.AperFunction,SMDPad,CuDef*%
%ADD22RoundRect,0.218750X-0.256250X0.218750X-0.256250X-0.218750X0.256250X-0.218750X0.256250X0.218750X0*%
%TD*%
%TA.AperFunction,SMDPad,CuDef*%
%ADD23RoundRect,0.218750X0.256250X-0.218750X0.256250X0.218750X-0.256250X0.218750X-0.256250X-0.218750X0*%
%TD*%
%TA.AperFunction,SMDPad,CuDef*%
%ADD24R,1.360000X1.230000*%
%TD*%
%TA.AperFunction,SMDPad,CuDef*%
%ADD25RoundRect,0.112500X0.112500X-0.187500X0.112500X0.187500X-0.112500X0.187500X-0.112500X-0.187500X0*%
%TD*%
%TA.AperFunction,SMDPad,CuDef*%
%ADD26RoundRect,0.140000X-0.140000X-0.170000X0.140000X-0.170000X0.140000X0.170000X-0.140000X0.170000X0*%
%TD*%
%TA.AperFunction,SMDPad,CuDef*%
%ADD27R,0.800000X0.400000*%
%TD*%
%TA.AperFunction,SMDPad,CuDef*%
%ADD28R,2.300000X3.000000*%
%TD*%
%TA.AperFunction,SMDPad,CuDef*%
%ADD29R,0.600000X1.450000*%
%TD*%
%TA.AperFunction,SMDPad,CuDef*%
%ADD30R,0.300000X1.450000*%
%TD*%
%TA.AperFunction,ComponentPad*%
%ADD31O,1.000000X2.100000*%
%TD*%
%TA.AperFunction,ComponentPad*%
%ADD32O,1.000000X1.600000*%
%TD*%
%TA.AperFunction,SMDPad,CuDef*%
%ADD33R,1.150000X1.000000*%
%TD*%
%TA.AperFunction,SMDPad,CuDef*%
%ADD34RoundRect,0.140000X0.140000X0.170000X-0.140000X0.170000X-0.140000X-0.170000X0.140000X-0.170000X0*%
%TD*%
%TA.AperFunction,ViaPad*%
%ADD35C,0.500000*%
%TD*%
%TA.AperFunction,ViaPad*%
%ADD36C,0.600000*%
%TD*%
%TA.AperFunction,Conductor*%
%ADD37C,0.300000*%
%TD*%
%TA.AperFunction,Conductor*%
%ADD38C,0.200000*%
%TD*%
%TA.AperFunction,Conductor*%
%ADD39C,0.150000*%
%TD*%
%TA.AperFunction,Conductor*%
%ADD40C,0.400000*%
%TD*%
G04 APERTURE END LIST*
D10*
%TO.P,U1,1,VIN*%
%TO.N,VCC*%
X19350000Y25850000D03*
%TO.P,U1,2,GND*%
%TO.N,GND*%
X18400000Y25850000D03*
%TO.P,U1,3,EN*%
%TO.N,VCC*%
X17450000Y25850000D03*
%TO.P,U1,4,NC*%
%TO.N,unconnected-(U1-NC-Pad4)*%
X17450000Y23575000D03*
%TO.P,U1,5,VOUT*%
%TO.N,+3V3*%
X19350000Y23575000D03*
%TD*%
D11*
%TO.P,J4,1,Pin_1*%
%TO.N,/SWCLK*%
X9475000Y1910000D03*
D12*
%TO.P,J4,2,Pin_2*%
%TO.N,GND*%
X12015000Y1910000D03*
%TO.P,J4,3,Pin_3*%
%TO.N,/SWDIO*%
X14555000Y1910000D03*
%TD*%
D13*
%TO.P,C1,1*%
%TO.N,VCC*%
X19350000Y27270000D03*
%TO.P,C1,2*%
%TO.N,GND*%
X19350000Y28230000D03*
%TD*%
%TO.P,C15,1*%
%TO.N,/XIN*%
X9770000Y4470000D03*
%TO.P,C15,2*%
%TO.N,GND*%
X9770000Y5430000D03*
%TD*%
%TO.P,C16,1*%
%TO.N,GND*%
X14490000Y5240000D03*
%TO.P,C16,2*%
%TO.N,Net-(C16-Pad2)*%
X14490000Y6200000D03*
%TD*%
D14*
%TO.P,R6,1*%
%TO.N,/QSPI_SS*%
X4800000Y27700000D03*
%TO.P,R6,2*%
%TO.N,+3V3*%
X4800000Y28720000D03*
%TD*%
D15*
%TO.P,C2,1*%
%TO.N,+3V3*%
X19350000Y22150000D03*
%TO.P,C2,2*%
%TO.N,GND*%
X19350000Y21190000D03*
%TD*%
D16*
%TO.P,R1,1*%
%TO.N,Net-(J1-CC1)*%
X6100000Y31460000D03*
%TO.P,R1,2*%
%TO.N,GND*%
X6100000Y30440000D03*
%TD*%
D14*
%TO.P,R4,1*%
%TO.N,Net-(D2-A)*%
X15980000Y20700000D03*
%TO.P,R4,2*%
%TO.N,/GP25*%
X15980000Y21720000D03*
%TD*%
D17*
%TO.P,U3,1,IOVDD*%
%TO.N,+3V3*%
X7862500Y17200000D03*
%TO.P,U3,2,GPIO0*%
%TO.N,/GP0*%
X7862500Y16800000D03*
%TO.P,U3,3,GPIO1*%
%TO.N,/GP1*%
X7862500Y16400000D03*
%TO.P,U3,4,GPIO2*%
%TO.N,/GP2*%
X7862500Y16000000D03*
%TO.P,U3,5,GPIO3*%
%TO.N,/GP3*%
X7862500Y15600000D03*
%TO.P,U3,6,GPIO4*%
%TO.N,/GP4*%
X7862500Y15200000D03*
%TO.P,U3,7,GPIO5*%
%TO.N,/GP5*%
X7862500Y14800000D03*
%TO.P,U3,8,GPIO6*%
%TO.N,/GP6*%
X7862500Y14400000D03*
%TO.P,U3,9,GPIO7*%
%TO.N,/GP7*%
X7862500Y14000000D03*
%TO.P,U3,10,IOVDD*%
%TO.N,+3V3*%
X7862500Y13600000D03*
%TO.P,U3,11,GPIO8*%
%TO.N,/GP8*%
X7862500Y13200000D03*
%TO.P,U3,12,GPIO9*%
%TO.N,/GP9*%
X7862500Y12800000D03*
%TO.P,U3,13,GPIO10*%
%TO.N,/GP10*%
X7862500Y12400000D03*
%TO.P,U3,14,GPIO11*%
%TO.N,/GP11*%
X7862500Y12000000D03*
D18*
%TO.P,U3,15,GPIO12*%
%TO.N,/GP12*%
X8700000Y11162500D03*
%TO.P,U3,16,GPIO13*%
%TO.N,/GP13*%
X9100000Y11162500D03*
%TO.P,U3,17,GPIO14*%
%TO.N,/GP14*%
X9500000Y11162500D03*
%TO.P,U3,18,GPIO15*%
%TO.N,/GP15*%
X9900000Y11162500D03*
%TO.P,U3,19,TESTEN*%
%TO.N,GND*%
X10300000Y11162500D03*
%TO.P,U3,20,XIN*%
%TO.N,/XIN*%
X10700000Y11162500D03*
%TO.P,U3,21,XOUT*%
%TO.N,/XOUT*%
X11100000Y11162500D03*
%TO.P,U3,22,IOVDD*%
%TO.N,+3V3*%
X11500000Y11162500D03*
%TO.P,U3,23,DVDD*%
%TO.N,+1V1*%
X11900000Y11162500D03*
%TO.P,U3,24,SWCLK*%
%TO.N,/SWCLK*%
X12300000Y11162500D03*
%TO.P,U3,25,SWD*%
%TO.N,/SWDIO*%
X12700000Y11162500D03*
%TO.P,U3,26,RUN*%
%TO.N,/RUN*%
X13100000Y11162500D03*
%TO.P,U3,27,GPIO16*%
%TO.N,/GP16*%
X13500000Y11162500D03*
%TO.P,U3,28,GPIO17*%
%TO.N,/GP17*%
X13900000Y11162500D03*
D17*
%TO.P,U3,29,GPIO18*%
%TO.N,/GP18*%
X14737500Y12000000D03*
%TO.P,U3,30,GPIO19*%
%TO.N,/GP19*%
X14737500Y12400000D03*
%TO.P,U3,31,GPIO20*%
%TO.N,/GP20*%
X14737500Y12800000D03*
%TO.P,U3,32,GPIO21*%
%TO.N,/GP21*%
X14737500Y13200000D03*
%TO.P,U3,33,IOVDD*%
%TO.N,+3V3*%
X14737500Y13600000D03*
%TO.P,U3,34,GPIO22*%
%TO.N,/GP22*%
X14737500Y14000000D03*
%TO.P,U3,35,GPIO23*%
%TO.N,/GP23*%
X14737500Y14400000D03*
%TO.P,U3,36,GPIO24*%
%TO.N,/GP24*%
X14737500Y14800000D03*
%TO.P,U3,37,GPIO25*%
%TO.N,/GP25*%
X14737500Y15200000D03*
%TO.P,U3,38,GPIO26_ADC0*%
%TO.N,/ADC0*%
X14737500Y15600000D03*
%TO.P,U3,39,GPIO27_ADC1*%
%TO.N,/ADC1*%
X14737500Y16000000D03*
%TO.P,U3,40,GPIO28_ADC2*%
%TO.N,/ADC2*%
X14737500Y16400000D03*
%TO.P,U3,41,GPIO29_ADC3*%
%TO.N,/ADC3*%
X14737500Y16800000D03*
%TO.P,U3,42,IOVDD*%
%TO.N,+3V3*%
X14737500Y17200000D03*
D18*
%TO.P,U3,43,ADC_AVDD*%
X13900000Y18037500D03*
%TO.P,U3,44,VREG_IN*%
X13500000Y18037500D03*
%TO.P,U3,45,VREG_VOUT*%
%TO.N,+1V1*%
X13100000Y18037500D03*
%TO.P,U3,46,USB_DM*%
%TO.N,Net-(U3-USB_DM)*%
X12700000Y18037500D03*
%TO.P,U3,47,USB_DP*%
%TO.N,Net-(U3-USB_DP)*%
X12300000Y18037500D03*
%TO.P,U3,48,USB_VDD*%
%TO.N,+3V3*%
X11900000Y18037500D03*
%TO.P,U3,49,IOVDD*%
X11500000Y18037500D03*
%TO.P,U3,50,DVDD*%
%TO.N,+1V1*%
X11100000Y18037500D03*
%TO.P,U3,51,QSPI_SD3*%
%TO.N,/QSPI_SD3*%
X10700000Y18037500D03*
%TO.P,U3,52,QSPI_SCLK*%
%TO.N,/QSPI_CLK*%
X10300000Y18037500D03*
%TO.P,U3,53,QSPI_SD0*%
%TO.N,/QSPI_SD0*%
X9900000Y18037500D03*
%TO.P,U3,54,QSPI_SD2*%
%TO.N,/QSPI_SD2*%
X9500000Y18037500D03*
%TO.P,U3,55,QSPI_SD1*%
%TO.N,/QSPI_SD1*%
X9100000Y18037500D03*
%TO.P,U3,56,QSPI_SS*%
%TO.N,/QSPI_SS*%
X8700000Y18037500D03*
D19*
%TO.P,U3,57,GND*%
%TO.N,GND*%
X11300000Y14600000D03*
%TD*%
D20*
%TO.P,J2,1,Pin_1*%
%TO.N,/GP0*%
X2000000Y34910000D03*
D12*
%TO.P,J2,2,Pin_2*%
%TO.N,/GP1*%
X2000000Y32370000D03*
%TO.P,J2,3,Pin_3*%
%TO.N,GND*%
X2000000Y29830000D03*
%TO.P,J2,4,Pin_4*%
%TO.N,/GP2*%
X2000000Y27290000D03*
%TO.P,J2,5,Pin_5*%
%TO.N,/GP3*%
X2000000Y24750000D03*
%TO.P,J2,6,Pin_6*%
%TO.N,/GP4*%
X2000000Y22210000D03*
%TO.P,J2,7,Pin_7*%
%TO.N,/GP5*%
X2000000Y19670000D03*
%TO.P,J2,8,Pin_8*%
%TO.N,/GP6*%
X2000000Y17130000D03*
%TO.P,J2,9,Pin_9*%
%TO.N,/GP7*%
X2000000Y14590000D03*
%TO.P,J2,10,Pin_10*%
%TO.N,/GP8*%
X2000000Y12050000D03*
%TO.P,J2,11,Pin_11*%
%TO.N,/GP9*%
X2000000Y9510000D03*
%TO.P,J2,12,Pin_12*%
%TO.N,/GP10*%
X2000000Y6970000D03*
%TO.P,J2,13,Pin_13*%
%TO.N,/GP11*%
X2000000Y4430000D03*
%TO.P,J2,14,Pin_14*%
%TO.N,/GP12*%
X2000000Y1890000D03*
%TD*%
D14*
%TO.P,R2,1*%
%TO.N,Net-(J1-CC2)*%
X6100000Y27690000D03*
%TO.P,R2,2*%
%TO.N,GND*%
X6100000Y28710000D03*
%TD*%
D21*
%TO.P,R5,1*%
%TO.N,+3V3*%
X18290000Y7980000D03*
%TO.P,R5,2*%
%TO.N,/RUN*%
X17270000Y7980000D03*
%TD*%
D15*
%TO.P,C10,1*%
%TO.N,GND*%
X6410000Y18490000D03*
%TO.P,C10,2*%
%TO.N,+3V3*%
X6410000Y17530000D03*
%TD*%
D22*
%TO.P,F1,1*%
%TO.N,VBUS*%
X18800000Y34887500D03*
%TO.P,F1,2*%
%TO.N,Net-(D1-A)*%
X18800000Y33312500D03*
%TD*%
D11*
%TO.P,J3,1,Pin_1*%
%TO.N,VBUS*%
X22000000Y34910000D03*
D12*
%TO.P,J3,2,Pin_2*%
%TO.N,VCC*%
X22000000Y32370000D03*
%TO.P,J3,3,Pin_3*%
%TO.N,GND*%
X22000000Y29830000D03*
%TO.P,J3,4,Pin_4*%
%TO.N,+3V3*%
X22000000Y27290000D03*
%TO.P,J3,5,Pin_5*%
%TO.N,/ADC1*%
X22000000Y24750000D03*
%TO.P,J3,6,Pin_6*%
%TO.N,/ADC0*%
X22000000Y22210000D03*
%TO.P,J3,7,Pin_7*%
%TO.N,/GP19*%
X22000000Y19670000D03*
%TO.P,J3,8,Pin_8*%
%TO.N,/GP18*%
X22000000Y17130000D03*
%TO.P,J3,9,Pin_9*%
%TO.N,/GP17*%
X22000000Y14590000D03*
%TO.P,J3,10,Pin_10*%
%TO.N,/GP16*%
X22000000Y12050000D03*
%TO.P,J3,11,Pin_11*%
%TO.N,/GP15*%
X22000000Y9510000D03*
%TO.P,J3,12,Pin_12*%
%TO.N,/GP14*%
X22000000Y6970000D03*
%TO.P,J3,13,Pin_13*%
%TO.N,/GP13*%
X22000000Y4430000D03*
%TO.P,J3,14,Pin_14*%
%TO.N,GND*%
X22000000Y1890000D03*
%TD*%
D15*
%TO.P,C8,1*%
%TO.N,GND*%
X12083332Y21700000D03*
%TO.P,C8,2*%
%TO.N,+3V3*%
X12083332Y20740000D03*
%TD*%
D23*
%TO.P,D2,1,K*%
%TO.N,GND*%
X17820000Y20302500D03*
%TO.P,D2,2,A*%
%TO.N,Net-(D2-A)*%
X17820000Y21877500D03*
%TD*%
D24*
%TO.P,SW1,1,1*%
%TO.N,/RUN*%
X18300000Y5650000D03*
%TO.P,SW1,2,2*%
%TO.N,GND*%
X18300000Y1290000D03*
%TD*%
D25*
%TO.P,D1,1,K*%
%TO.N,VCC*%
X18800000Y29750000D03*
%TO.P,D1,2,A*%
%TO.N,Net-(D1-A)*%
X18800000Y31850000D03*
%TD*%
D26*
%TO.P,C11,1*%
%TO.N,GND*%
X4990000Y13330000D03*
%TO.P,C11,2*%
%TO.N,+3V3*%
X5950000Y13330000D03*
%TD*%
D16*
%TO.P,R9,1*%
%TO.N,/XOUT*%
X11300000Y8680000D03*
%TO.P,R9,2*%
%TO.N,Net-(C16-Pad2)*%
X11300000Y7660000D03*
%TD*%
D24*
%TO.P,SW2,1,1*%
%TO.N,Net-(R3-Pad2)*%
X5740000Y5650000D03*
%TO.P,SW2,2,2*%
%TO.N,GND*%
X5740000Y1290000D03*
%TD*%
D26*
%TO.P,C14,1*%
%TO.N,+3V3*%
X9660000Y25400000D03*
%TO.P,C14,2*%
%TO.N,GND*%
X10620000Y25400000D03*
%TD*%
D16*
%TO.P,R3,1*%
%TO.N,/QSPI_SS*%
X5730000Y8000000D03*
%TO.P,R3,2*%
%TO.N,Net-(R3-Pad2)*%
X5730000Y6980000D03*
%TD*%
D27*
%TO.P,U2,1,~{CS}*%
%TO.N,/QSPI_SS*%
X4800000Y25425000D03*
%TO.P,U2,2,DO(IO1)*%
%TO.N,/QSPI_SD1*%
X4800000Y24625000D03*
%TO.P,U2,3,IO2*%
%TO.N,/QSPI_SD2*%
X4800000Y23825000D03*
%TO.P,U2,4,GND*%
%TO.N,GND*%
X4800000Y23025000D03*
%TO.P,U2,5,DI(IO0)*%
%TO.N,/QSPI_SD0*%
X8600000Y23025000D03*
%TO.P,U2,6,CLK*%
%TO.N,/QSPI_CLK*%
X8600000Y23825000D03*
%TO.P,U2,7,IO3*%
%TO.N,/QSPI_SD3*%
X8600000Y24625000D03*
%TO.P,U2,8,VCC*%
%TO.N,+3V3*%
X8600000Y25425000D03*
D28*
%TO.P,U2,9,EP*%
%TO.N,GND*%
X6700000Y24225000D03*
%TD*%
D15*
%TO.P,C9,1*%
%TO.N,GND*%
X11116666Y21700000D03*
%TO.P,C9,2*%
%TO.N,+3V3*%
X11116666Y20740000D03*
%TD*%
D29*
%TO.P,J1,A1,GND*%
%TO.N,GND*%
X15250000Y28515000D03*
%TO.P,J1,A4,VBUS*%
%TO.N,VBUS*%
X14450000Y28515000D03*
D30*
%TO.P,J1,A5,CC1*%
%TO.N,Net-(J1-CC1)*%
X13250000Y28515000D03*
%TO.P,J1,A6,D+*%
%TO.N,/PORT_D+*%
X12250000Y28515000D03*
%TO.P,J1,A7,D-*%
%TO.N,/PORT_D-*%
X11750000Y28515000D03*
%TO.P,J1,A8,SBU1*%
%TO.N,unconnected-(J1-SBU1-PadA8)*%
X10750000Y28515000D03*
D29*
%TO.P,J1,A9,VBUS*%
%TO.N,VBUS*%
X9550000Y28515000D03*
%TO.P,J1,A12,GND*%
%TO.N,GND*%
X8750000Y28515000D03*
%TO.P,J1,B1,GND*%
X8750000Y28515000D03*
%TO.P,J1,B4,VBUS*%
%TO.N,VBUS*%
X9550000Y28515000D03*
D30*
%TO.P,J1,B5,CC2*%
%TO.N,Net-(J1-CC2)*%
X10250000Y28515000D03*
%TO.P,J1,B6,D+*%
%TO.N,/PORT_D+*%
X11250000Y28515000D03*
%TO.P,J1,B7,D-*%
%TO.N,/PORT_D-*%
X12750000Y28515000D03*
%TO.P,J1,B8,SBU2*%
%TO.N,unconnected-(J1-SBU2-PadB8)*%
X13750000Y28515000D03*
D29*
%TO.P,J1,B9,VBUS*%
%TO.N,VBUS*%
X14450000Y28515000D03*
%TO.P,J1,B12,GND*%
%TO.N,GND*%
X15250000Y28515000D03*
D31*
%TO.P,J1,S1,SHIELD*%
X16320000Y29430000D03*
D32*
X16320000Y33610000D03*
D31*
X7680000Y29430000D03*
D32*
X7680000Y33610000D03*
%TD*%
D13*
%TO.P,C12,1*%
%TO.N,GND*%
X12310000Y7710000D03*
%TO.P,C12,2*%
%TO.N,+3V3*%
X12310000Y8670000D03*
%TD*%
D16*
%TO.P,R7,1*%
%TO.N,/PORT_D+*%
X13049998Y21710000D03*
%TO.P,R7,2*%
%TO.N,Net-(U3-USB_DP)*%
X13049998Y20690000D03*
%TD*%
D13*
%TO.P,C4,1*%
%TO.N,GND*%
X13300000Y7710000D03*
%TO.P,C4,2*%
%TO.N,+1V1*%
X13300000Y8670000D03*
%TD*%
D33*
%TO.P,Y1,1,1*%
%TO.N,Net-(C16-Pad2)*%
X13020000Y6020000D03*
%TO.P,Y1,2,2*%
%TO.N,GND*%
X11270000Y6020000D03*
%TO.P,Y1,3,3*%
%TO.N,/XIN*%
X11270000Y4620000D03*
%TO.P,Y1,4,4*%
%TO.N,GND*%
X13020000Y4620000D03*
%TD*%
D15*
%TO.P,C3,1*%
%TO.N,GND*%
X9790000Y21740000D03*
%TO.P,C3,2*%
%TO.N,+1V1*%
X9790000Y20780000D03*
%TD*%
D34*
%TO.P,C7,1*%
%TO.N,GND*%
X16930000Y18250000D03*
%TO.P,C7,2*%
%TO.N,+3V3*%
X15970000Y18250000D03*
%TD*%
D15*
%TO.P,C5,1*%
%TO.N,GND*%
X14983330Y21700000D03*
%TO.P,C5,2*%
%TO.N,+1V1*%
X14983330Y20740000D03*
%TD*%
D34*
%TO.P,C13,1*%
%TO.N,GND*%
X16930000Y17200000D03*
%TO.P,C13,2*%
%TO.N,+3V3*%
X15970000Y17200000D03*
%TD*%
%TO.P,C6,1*%
%TO.N,GND*%
X15960000Y19350000D03*
%TO.P,C6,2*%
%TO.N,+3V3*%
X15000000Y19350000D03*
%TD*%
D16*
%TO.P,R8,1*%
%TO.N,/PORT_D-*%
X14016664Y21710000D03*
%TO.P,R8,2*%
%TO.N,Net-(U3-USB_DM)*%
X14016664Y20690000D03*
%TD*%
D35*
%TO.N,GND*%
X4800000Y21670000D03*
X10190000Y15690000D03*
X5900000Y23050000D03*
X6410000Y19330000D03*
X7475000Y23050000D03*
D36*
X15250000Y27300000D03*
D35*
X9840000Y8440000D03*
X7475000Y25350000D03*
X16940000Y19350000D03*
X10180000Y23530000D03*
X12810000Y7060000D03*
X5900000Y25375000D03*
X14490000Y4620000D03*
D36*
X8750000Y27300000D03*
D35*
X11125000Y22550000D03*
X11330000Y14670000D03*
X19940000Y28960000D03*
X19370000Y20350000D03*
X6100000Y29600000D03*
X18400000Y27180000D03*
X9780000Y6020000D03*
X12400000Y13440000D03*
X12075000Y22550000D03*
X6675000Y24275000D03*
X11340000Y25400000D03*
X4130000Y13320000D03*
X14975000Y22550000D03*
X10210000Y13460000D03*
X12400000Y15640000D03*
X17700000Y17200000D03*
D36*
%TO.N,VBUS*%
X14450000Y27300000D03*
X9550000Y27300000D03*
D35*
%TO.N,+3V3*%
X16330000Y14810000D03*
X16080000Y16560000D03*
%TO.N,/QSPI_SS*%
X5740000Y8750000D03*
X5250000Y20020000D03*
%TO.N,Net-(J1-CC1)*%
X13480000Y27300000D03*
X6100000Y32300000D03*
%TO.N,/GP25*%
X15531499Y15045101D03*
X15970000Y22540000D03*
%TO.N,/GP2*%
X5400000Y16490000D03*
%TO.N,/GP13*%
X7460000Y10550000D03*
X16270000Y8540000D03*
%TO.N,/GP14*%
X8140000Y9720000D03*
X15550000Y9190000D03*
%TO.N,/GP15*%
X9030000Y9320000D03*
X16270000Y9880000D03*
%TO.N,/GP3*%
X4750000Y17210000D03*
%TO.N,/GP4*%
X4510000Y15810000D03*
%TO.N,/GP0*%
X6790000Y16810000D03*
%TD*%
D37*
%TO.N,Net-(D1-A)*%
X18800000Y33312500D02*
X18800000Y31850000D01*
%TO.N,VCC*%
X18275000Y28175000D02*
X18325000Y28175000D01*
X18800000Y30350000D02*
X20820000Y32370000D01*
X19350000Y27270000D02*
X19350000Y25850000D01*
X18325000Y28175000D02*
X19230000Y27270000D01*
X20820000Y32370000D02*
X22000000Y32370000D01*
X17450000Y27350000D02*
X17450000Y25850000D01*
X18800000Y29750000D02*
X18800000Y28700000D01*
X18275000Y28175000D02*
X17450000Y27350000D01*
X18800000Y28700000D02*
X18275000Y28175000D01*
X19230000Y27270000D02*
X19350000Y27270000D01*
X18800000Y29750000D02*
X18800000Y30350000D01*
D38*
%TO.N,GND*%
X19350000Y28370000D02*
X19940000Y28960000D01*
D39*
X5765000Y785000D02*
X10890000Y785000D01*
D38*
X10300000Y13370000D02*
X10210000Y13460000D01*
X10300000Y13550000D02*
X10300000Y13600000D01*
X10620000Y25400000D02*
X11340000Y25400000D01*
X12045000Y6020000D02*
X12145000Y5920000D01*
X9770000Y5430000D02*
X9770000Y6010000D01*
D39*
X13300000Y7550000D02*
X12810000Y7060000D01*
X10150000Y23530000D02*
X10180000Y23530000D01*
X17910000Y20292500D02*
X17882500Y20292500D01*
D38*
X11116666Y21700000D02*
X11116666Y22541666D01*
X10300000Y13600000D02*
X11330000Y14630000D01*
D39*
X17910000Y20292500D02*
X19312500Y20292500D01*
D38*
X11116666Y22541666D02*
X11125000Y22550000D01*
X5875000Y23025000D02*
X5900000Y23050000D01*
D39*
X13300000Y7710000D02*
X13300000Y7550000D01*
D38*
X15960000Y19350000D02*
X16940000Y19350000D01*
X14983330Y21700000D02*
X14983330Y22541670D01*
X12145000Y5920000D02*
X12145000Y4720000D01*
X14983330Y22541670D02*
X14975000Y22550000D01*
X6100000Y28710000D02*
X6100000Y29600000D01*
X12083332Y22541668D02*
X12075000Y22550000D01*
X16930000Y18250000D02*
X16930000Y19340000D01*
X19350000Y20370000D02*
X19370000Y20350000D01*
X10300000Y8900000D02*
X10300000Y11162500D01*
X13020000Y4620000D02*
X14490000Y4620000D01*
X18400000Y25850000D02*
X18400000Y27180000D01*
X11330000Y14630000D02*
X11330000Y14670000D01*
D39*
X17882500Y20292500D02*
X16940000Y19350000D01*
X9790000Y21740000D02*
X9830000Y21780000D01*
X13140000Y785000D02*
X18295000Y785000D01*
D38*
X10210000Y13460000D02*
X10300000Y13550000D01*
D37*
X15250000Y27290000D02*
X15250000Y28515000D01*
D38*
X6100000Y30440000D02*
X6100000Y29600000D01*
X16930000Y19340000D02*
X16940000Y19350000D01*
D39*
X12310000Y7560000D02*
X12810000Y7060000D01*
X9830000Y21780000D02*
X9830000Y23210000D01*
D40*
X4800000Y23025000D02*
X5875000Y23025000D01*
D38*
X10300000Y11162500D02*
X10300000Y13370000D01*
D39*
X12015000Y1910000D02*
X13140000Y785000D01*
X19312500Y20292500D02*
X19370000Y20350000D01*
D38*
X12083332Y21700000D02*
X12083332Y22541668D01*
D39*
X10890000Y785000D02*
X12015000Y1910000D01*
D38*
X19350000Y28230000D02*
X19350000Y28370000D01*
X11330000Y14670000D02*
X11370000Y14670000D01*
X4800000Y23025000D02*
X4800000Y21670000D01*
D39*
X20930000Y820000D02*
X22000000Y1890000D01*
X18295000Y785000D02*
X18330000Y820000D01*
D38*
X17700000Y17200000D02*
X16930000Y17200000D01*
X14490000Y5240000D02*
X14490000Y4620000D01*
D39*
X9830000Y23210000D02*
X10150000Y23530000D01*
D38*
X12245000Y4620000D02*
X13020000Y4620000D01*
D39*
X5730000Y820000D02*
X5765000Y785000D01*
D38*
X11270000Y6020000D02*
X9780000Y6020000D01*
D37*
X8750000Y28515000D02*
X8750000Y27300000D01*
D39*
X18330000Y820000D02*
X20930000Y820000D01*
D38*
X4140000Y13330000D02*
X4130000Y13320000D01*
X4990000Y13330000D02*
X4140000Y13330000D01*
X6410000Y18490000D02*
X6410000Y19330000D01*
X11270000Y6020000D02*
X12045000Y6020000D01*
X19350000Y21190000D02*
X19350000Y20370000D01*
X9770000Y6010000D02*
X9780000Y6020000D01*
X11370000Y14670000D02*
X11300000Y14600000D01*
X12145000Y4720000D02*
X12245000Y4620000D01*
D39*
X12310000Y7710000D02*
X12310000Y7560000D01*
D38*
X9840000Y8440000D02*
X10300000Y8900000D01*
D37*
%TO.N,VBUS*%
X14820000Y26550000D02*
X16000000Y26550000D01*
X17975000Y34062500D02*
X18800000Y34887500D01*
X16000000Y26550000D02*
X17975000Y28525000D01*
X14450000Y28515000D02*
X14450000Y27300000D01*
X17975000Y28525000D02*
X17975000Y34062500D01*
X14450000Y26920000D02*
X14820000Y26550000D01*
X21977500Y34887500D02*
X22000000Y34910000D01*
X9550000Y28515000D02*
X9550000Y27300000D01*
X18800000Y34887500D02*
X21977500Y34887500D01*
X14450000Y27300000D02*
X14450000Y26920000D01*
%TO.N,/PORT_D+*%
X13283331Y22423334D02*
X13049998Y22190001D01*
X11250000Y27440000D02*
X12250000Y27440000D01*
X12250000Y25576446D02*
X13283331Y24543115D01*
X11250000Y28515000D02*
X11250000Y27440000D01*
X13283331Y24543115D02*
X13283331Y22423334D01*
X12250000Y28515000D02*
X12250000Y25576446D01*
X12250000Y27440000D02*
X12250000Y28515000D01*
X13049998Y22190001D02*
X13049998Y21710000D01*
D38*
%TO.N,+3V3*%
X7862500Y13600000D02*
X7220000Y13600000D01*
X11900000Y18037500D02*
X11900000Y19140000D01*
X11900000Y19140000D02*
X12083332Y19323332D01*
D39*
X11500000Y11162500D02*
X11500000Y10540000D01*
X11500000Y10540000D02*
X12310000Y9730000D01*
D38*
X11116666Y19533334D02*
X11116666Y20740000D01*
X11500000Y19150000D02*
X11116666Y19533334D01*
X14737500Y17200000D02*
X15970000Y17200000D01*
X13500000Y18037500D02*
X13500000Y18508914D01*
D39*
X12310000Y9730000D02*
X12310000Y8670000D01*
D38*
X15970000Y16670000D02*
X15970000Y17200000D01*
X11500000Y18037500D02*
X11500000Y19150000D01*
X12083332Y19323332D02*
X12083332Y20740000D01*
X8600000Y25425000D02*
X9795000Y25425000D01*
X16080000Y16560000D02*
X15970000Y16670000D01*
X14737500Y13600000D02*
X15490000Y13600000D01*
%TO.N,+1V1*%
X12920000Y17300000D02*
X13100000Y17480000D01*
X13960000Y12760000D02*
X13350000Y12150000D01*
D39*
X14983330Y20681238D02*
X14983330Y20740000D01*
D38*
X13300000Y9228640D02*
X13300000Y8670000D01*
X11303640Y17300000D02*
X12920000Y17300000D01*
X12353640Y12150000D02*
X11900000Y11696360D01*
X12920000Y17300000D02*
X13960000Y16260000D01*
D39*
X11100000Y18580000D02*
X9790000Y19890000D01*
X13100000Y18037500D02*
X13100000Y18797908D01*
D38*
X13350000Y12150000D02*
X12353640Y12150000D01*
X11900000Y11162500D02*
X11900000Y10628640D01*
X13960000Y16260000D02*
X13960000Y12760000D01*
D39*
X11100000Y18037500D02*
X11100000Y18580000D01*
D38*
X11900000Y11696360D02*
X11900000Y11162500D01*
X11100000Y18037500D02*
X11100000Y17503640D01*
X11100000Y17503640D02*
X11303640Y17300000D01*
D39*
X13100000Y18797908D02*
X14983330Y20681238D01*
D38*
X11900000Y10628640D02*
X13300000Y9228640D01*
X13100000Y17480000D02*
X13100000Y18037500D01*
D39*
X9790000Y19890000D02*
X9790000Y20780000D01*
%TO.N,Net-(C16-Pad2)*%
X12940000Y6020000D02*
X13020000Y6020000D01*
X11300000Y7660000D02*
X12940000Y6020000D01*
X14490000Y6200000D02*
X13200000Y6200000D01*
X13200000Y6200000D02*
X13020000Y6020000D01*
%TO.N,Net-(D2-A)*%
X17041068Y21877500D02*
X17820000Y21877500D01*
X15980000Y20816432D02*
X17041068Y21877500D01*
X15980000Y20700000D02*
X15980000Y20816432D01*
%TO.N,Net-(J1-CC2)*%
X9800000Y26600000D02*
X7190000Y26600000D01*
X10250000Y27050000D02*
X9800000Y26600000D01*
X10250000Y28515000D02*
X10250000Y27050000D01*
X7190000Y26600000D02*
X6100000Y27690000D01*
%TO.N,/XIN*%
X9770000Y4470000D02*
X11120000Y4470000D01*
X9185000Y6395000D02*
X9185000Y5055000D01*
X9185000Y5055000D02*
X9770000Y4470000D01*
X10700000Y11162500D02*
X10700000Y7910000D01*
X10700000Y7910000D02*
X9185000Y6395000D01*
X11120000Y4470000D02*
X11270000Y4620000D01*
%TO.N,/XOUT*%
X11100000Y11162500D02*
X11100000Y10370000D01*
X11100000Y10370000D02*
X11300000Y10170000D01*
X11300000Y10170000D02*
X11300000Y8680000D01*
%TO.N,/QSPI_SS*%
X4600000Y25425000D02*
X4800000Y25425000D01*
X8700000Y18541000D02*
X6750000Y20491000D01*
X5730000Y8740000D02*
X5740000Y8750000D01*
X3548000Y21285263D02*
X3548000Y24373000D01*
X6750000Y20491000D02*
X5250000Y20491000D01*
X3548000Y24373000D02*
X4600000Y25425000D01*
X8700000Y18037500D02*
X8700000Y18541000D01*
X5730000Y8000000D02*
X5730000Y8740000D01*
X5250000Y20491000D02*
X4342262Y20491000D01*
X5250000Y20491000D02*
X5250000Y20020000D01*
X4800000Y25425000D02*
X4800000Y27700000D01*
X4342262Y20491000D02*
X3548000Y21285263D01*
%TO.N,/QSPI_SD3*%
X9154000Y22037262D02*
X9552000Y22435262D01*
X9154000Y20126000D02*
X9154000Y22037262D01*
X9552000Y22435262D02*
X9552000Y24073000D01*
X9000000Y24625000D02*
X8600000Y24625000D01*
X9552000Y24073000D02*
X9000000Y24625000D01*
X10700000Y18037500D02*
X10700000Y18580000D01*
X10700000Y18580000D02*
X9154000Y20126000D01*
%TO.N,/QSPI_SD1*%
X9100000Y18037500D02*
X9100000Y18536006D01*
X4457000Y20768000D02*
X3825000Y21400000D01*
X6868006Y20768000D02*
X4457000Y20768000D01*
X4425000Y24625000D02*
X4800000Y24625000D01*
X9100000Y18536006D02*
X6868006Y20768000D01*
X3825000Y21400000D02*
X3825000Y24025000D01*
X3825000Y24025000D02*
X4425000Y24625000D01*
%TO.N,/QSPI_CLK*%
X9792482Y19027000D02*
X9809006Y19027000D01*
X9275000Y22550000D02*
X8877000Y22152000D01*
X8950000Y23825000D02*
X9275000Y23500000D01*
X9809006Y19027000D02*
X10300000Y18536006D01*
X8877000Y22152000D02*
X8877000Y19942482D01*
X8600000Y23825000D02*
X8950000Y23825000D01*
X10300000Y18536006D02*
X10300000Y18037500D01*
X8877000Y19942482D02*
X9792482Y19027000D01*
X9275000Y23500000D02*
X9275000Y22550000D01*
%TO.N,/QSPI_SD2*%
X9500000Y18536006D02*
X6991006Y21045000D01*
X4580466Y21045000D02*
X4125000Y21500466D01*
X6991006Y21045000D02*
X4580466Y21045000D01*
X4125000Y21500466D02*
X4125000Y23550000D01*
X4125000Y23550000D02*
X4400000Y23825000D01*
X9500000Y18037500D02*
X9500000Y18536006D01*
X4400000Y23825000D02*
X4800000Y23825000D01*
%TO.N,/QSPI_SD0*%
X9686006Y18750000D02*
X9677744Y18750000D01*
X8590000Y19837744D02*
X8590000Y23015000D01*
X9677744Y18750000D02*
X8590000Y19837744D01*
X9900000Y18037500D02*
X9900000Y18536006D01*
X9900000Y18536006D02*
X9686006Y18750000D01*
X8590000Y23015000D02*
X8600000Y23025000D01*
%TO.N,Net-(J1-CC1)*%
X13480000Y27300000D02*
X13250000Y27530000D01*
X13250000Y27530000D02*
X13250000Y28515000D01*
X6100000Y32300000D02*
X6100000Y31460000D01*
%TO.N,/GP25*%
X15376600Y15200000D02*
X15531499Y15045101D01*
X14737500Y15200000D02*
X15376600Y15200000D01*
X15980000Y21720000D02*
X15980000Y22530000D01*
X15980000Y22530000D02*
X15970000Y22540000D01*
%TO.N,Net-(R3-Pad2)*%
X5730000Y5660000D02*
X5740000Y5650000D01*
X5730000Y6980000D02*
X5730000Y5660000D01*
D38*
%TO.N,Net-(U3-USB_DP)*%
X13049998Y19824998D02*
X13049998Y20690000D01*
X12300000Y18037500D02*
X12300000Y19075000D01*
X12300000Y19075000D02*
X13049998Y19824998D01*
%TO.N,Net-(U3-USB_DM)*%
X14016664Y20690000D02*
X14016664Y20141664D01*
X14016664Y20141664D02*
X12700000Y18825000D01*
X12700000Y18825000D02*
X12700000Y18037500D01*
D39*
%TO.N,/RUN*%
X15783994Y7980000D02*
X17270000Y7980000D01*
X13100000Y10663994D02*
X15783994Y7980000D01*
X18330000Y6920000D02*
X17270000Y7980000D01*
X13100000Y11162500D02*
X13100000Y10663994D01*
X18330000Y5180000D02*
X18330000Y6920000D01*
%TO.N,/GP19*%
X20875000Y18545000D02*
X22000000Y19670000D01*
X14737500Y12400000D02*
X16676830Y12400000D01*
X16676830Y12400000D02*
X20875000Y16598170D01*
X20875000Y16598170D02*
X20875000Y18545000D01*
%TO.N,/GP2*%
X5912000Y15978000D02*
X5400000Y16490000D01*
X7862500Y16000000D02*
X7840500Y15978000D01*
X7840500Y15978000D02*
X5912000Y15978000D01*
%TO.N,/GP13*%
X8948262Y10450000D02*
X9100000Y10601738D01*
X7460000Y10550000D02*
X7560000Y10450000D01*
X7560000Y10450000D02*
X8948262Y10450000D01*
X9100000Y11162500D02*
X9100000Y10663994D01*
X16270000Y8540000D02*
X16305000Y8575000D01*
X19285000Y8575000D02*
X20540000Y7320000D01*
X16305000Y8575000D02*
X19285000Y8575000D01*
X20540000Y5890000D02*
X22000000Y4430000D01*
X20540000Y7320000D02*
X20540000Y5890000D01*
X9100000Y10601738D02*
X9100000Y11162500D01*
%TO.N,/GP14*%
X9500000Y10610000D02*
X8610000Y9720000D01*
X15550000Y9190000D02*
X19780000Y9190000D01*
X8610000Y9720000D02*
X8140000Y9720000D01*
X9500000Y10610000D02*
X9500000Y11162500D01*
X19780000Y9190000D02*
X22000000Y6970000D01*
%TO.N,/GP15*%
X16640000Y9510000D02*
X22000000Y9510000D01*
X9900000Y11162500D02*
X9900000Y10390000D01*
X9900000Y10390000D02*
X9030000Y9520000D01*
X16270000Y9880000D02*
X16640000Y9510000D01*
X9030000Y9520000D02*
X9030000Y9320000D01*
%TO.N,/GP10*%
X2000000Y7036006D02*
X2000000Y6970000D01*
X7862500Y12400000D02*
X7363994Y12400000D01*
X7363994Y12400000D02*
X2000000Y7036006D01*
%TO.N,/GP3*%
X5505111Y15600000D02*
X4750000Y16355111D01*
X7862500Y15600000D02*
X5505111Y15600000D01*
X4750000Y16355111D02*
X4750000Y17210000D01*
%TO.N,/ADC0*%
X17538262Y15600000D02*
X20875000Y18936738D01*
X20875000Y18936738D02*
X20875000Y21085000D01*
X14737500Y15600000D02*
X17538262Y15600000D01*
X20875000Y21085000D02*
X22000000Y22210000D01*
%TO.N,/GP4*%
X5120000Y15200000D02*
X4510000Y15810000D01*
X7862500Y15200000D02*
X5120000Y15200000D01*
%TO.N,/GP17*%
X18572500Y11162500D02*
X22000000Y14590000D01*
X13900000Y11162500D02*
X18572500Y11162500D01*
%TO.N,/GP5*%
X3130000Y16405111D02*
X3130000Y18540000D01*
X7862500Y14800000D02*
X4735111Y14800000D01*
X3130000Y18540000D02*
X2000000Y19670000D01*
X4735111Y14800000D02*
X3130000Y16405111D01*
%TO.N,/SWCLK*%
X12300000Y11162500D02*
X12300000Y10663994D01*
X10990000Y3700000D02*
X9475000Y2185000D01*
X12513994Y10450000D02*
X12522256Y10450000D01*
X15100000Y7872256D02*
X15100000Y4450000D01*
X15100000Y4450000D02*
X14350000Y3700000D01*
X9475000Y2185000D02*
X9475000Y1910000D01*
X12522256Y10450000D02*
X15100000Y7872256D01*
X12300000Y10663994D02*
X12513994Y10450000D01*
X14350000Y3700000D02*
X10990000Y3700000D01*
%TO.N,/GP7*%
X3310000Y14000000D02*
X2720000Y14590000D01*
X7862500Y14000000D02*
X3310000Y14000000D01*
X2720000Y14590000D02*
X2000000Y14590000D01*
%TO.N,/GP8*%
X2000000Y12050000D02*
X6213994Y12050000D01*
X7363994Y13200000D02*
X7862500Y13200000D01*
X6213994Y12050000D02*
X7363994Y13200000D01*
%TO.N,/SWDIO*%
X12700000Y10663994D02*
X15377000Y7986994D01*
X15377000Y2732000D02*
X14555000Y1910000D01*
X12700000Y11162500D02*
X12700000Y10663994D01*
X15377000Y7986994D02*
X15377000Y2732000D01*
%TO.N,/GP9*%
X4073994Y9510000D02*
X2000000Y9510000D01*
X7862500Y12800000D02*
X7363994Y12800000D01*
X7363994Y12800000D02*
X4073994Y9510000D01*
%TO.N,/ADC1*%
X17339534Y16000000D02*
X20598000Y19258466D01*
X20598000Y23348000D02*
X22000000Y24750000D01*
X14737500Y16000000D02*
X17339534Y16000000D01*
X20598000Y19258466D02*
X20598000Y23348000D01*
%TO.N,/GP12*%
X3848735Y8101265D02*
X3848735Y3738735D01*
X8246235Y11616265D02*
X7363735Y11616265D01*
X3848735Y3738735D02*
X2000000Y1890000D01*
X8700000Y11162500D02*
X8246235Y11616265D01*
X7363735Y11616265D02*
X3848735Y8101265D01*
%TO.N,/GP16*%
X13500000Y10663994D02*
X13723994Y10440000D01*
X20390000Y10440000D02*
X22000000Y12050000D01*
X13723994Y10440000D02*
X20390000Y10440000D01*
X13500000Y11162500D02*
X13500000Y10663994D01*
%TO.N,/GP6*%
X4730000Y14400000D02*
X2000000Y17130000D01*
X7862500Y14400000D02*
X4730000Y14400000D01*
%TO.N,/GP0*%
X7862500Y16800000D02*
X6800000Y16800000D01*
X6800000Y16800000D02*
X6790000Y16810000D01*
%TO.N,/GP11*%
X7862500Y12000000D02*
X7355732Y12000000D01*
X3537866Y8182134D02*
X3537866Y5967866D01*
X3537866Y5967866D02*
X2000000Y4430000D01*
X7355732Y12000000D02*
X3537866Y8182134D01*
%TO.N,/GP18*%
X14737500Y12000000D02*
X16870000Y12000000D01*
X16870000Y12000000D02*
X22000000Y17130000D01*
%TO.N,/GP1*%
X7019889Y16255000D02*
X6535000Y16255000D01*
X7862500Y16400000D02*
X7164889Y16400000D01*
X3271000Y31099000D02*
X2000000Y32370000D01*
X6535000Y16255000D02*
X3271000Y19519000D01*
X3271000Y19519000D02*
X3271000Y31099000D01*
X7164889Y16400000D02*
X7019889Y16255000D01*
D37*
%TO.N,/PORT_D-*%
X13783331Y22423334D02*
X14016664Y22190001D01*
X13783331Y24750223D02*
X13783331Y22423334D01*
X11750000Y29590000D02*
X12750000Y29590000D01*
X12750000Y29590000D02*
X12750000Y28515000D01*
X12750000Y28515000D02*
X12750000Y25783554D01*
X12750000Y25783554D02*
X13783331Y24750223D01*
X14016664Y22190001D02*
X14016664Y21710000D01*
X11750000Y28515000D02*
X11750000Y29590000D01*
%TD*%
%TA.AperFunction,Conductor*%
%TO.N,+3V3*%
G36*
X23458691Y36480593D02*
G01*
X23494655Y36431093D01*
X23499500Y36400500D01*
X23499500Y599500D01*
X23480593Y541309D01*
X23431093Y505345D01*
X23400500Y500500D01*
X21168413Y500500D01*
X21110222Y519407D01*
X21074258Y568907D01*
X21074258Y630093D01*
X21098407Y669502D01*
X21121170Y692264D01*
X21121170Y692266D01*
X21416611Y987708D01*
X21471126Y1015483D01*
X21531558Y1005912D01*
X21533193Y1005059D01*
X21615273Y961186D01*
X21803868Y903976D01*
X21803870Y903976D01*
X21803873Y903975D01*
X21999997Y884659D01*
X22000000Y884659D01*
X22000003Y884659D01*
X22196126Y903975D01*
X22196127Y903976D01*
X22196132Y903976D01*
X22384727Y961186D01*
X22558538Y1054090D01*
X22710883Y1179117D01*
X22835910Y1331462D01*
X22928814Y1505273D01*
X22986024Y1693868D01*
X22987995Y1713874D01*
X23005341Y1889997D01*
X23005341Y1890004D01*
X22986025Y2086127D01*
X22986024Y2086130D01*
X22986024Y2086132D01*
X22928814Y2274727D01*
X22835910Y2448538D01*
X22835906Y2448543D01*
X22710887Y2600879D01*
X22710878Y2600888D01*
X22558542Y2725907D01*
X22558540Y2725908D01*
X22558538Y2725910D01*
X22467034Y2774820D01*
X22384732Y2818812D01*
X22384730Y2818813D01*
X22362999Y2825405D01*
X22290429Y2847419D01*
X22196129Y2876025D01*
X22196126Y2876026D01*
X22000003Y2895341D01*
X21999997Y2895341D01*
X21803873Y2876026D01*
X21803870Y2876025D01*
X21615269Y2818813D01*
X21615267Y2818812D01*
X21441467Y2725913D01*
X21441457Y2725907D01*
X21289121Y2600888D01*
X21289112Y2600879D01*
X21164093Y2448543D01*
X21164087Y2448533D01*
X21071188Y2274733D01*
X21071187Y2274731D01*
X21013975Y2086130D01*
X21013974Y2086127D01*
X20994659Y1890004D01*
X20994659Y1889997D01*
X21013974Y1693874D01*
X21013975Y1693871D01*
X21071187Y1505270D01*
X21071188Y1505268D01*
X21115010Y1423282D01*
X21125766Y1363049D01*
X21099064Y1307998D01*
X21097704Y1306611D01*
X20865592Y1074497D01*
X20811075Y1046719D01*
X20795588Y1045500D01*
X19229500Y1045500D01*
X19171309Y1064407D01*
X19135345Y1113907D01*
X19130500Y1144500D01*
X19130500Y1919819D01*
X19130499Y1919828D01*
X19121767Y1963721D01*
X19121765Y1963725D01*
X19088505Y2013502D01*
X19088504Y2013504D01*
X19087840Y2013948D01*
X19038724Y2046766D01*
X19038720Y2046768D01*
X18994827Y2055500D01*
X18994820Y2055500D01*
X17605180Y2055500D01*
X17605172Y2055500D01*
X17561279Y2046768D01*
X17561275Y2046766D01*
X17511498Y2013506D01*
X17511494Y2013502D01*
X17478234Y1963725D01*
X17478232Y1963721D01*
X17469500Y1919828D01*
X17469500Y1109500D01*
X17450593Y1051309D01*
X17401093Y1015345D01*
X17370500Y1010500D01*
X15312740Y1010500D01*
X15254549Y1029407D01*
X15218585Y1078907D01*
X15218585Y1140093D01*
X15249935Y1186028D01*
X15265878Y1199113D01*
X15265877Y1199113D01*
X15265883Y1199117D01*
X15390910Y1351462D01*
X15483814Y1525273D01*
X15541024Y1713868D01*
X15558372Y1890000D01*
X15560341Y1909997D01*
X15560341Y1910004D01*
X15541025Y2106127D01*
X15541024Y2106130D01*
X15541024Y2106132D01*
X15483814Y2294727D01*
X15439987Y2376722D01*
X15429232Y2436950D01*
X15455933Y2492002D01*
X15457245Y2493342D01*
X15490812Y2526908D01*
X15490815Y2526910D01*
X15504735Y2540830D01*
X15504736Y2540830D01*
X15568170Y2604264D01*
X15583179Y2640500D01*
X15602501Y2687146D01*
X15602501Y2776855D01*
X15602501Y2784829D01*
X15602500Y2784843D01*
X15602500Y7662934D01*
X15621407Y7721125D01*
X15670907Y7757089D01*
X15732093Y7757089D01*
X15739082Y7754511D01*
X15739139Y7754499D01*
X15739140Y7754499D01*
X15840372Y7754499D01*
X15840380Y7754500D01*
X16776282Y7754500D01*
X16834473Y7735593D01*
X16866846Y7695489D01*
X16881221Y7662934D01*
X16895384Y7630859D01*
X16970859Y7555384D01*
X17019680Y7533827D01*
X17068501Y7512270D01*
X17072749Y7511778D01*
X17092377Y7509500D01*
X17380585Y7509501D01*
X17438775Y7490594D01*
X17450589Y7480505D01*
X18075504Y6855591D01*
X18103281Y6801074D01*
X18104500Y6785587D01*
X18104500Y6514500D01*
X18085593Y6456309D01*
X18036093Y6420345D01*
X18005500Y6415500D01*
X17605172Y6415500D01*
X17561279Y6406768D01*
X17561275Y6406766D01*
X17511498Y6373506D01*
X17511494Y6373502D01*
X17478234Y6323725D01*
X17478232Y6323721D01*
X17469500Y6279828D01*
X17469500Y5020173D01*
X17478232Y4976280D01*
X17478233Y4976278D01*
X17511496Y4926496D01*
X17561278Y4893233D01*
X17572327Y4891036D01*
X17605172Y4884501D01*
X17605178Y4884501D01*
X17605180Y4884500D01*
X17605181Y4884500D01*
X18994819Y4884500D01*
X18994820Y4884500D01*
X18994821Y4884501D01*
X18994827Y4884501D01*
X19019488Y4889407D01*
X19038722Y4893233D01*
X19088504Y4926496D01*
X19121767Y4976278D01*
X19126947Y5002318D01*
X19130499Y5020173D01*
X19130500Y5020182D01*
X19130500Y6279819D01*
X19130499Y6279828D01*
X19121767Y6323721D01*
X19121765Y6323725D01*
X19121323Y6324386D01*
X19088504Y6373504D01*
X19087840Y6373948D01*
X19038724Y6406766D01*
X19038720Y6406768D01*
X18994827Y6415500D01*
X18994820Y6415500D01*
X18654500Y6415500D01*
X18596309Y6434407D01*
X18560345Y6483907D01*
X18555500Y6514500D01*
X18555500Y6964857D01*
X18521170Y7047736D01*
X18457736Y7111171D01*
X18457736Y7111170D01*
X18457735Y7111171D01*
X18457735Y7111172D01*
X18168997Y7399909D01*
X18141219Y7454426D01*
X18140780Y7460002D01*
X18440000Y7460002D01*
X18440001Y7460001D01*
X18464251Y7460001D01*
X18464260Y7460002D01*
X18513041Y7466423D01*
X18620109Y7516350D01*
X18703650Y7599891D01*
X18753574Y7706953D01*
X18753576Y7706960D01*
X18760000Y7755747D01*
X18760000Y7829999D01*
X18759999Y7830000D01*
X18440001Y7830000D01*
X18440000Y7829999D01*
X18440000Y7460002D01*
X18140780Y7460002D01*
X18140000Y7469913D01*
X18140000Y8031000D01*
X18158907Y8089191D01*
X18208407Y8125155D01*
X18239000Y8130000D01*
X18759998Y8130000D01*
X18759999Y8130001D01*
X18759999Y8204250D01*
X18755612Y8237582D01*
X18766765Y8297742D01*
X18811149Y8339858D01*
X18853766Y8349500D01*
X19150587Y8349500D01*
X19208778Y8330593D01*
X19220591Y8320504D01*
X20285504Y7255591D01*
X20313281Y7201074D01*
X20314500Y7185587D01*
X20314500Y5942843D01*
X20314499Y5942829D01*
X20314499Y5845146D01*
X20335478Y5794498D01*
X20348828Y5762267D01*
X20348829Y5762266D01*
X20348830Y5762264D01*
X20412264Y5698830D01*
X20412265Y5698830D01*
X21097704Y5013391D01*
X21125481Y4958874D01*
X21115910Y4898442D01*
X21115011Y4896720D01*
X21071187Y4814730D01*
X21013975Y4626130D01*
X21013974Y4626127D01*
X20994659Y4430004D01*
X20994659Y4429997D01*
X21013974Y4233874D01*
X21013975Y4233871D01*
X21014902Y4230816D01*
X21058774Y4086188D01*
X21071187Y4045270D01*
X21071188Y4045268D01*
X21135206Y3925500D01*
X21164090Y3871462D01*
X21164092Y3871460D01*
X21164093Y3871458D01*
X21289112Y3719122D01*
X21289121Y3719113D01*
X21420855Y3611002D01*
X21441462Y3594090D01*
X21615273Y3501186D01*
X21803868Y3443976D01*
X21803870Y3443976D01*
X21803873Y3443975D01*
X21999997Y3424659D01*
X22000000Y3424659D01*
X22000003Y3424659D01*
X22196126Y3443975D01*
X22196127Y3443976D01*
X22196132Y3443976D01*
X22384727Y3501186D01*
X22558538Y3594090D01*
X22710883Y3719117D01*
X22835910Y3871462D01*
X22928814Y4045273D01*
X22986024Y4233868D01*
X22987072Y4244500D01*
X23005341Y4429997D01*
X23005341Y4430004D01*
X22986025Y4626127D01*
X22986024Y4626130D01*
X22986024Y4626132D01*
X22928814Y4814727D01*
X22835910Y4988538D01*
X22818716Y5009489D01*
X22710887Y5140879D01*
X22710878Y5140888D01*
X22558542Y5265907D01*
X22558540Y5265908D01*
X22558538Y5265910D01*
X22517618Y5287782D01*
X22384732Y5358812D01*
X22384730Y5358813D01*
X22320711Y5378233D01*
X22241321Y5402316D01*
X22196129Y5416025D01*
X22196126Y5416026D01*
X22000003Y5435341D01*
X21999997Y5435341D01*
X21803873Y5416026D01*
X21803870Y5416025D01*
X21615270Y5358813D01*
X21533280Y5314989D01*
X21473048Y5304234D01*
X21417997Y5330936D01*
X21416609Y5332296D01*
X20794496Y5954409D01*
X20766719Y6008926D01*
X20765500Y6024413D01*
X20765500Y7263614D01*
X20765501Y7263623D01*
X20765501Y7364855D01*
X20741225Y7423461D01*
X20741225Y7423462D01*
X20731171Y7447734D01*
X20731170Y7447735D01*
X20731170Y7447736D01*
X20667736Y7511170D01*
X20667734Y7511171D01*
X19476170Y8702735D01*
X19476170Y8702736D01*
X19412736Y8766170D01*
X19412734Y8766171D01*
X19412733Y8766172D01*
X19393747Y8774036D01*
X19347221Y8813772D01*
X19332937Y8873267D01*
X19356352Y8929795D01*
X19408520Y8961765D01*
X19431632Y8964500D01*
X19645587Y8964500D01*
X19703778Y8945593D01*
X19715591Y8935504D01*
X21097704Y7553391D01*
X21125481Y7498874D01*
X21115910Y7438442D01*
X21115011Y7436720D01*
X21071187Y7354730D01*
X21013975Y7166130D01*
X21013974Y7166127D01*
X20994659Y6970004D01*
X20994659Y6969997D01*
X21013974Y6773874D01*
X21013975Y6773871D01*
X21013976Y6773868D01*
X21057466Y6630500D01*
X21071187Y6585270D01*
X21071188Y6585268D01*
X21120022Y6493907D01*
X21164090Y6411462D01*
X21164092Y6411460D01*
X21164093Y6411458D01*
X21289112Y6259122D01*
X21289121Y6259113D01*
X21441457Y6134094D01*
X21441462Y6134090D01*
X21615273Y6041186D01*
X21803868Y5983976D01*
X21803870Y5983976D01*
X21803873Y5983975D01*
X21999997Y5964659D01*
X22000000Y5964659D01*
X22000003Y5964659D01*
X22196126Y5983975D01*
X22196127Y5983976D01*
X22196132Y5983976D01*
X22384727Y6041186D01*
X22558538Y6134090D01*
X22710883Y6259117D01*
X22835910Y6411462D01*
X22928814Y6585273D01*
X22986024Y6773868D01*
X22986481Y6778500D01*
X23005341Y6969997D01*
X23005341Y6970004D01*
X22986025Y7166127D01*
X22986024Y7166130D01*
X22986024Y7166132D01*
X22928814Y7354727D01*
X22925536Y7360859D01*
X22883108Y7440237D01*
X22835910Y7528538D01*
X22826531Y7539966D01*
X22710887Y7680879D01*
X22710878Y7680888D01*
X22558542Y7805907D01*
X22558540Y7805908D01*
X22558538Y7805910D01*
X22499209Y7837622D01*
X22384732Y7898812D01*
X22384730Y7898813D01*
X22196129Y7956025D01*
X22196126Y7956026D01*
X22000003Y7975341D01*
X21999997Y7975341D01*
X21803873Y7956026D01*
X21803870Y7956025D01*
X21615270Y7898813D01*
X21533280Y7854989D01*
X21473048Y7844234D01*
X21417997Y7870936D01*
X21416609Y7872296D01*
X20173409Y9115496D01*
X20145632Y9170013D01*
X20155203Y9230445D01*
X20198468Y9273710D01*
X20243413Y9284500D01*
X20949462Y9284500D01*
X21007653Y9265593D01*
X21043617Y9216093D01*
X21044191Y9214262D01*
X21064395Y9147661D01*
X21071186Y9125273D01*
X21071188Y9125268D01*
X21136136Y9003761D01*
X21164090Y8951462D01*
X21164092Y8951460D01*
X21164093Y8951458D01*
X21289112Y8799122D01*
X21289121Y8799113D01*
X21395227Y8712034D01*
X21441462Y8674090D01*
X21615273Y8581186D01*
X21803868Y8523976D01*
X21803870Y8523976D01*
X21803873Y8523975D01*
X21999997Y8504659D01*
X22000000Y8504659D01*
X22000003Y8504659D01*
X22196126Y8523975D01*
X22196127Y8523976D01*
X22196132Y8523976D01*
X22384727Y8581186D01*
X22558538Y8674090D01*
X22710883Y8799117D01*
X22835910Y8951462D01*
X22928814Y9125273D01*
X22986024Y9313868D01*
X22986166Y9315304D01*
X23005341Y9509997D01*
X23005341Y9510004D01*
X22986025Y9706127D01*
X22986024Y9706130D01*
X22986024Y9706132D01*
X22928814Y9894727D01*
X22835910Y10068538D01*
X22822476Y10084907D01*
X22710887Y10220879D01*
X22710878Y10220888D01*
X22558542Y10345907D01*
X22558540Y10345908D01*
X22558538Y10345910D01*
X22477565Y10389191D01*
X22384732Y10438812D01*
X22384730Y10438813D01*
X22368593Y10443708D01*
X22196132Y10496024D01*
X22196129Y10496025D01*
X22196126Y10496026D01*
X22000003Y10515341D01*
X21999997Y10515341D01*
X21803873Y10496026D01*
X21803870Y10496025D01*
X21615269Y10438813D01*
X21615267Y10438812D01*
X21441467Y10345913D01*
X21441457Y10345907D01*
X21289121Y10220888D01*
X21289112Y10220879D01*
X21164093Y10068543D01*
X21164087Y10068533D01*
X21071188Y9894733D01*
X21071186Y9894728D01*
X21044199Y9805762D01*
X21009214Y9755565D01*
X20951406Y9735519D01*
X20949462Y9735500D01*
X16774413Y9735500D01*
X16716222Y9754407D01*
X16704409Y9764496D01*
X16699321Y9769584D01*
X16671544Y9824101D01*
X16671544Y9855076D01*
X16675492Y9880001D01*
X16672778Y9897134D01*
X16655646Y10005304D01*
X16622398Y10070555D01*
X16612827Y10130986D01*
X16640604Y10185503D01*
X16695120Y10213281D01*
X16710608Y10214500D01*
X20333614Y10214500D01*
X20333622Y10214499D01*
X20345145Y10214499D01*
X20434854Y10214499D01*
X20434855Y10214499D01*
X20501886Y10242265D01*
X20517736Y10248830D01*
X20581170Y10312264D01*
X20581170Y10312265D01*
X20595076Y10326171D01*
X20595085Y10326181D01*
X21416611Y11147708D01*
X21471126Y11175483D01*
X21531558Y11165912D01*
X21533193Y11165059D01*
X21615273Y11121186D01*
X21803868Y11063976D01*
X21803870Y11063976D01*
X21803873Y11063975D01*
X21999997Y11044659D01*
X22000000Y11044659D01*
X22000003Y11044659D01*
X22196126Y11063975D01*
X22196127Y11063976D01*
X22196132Y11063976D01*
X22384727Y11121186D01*
X22558538Y11214090D01*
X22710883Y11339117D01*
X22835910Y11491462D01*
X22928814Y11665273D01*
X22986024Y11853868D01*
X22987191Y11865708D01*
X23005341Y12049997D01*
X23005341Y12050004D01*
X22986025Y12246127D01*
X22986024Y12246130D01*
X22986024Y12246132D01*
X22928814Y12434727D01*
X22918505Y12454013D01*
X22906942Y12475647D01*
X22835910Y12608538D01*
X22820989Y12626719D01*
X22710887Y12760879D01*
X22710878Y12760888D01*
X22558542Y12885907D01*
X22558540Y12885908D01*
X22558538Y12885910D01*
X22454952Y12941278D01*
X22384732Y12978812D01*
X22384730Y12978813D01*
X22363734Y12985182D01*
X22196132Y13036024D01*
X22196129Y13036025D01*
X22196126Y13036026D01*
X22000003Y13055341D01*
X21999997Y13055341D01*
X21803873Y13036026D01*
X21803870Y13036025D01*
X21615269Y12978813D01*
X21615267Y12978812D01*
X21441467Y12885913D01*
X21441457Y12885907D01*
X21289121Y12760888D01*
X21289112Y12760879D01*
X21164093Y12608543D01*
X21164087Y12608533D01*
X21071188Y12434733D01*
X21071187Y12434731D01*
X21013975Y12246130D01*
X21013974Y12246127D01*
X20994659Y12050004D01*
X20994659Y12049997D01*
X21013974Y11853874D01*
X21013975Y11853871D01*
X21024233Y11820056D01*
X21064777Y11686399D01*
X21071187Y11665270D01*
X21071188Y11665268D01*
X21115010Y11583283D01*
X21125766Y11523051D01*
X21099064Y11467999D01*
X21097704Y11466612D01*
X20325591Y10694497D01*
X20271074Y10666719D01*
X20255587Y10665500D01*
X14249500Y10665500D01*
X14191309Y10684407D01*
X14155345Y10733907D01*
X14150500Y10764500D01*
X14150500Y10838000D01*
X14169407Y10896191D01*
X14218907Y10932155D01*
X14249500Y10937000D01*
X18516114Y10937000D01*
X18516122Y10936999D01*
X18527645Y10936999D01*
X18617354Y10936999D01*
X18617355Y10936999D01*
X18675960Y10961275D01*
X18700236Y10971330D01*
X18763670Y11034764D01*
X18763670Y11034765D01*
X18777576Y11048671D01*
X18777585Y11048681D01*
X21416611Y13687708D01*
X21471126Y13715483D01*
X21531558Y13705912D01*
X21533193Y13705059D01*
X21615273Y13661186D01*
X21803868Y13603976D01*
X21803870Y13603976D01*
X21803873Y13603975D01*
X21999997Y13584659D01*
X22000000Y13584659D01*
X22000003Y13584659D01*
X22196126Y13603975D01*
X22196127Y13603976D01*
X22196132Y13603976D01*
X22384727Y13661186D01*
X22558538Y13754090D01*
X22710883Y13879117D01*
X22835910Y14031462D01*
X22928814Y14205273D01*
X22986024Y14393868D01*
X22993498Y14469747D01*
X23005341Y14589997D01*
X23005341Y14590004D01*
X22986025Y14786127D01*
X22986024Y14786130D01*
X22986024Y14786132D01*
X22928814Y14974727D01*
X22835910Y15148538D01*
X22736436Y15269747D01*
X22710887Y15300879D01*
X22710878Y15300888D01*
X22558542Y15425907D01*
X22558540Y15425908D01*
X22558538Y15425910D01*
X22472742Y15471769D01*
X22384732Y15518812D01*
X22384730Y15518813D01*
X22347014Y15530254D01*
X22196132Y15576024D01*
X22196129Y15576025D01*
X22196126Y15576026D01*
X22000003Y15595341D01*
X21999997Y15595341D01*
X21803873Y15576026D01*
X21803870Y15576025D01*
X21615269Y15518813D01*
X21615267Y15518812D01*
X21441467Y15425913D01*
X21441457Y15425907D01*
X21289121Y15300888D01*
X21289112Y15300879D01*
X21164093Y15148543D01*
X21164087Y15148533D01*
X21071188Y14974733D01*
X21071187Y14974731D01*
X21013975Y14786130D01*
X21013974Y14786127D01*
X20994659Y14590004D01*
X20994659Y14589997D01*
X21013974Y14393874D01*
X21013975Y14393871D01*
X21013976Y14393868D01*
X21056100Y14255003D01*
X21071187Y14205270D01*
X21071188Y14205268D01*
X21115010Y14123283D01*
X21125766Y14063051D01*
X21099064Y14007999D01*
X21097704Y14006611D01*
X18508091Y11416996D01*
X18453574Y11389219D01*
X18438087Y11388000D01*
X14249500Y11388000D01*
X14191309Y11406907D01*
X14155345Y11456407D01*
X14150500Y11487000D01*
X14150500Y11569747D01*
X14150498Y11569759D01*
X14147808Y11583283D01*
X14138867Y11628231D01*
X14138862Y11628238D01*
X14136354Y11634296D01*
X14131553Y11695292D01*
X14163522Y11747462D01*
X14220050Y11770877D01*
X14265704Y11763646D01*
X14271762Y11761138D01*
X14271769Y11761133D01*
X14314984Y11752537D01*
X14330241Y11749502D01*
X14330246Y11749502D01*
X14330252Y11749500D01*
X14330253Y11749500D01*
X15144747Y11749500D01*
X15144748Y11749500D01*
X15203231Y11761133D01*
X15203237Y11761138D01*
X15212243Y11764866D01*
X15213276Y11762370D01*
X15253268Y11774500D01*
X16813614Y11774500D01*
X16813622Y11774499D01*
X16825145Y11774499D01*
X16914854Y11774499D01*
X16914855Y11774499D01*
X16973460Y11798775D01*
X16997736Y11808830D01*
X17061170Y11872264D01*
X17061170Y11872265D01*
X17075076Y11886171D01*
X17075085Y11886181D01*
X21416611Y16227708D01*
X21471126Y16255483D01*
X21531558Y16245912D01*
X21533193Y16245059D01*
X21615273Y16201186D01*
X21803868Y16143976D01*
X21803870Y16143976D01*
X21803873Y16143975D01*
X21999997Y16124659D01*
X22000000Y16124659D01*
X22000003Y16124659D01*
X22196126Y16143975D01*
X22196127Y16143976D01*
X22196132Y16143976D01*
X22384727Y16201186D01*
X22558538Y16294090D01*
X22710883Y16419117D01*
X22835910Y16571462D01*
X22928814Y16745273D01*
X22986024Y16933868D01*
X22986166Y16935304D01*
X23005341Y17129997D01*
X23005341Y17130004D01*
X22986025Y17326127D01*
X22986024Y17326130D01*
X22986024Y17326132D01*
X22928814Y17514727D01*
X22923833Y17524045D01*
X22898324Y17571769D01*
X22835910Y17688538D01*
X22815995Y17712804D01*
X22710887Y17840879D01*
X22710878Y17840888D01*
X22558542Y17965907D01*
X22558540Y17965908D01*
X22558538Y17965910D01*
X22483709Y18005907D01*
X22384732Y18058812D01*
X22384730Y18058813D01*
X22382465Y18059500D01*
X22196132Y18116024D01*
X22196129Y18116025D01*
X22196126Y18116026D01*
X22000003Y18135341D01*
X21999997Y18135341D01*
X21803873Y18116026D01*
X21803870Y18116025D01*
X21615269Y18058813D01*
X21615267Y18058812D01*
X21441467Y17965913D01*
X21441457Y17965907D01*
X21289121Y17840888D01*
X21289112Y17840879D01*
X21276028Y17824935D01*
X21224496Y17791948D01*
X21163417Y17795550D01*
X21116120Y17834365D01*
X21100500Y17887740D01*
X21100500Y18410589D01*
X21119407Y18468780D01*
X21129490Y18480586D01*
X21416610Y18767707D01*
X21471125Y18795483D01*
X21531557Y18785912D01*
X21533235Y18785036D01*
X21615273Y18741186D01*
X21803868Y18683976D01*
X21803870Y18683976D01*
X21803873Y18683975D01*
X21999997Y18664659D01*
X22000000Y18664659D01*
X22000003Y18664659D01*
X22196126Y18683975D01*
X22196127Y18683976D01*
X22196132Y18683976D01*
X22384727Y18741186D01*
X22558538Y18834090D01*
X22710883Y18959117D01*
X22835910Y19111462D01*
X22928814Y19285273D01*
X22986024Y19473868D01*
X22986052Y19474145D01*
X23005341Y19669997D01*
X23005341Y19670004D01*
X22986025Y19866127D01*
X22986024Y19866130D01*
X22986024Y19866132D01*
X22928814Y20054727D01*
X22923012Y20065581D01*
X22898383Y20111660D01*
X22835910Y20228538D01*
X22833354Y20231653D01*
X22710887Y20380879D01*
X22710878Y20380888D01*
X22558542Y20505907D01*
X22558540Y20505908D01*
X22558538Y20505910D01*
X22464280Y20556292D01*
X22384732Y20598812D01*
X22384730Y20598813D01*
X22196129Y20656025D01*
X22196126Y20656026D01*
X22000003Y20675341D01*
X21999997Y20675341D01*
X21803873Y20656026D01*
X21803870Y20656025D01*
X21615269Y20598813D01*
X21615267Y20598812D01*
X21441467Y20505913D01*
X21441457Y20505907D01*
X21289121Y20380888D01*
X21289112Y20380879D01*
X21276028Y20364935D01*
X21224496Y20331948D01*
X21163417Y20335550D01*
X21116120Y20374365D01*
X21100500Y20427740D01*
X21100500Y20950589D01*
X21119407Y21008780D01*
X21129490Y21020586D01*
X21416610Y21307707D01*
X21471125Y21335483D01*
X21531557Y21325912D01*
X21533235Y21325036D01*
X21615273Y21281186D01*
X21803868Y21223976D01*
X21803870Y21223976D01*
X21803873Y21223975D01*
X21999997Y21204659D01*
X22000000Y21204659D01*
X22000003Y21204659D01*
X22196126Y21223975D01*
X22196127Y21223976D01*
X22196132Y21223976D01*
X22384727Y21281186D01*
X22558538Y21374090D01*
X22710883Y21499117D01*
X22835910Y21651462D01*
X22928814Y21825273D01*
X22986024Y22013868D01*
X22986034Y22013963D01*
X23005341Y22209997D01*
X23005341Y22210004D01*
X22986025Y22406127D01*
X22986024Y22406130D01*
X22986024Y22406132D01*
X22928814Y22594727D01*
X22835910Y22768538D01*
X22801641Y22810295D01*
X22710887Y22920879D01*
X22710878Y22920888D01*
X22558542Y23045907D01*
X22558540Y23045908D01*
X22558538Y23045910D01*
X22482592Y23086504D01*
X22384732Y23138812D01*
X22384730Y23138813D01*
X22366457Y23144356D01*
X22196132Y23196024D01*
X22196129Y23196025D01*
X22196126Y23196026D01*
X22000003Y23215341D01*
X21999997Y23215341D01*
X21803873Y23196026D01*
X21803870Y23196025D01*
X21615269Y23138813D01*
X21615267Y23138812D01*
X21441467Y23045913D01*
X21441457Y23045907D01*
X21289121Y22920888D01*
X21289112Y22920879D01*
X21164093Y22768543D01*
X21164087Y22768533D01*
X21071188Y22594733D01*
X21071187Y22594731D01*
X21017237Y22416882D01*
X20982252Y22366686D01*
X20924443Y22346640D01*
X20865893Y22364401D01*
X20828964Y22413186D01*
X20823500Y22445621D01*
X20823500Y23213587D01*
X20842407Y23271778D01*
X20852496Y23283591D01*
X21117796Y23548891D01*
X21416611Y23847707D01*
X21471126Y23875482D01*
X21531558Y23865911D01*
X21533281Y23865011D01*
X21615267Y23821189D01*
X21615273Y23821186D01*
X21803868Y23763976D01*
X21803870Y23763976D01*
X21803873Y23763975D01*
X21999997Y23744659D01*
X22000000Y23744659D01*
X22000003Y23744659D01*
X22196126Y23763975D01*
X22196127Y23763976D01*
X22196132Y23763976D01*
X22384727Y23821186D01*
X22558538Y23914090D01*
X22710883Y24039117D01*
X22835910Y24191462D01*
X22928814Y24365273D01*
X22986024Y24553868D01*
X23005341Y24750000D01*
X23005072Y24752736D01*
X22986025Y24946127D01*
X22986024Y24946130D01*
X22986024Y24946132D01*
X22928814Y25134727D01*
X22835910Y25308538D01*
X22790058Y25364409D01*
X22710887Y25460879D01*
X22710878Y25460888D01*
X22558542Y25585907D01*
X22558540Y25585908D01*
X22558538Y25585910D01*
X22457665Y25639828D01*
X22384732Y25678812D01*
X22384730Y25678813D01*
X22368547Y25683722D01*
X22222419Y25728050D01*
X22196129Y25736025D01*
X22196126Y25736026D01*
X22000003Y25755341D01*
X21999997Y25755341D01*
X21803873Y25736026D01*
X21803870Y25736025D01*
X21615269Y25678813D01*
X21615267Y25678812D01*
X21441467Y25585913D01*
X21441457Y25585907D01*
X21289121Y25460888D01*
X21289112Y25460879D01*
X21164093Y25308543D01*
X21164087Y25308533D01*
X21071188Y25134733D01*
X21071187Y25134731D01*
X21013975Y24946130D01*
X21013974Y24946127D01*
X20994659Y24750004D01*
X20994659Y24749997D01*
X21013974Y24553874D01*
X21013975Y24553871D01*
X21013976Y24553868D01*
X21071186Y24365273D01*
X21115010Y24283284D01*
X21125766Y24223052D01*
X21099065Y24168001D01*
X21097704Y24166613D01*
X20470265Y23539172D01*
X20470265Y23539171D01*
X20470264Y23539170D01*
X20470263Y23539171D01*
X20406831Y23475738D01*
X20406830Y23475736D01*
X20396772Y23451457D01*
X20372499Y23392857D01*
X20372499Y23291623D01*
X20372500Y23291614D01*
X20372500Y19392880D01*
X20353593Y19334689D01*
X20343504Y19322876D01*
X18258624Y17237997D01*
X18204107Y17210220D01*
X18143675Y17219791D01*
X18100410Y17263056D01*
X18090839Y17292514D01*
X18090703Y17293373D01*
X18085646Y17325304D01*
X18028050Y17438342D01*
X17938342Y17528050D01*
X17894282Y17550500D01*
X17825307Y17585645D01*
X17825304Y17585646D01*
X17700000Y17605492D01*
X17574696Y17585646D01*
X17574692Y17585645D01*
X17461658Y17528050D01*
X17455353Y17523469D01*
X17454574Y17524541D01*
X17407338Y17500477D01*
X17346907Y17510055D01*
X17321842Y17532073D01*
X17320299Y17530529D01*
X17313813Y17537015D01*
X17313813Y17537016D01*
X17237016Y17613813D01*
X17190308Y17634437D01*
X17144714Y17675236D01*
X17131809Y17735045D01*
X17156523Y17791017D01*
X17190307Y17815564D01*
X17237016Y17836187D01*
X17313813Y17912984D01*
X17357682Y18012338D01*
X17360500Y18036627D01*
X17360499Y18463372D01*
X17357682Y18487662D01*
X17313813Y18587016D01*
X17237016Y18663813D01*
X17237014Y18663814D01*
X17237012Y18663816D01*
X17229446Y18668999D01*
X17230600Y18670685D01*
X17193915Y18703515D01*
X17180500Y18753276D01*
X17180500Y18983101D01*
X17199407Y19041292D01*
X17209490Y19053099D01*
X17268050Y19111658D01*
X17325646Y19224696D01*
X17345492Y19350000D01*
X17341544Y19374927D01*
X17351115Y19435359D01*
X17369316Y19460412D01*
X17594410Y19685507D01*
X17648925Y19713282D01*
X17664412Y19714501D01*
X18111289Y19714501D01*
X18111294Y19714501D01*
X18183067Y19724957D01*
X18293780Y19779081D01*
X18380919Y19866220D01*
X18435043Y19976933D01*
X18435820Y19982272D01*
X18462917Y20037128D01*
X18517084Y20065581D01*
X18533786Y20067000D01*
X19045601Y20067000D01*
X19103792Y20048093D01*
X19115598Y20038010D01*
X19131658Y20021950D01*
X19244696Y19964354D01*
X19370000Y19944508D01*
X19495304Y19964354D01*
X19608342Y20021950D01*
X19698050Y20111658D01*
X19755646Y20224696D01*
X19775492Y20350000D01*
X19755646Y20475304D01*
X19698050Y20588342D01*
X19645740Y20640652D01*
X19617965Y20695166D01*
X19627536Y20755598D01*
X19670801Y20798863D01*
X19675714Y20801198D01*
X19687016Y20806187D01*
X19763813Y20882984D01*
X19807682Y20982338D01*
X19810500Y21006627D01*
X19810499Y21373372D01*
X19807682Y21397662D01*
X19763813Y21497016D01*
X19692247Y21568582D01*
X19664472Y21623096D01*
X19674043Y21683528D01*
X19711674Y21721160D01*
X19710929Y21722224D01*
X19716966Y21726452D01*
X19717308Y21726793D01*
X19717789Y21727028D01*
X19718020Y21727190D01*
X19802809Y21811979D01*
X19853478Y21920639D01*
X19853480Y21920646D01*
X19860000Y21970162D01*
X19860000Y21999999D01*
X19859999Y22000000D01*
X18840001Y22000000D01*
X18840000Y21999999D01*
X18840000Y21970162D01*
X18846519Y21920646D01*
X18846521Y21920639D01*
X18897190Y21811979D01*
X18981979Y21727190D01*
X18989071Y21722224D01*
X18987899Y21720552D01*
X19024329Y21686587D01*
X19036009Y21626526D01*
X19010156Y21571071D01*
X19007750Y21568580D01*
X18936188Y21497018D01*
X18936187Y21497017D01*
X18936187Y21497016D01*
X18914715Y21448386D01*
X18892317Y21397660D01*
X18889500Y21373378D01*
X18889500Y21006631D01*
X18889501Y21006628D01*
X18892317Y20982339D01*
X18907629Y20947662D01*
X18936187Y20882984D01*
X19012984Y20806187D01*
X19040488Y20794043D01*
X19086083Y20753244D01*
X19099500Y20703479D01*
X19099500Y20686900D01*
X19080593Y20628709D01*
X19070505Y20616897D01*
X19041949Y20588341D01*
X19033651Y20572054D01*
X18990386Y20528790D01*
X18945442Y20518000D01*
X18536700Y20518000D01*
X18478509Y20536907D01*
X18442545Y20586407D01*
X18438734Y20602728D01*
X18436670Y20616897D01*
X18435043Y20628067D01*
X18380919Y20738780D01*
X18293780Y20825919D01*
X18183067Y20880043D01*
X18183068Y20880043D01*
X18162874Y20882985D01*
X18111295Y20890500D01*
X18111291Y20890500D01*
X17528710Y20890500D01*
X17528707Y20890500D01*
X17528706Y20890499D01*
X17504781Y20887014D01*
X17456931Y20880043D01*
X17346220Y20825919D01*
X17259081Y20738780D01*
X17204957Y20628069D01*
X17201265Y20602728D01*
X17194549Y20556627D01*
X17194500Y20556292D01*
X17194500Y20048711D01*
X17194501Y20048706D01*
X17203273Y19988492D01*
X17192952Y19928184D01*
X17175310Y19904217D01*
X17050414Y19779322D01*
X16995898Y19751545D01*
X16964925Y19751545D01*
X16940002Y19755492D01*
X16939999Y19755492D01*
X16814696Y19735646D01*
X16814692Y19735645D01*
X16701658Y19678050D01*
X16701656Y19678049D01*
X16653103Y19629496D01*
X16598586Y19601719D01*
X16583100Y19600500D01*
X16446522Y19600500D01*
X16388331Y19619407D01*
X16355958Y19659511D01*
X16347772Y19678050D01*
X16343813Y19687016D01*
X16267016Y19763813D01*
X16167662Y19807682D01*
X16167661Y19807683D01*
X16167659Y19807683D01*
X16143376Y19810500D01*
X15776630Y19810500D01*
X15776627Y19810499D01*
X15752338Y19807683D01*
X15652982Y19763812D01*
X15581420Y19692250D01*
X15526903Y19664473D01*
X15466471Y19674045D01*
X15428841Y19711676D01*
X15427776Y19710929D01*
X15423543Y19716974D01*
X15423207Y19717310D01*
X15422975Y19717785D01*
X15422810Y19718021D01*
X15338021Y19802810D01*
X15229361Y19853479D01*
X15229354Y19853481D01*
X15179839Y19860000D01*
X15150001Y19860000D01*
X15150000Y19859999D01*
X15150000Y18840001D01*
X15150001Y18840000D01*
X15179838Y18840000D01*
X15229354Y18846520D01*
X15229361Y18846522D01*
X15338021Y18897191D01*
X15422810Y18981980D01*
X15427776Y18989071D01*
X15429449Y18987900D01*
X15463407Y19024327D01*
X15523467Y19036011D01*
X15578924Y19010162D01*
X15581391Y19007780D01*
X15652984Y18936187D01*
X15699722Y18915551D01*
X15745316Y18874752D01*
X15758222Y18814943D01*
X15733509Y18758971D01*
X15701573Y18735263D01*
X15631978Y18702810D01*
X15547190Y18618022D01*
X15496521Y18509362D01*
X15496519Y18509355D01*
X15490000Y18459839D01*
X15490000Y18400001D01*
X15490001Y18400000D01*
X16021000Y18400000D01*
X16079191Y18381093D01*
X16115155Y18331593D01*
X16120000Y18301000D01*
X16120000Y16690001D01*
X16120001Y16690000D01*
X16149838Y16690000D01*
X16199354Y16696520D01*
X16199361Y16696522D01*
X16308021Y16747191D01*
X16392810Y16831980D01*
X16397776Y16839071D01*
X16399449Y16837900D01*
X16433407Y16874327D01*
X16493467Y16886011D01*
X16548924Y16860162D01*
X16551391Y16857780D01*
X16622984Y16786187D01*
X16722338Y16742318D01*
X16746627Y16739500D01*
X17113372Y16739501D01*
X17137662Y16742318D01*
X17237016Y16786187D01*
X17313813Y16862984D01*
X17313813Y16862986D01*
X17320299Y16869471D01*
X17322559Y16867211D01*
X17358649Y16895004D01*
X17419811Y16896713D01*
X17454885Y16875889D01*
X17455353Y16876531D01*
X17461654Y16871954D01*
X17461658Y16871950D01*
X17574696Y16814354D01*
X17607487Y16809161D01*
X17662002Y16781384D01*
X17689780Y16726867D01*
X17680209Y16666435D01*
X17662003Y16641377D01*
X17275125Y16254497D01*
X17220608Y16226719D01*
X17205121Y16225500D01*
X15424413Y16225500D01*
X15366222Y16244407D01*
X15330258Y16293907D01*
X15326837Y16325388D01*
X15325500Y16325388D01*
X15325500Y16469747D01*
X15325498Y16469759D01*
X15321472Y16490000D01*
X15313867Y16528231D01*
X15302663Y16544998D01*
X15286054Y16603885D01*
X15302664Y16655003D01*
X15307726Y16662579D01*
X15313867Y16671769D01*
X15325500Y16730252D01*
X15325500Y16860836D01*
X15344407Y16919027D01*
X15393907Y16954991D01*
X15455093Y16954991D01*
X15504593Y16919027D01*
X15514224Y16902675D01*
X15547190Y16831979D01*
X15631978Y16747191D01*
X15740638Y16696522D01*
X15740645Y16696520D01*
X15790161Y16690000D01*
X15819999Y16690000D01*
X15820000Y16690001D01*
X15820000Y18099999D01*
X15819999Y18100000D01*
X15490001Y18100000D01*
X15490000Y18099999D01*
X15490000Y18040162D01*
X15496519Y17990646D01*
X15496521Y17990639D01*
X15547190Y17881979D01*
X15634165Y17795004D01*
X15661942Y17740487D01*
X15652371Y17680055D01*
X15634165Y17654996D01*
X15547190Y17568022D01*
X15496521Y17459362D01*
X15496517Y17459350D01*
X15496164Y17456664D01*
X15495061Y17454352D01*
X15494400Y17452084D01*
X15494030Y17452192D01*
X15469820Y17401440D01*
X15416047Y17372249D01*
X15355386Y17380239D01*
X15315697Y17414590D01*
X15305241Y17430238D01*
X15305237Y17430242D01*
X15222548Y17485493D01*
X15222546Y17485494D01*
X15149624Y17500000D01*
X14837501Y17500000D01*
X14837500Y17499999D01*
X14837500Y17199000D01*
X14818593Y17140809D01*
X14769093Y17104845D01*
X14738500Y17100000D01*
X14105048Y17100000D01*
X14114504Y17052456D01*
X14146695Y17004279D01*
X14163303Y16945391D01*
X14161477Y16929965D01*
X14149500Y16869754D01*
X14149500Y16869748D01*
X14149500Y16730252D01*
X14161133Y16671769D01*
X14161133Y16671768D01*
X14161685Y16668997D01*
X14154494Y16608235D01*
X14112961Y16563305D01*
X14052952Y16551368D01*
X13997386Y16576983D01*
X13994583Y16579678D01*
X13342678Y17231583D01*
X13314901Y17286100D01*
X13324472Y17346532D01*
X13367737Y17389797D01*
X13384687Y17392482D01*
X13400000Y17405049D01*
X13600000Y17405049D01*
X13647542Y17414505D01*
X13656551Y17418236D01*
X13657357Y17416288D01*
X13703875Y17429413D01*
X13742835Y17416755D01*
X13743449Y17418236D01*
X13752457Y17414505D01*
X13799999Y17405049D01*
X13800000Y17405049D01*
X14000000Y17405049D01*
X14006408Y17399790D01*
X14046576Y17395035D01*
X14091505Y17353502D01*
X14101219Y17304666D01*
X14105049Y17300000D01*
X14637499Y17300000D01*
X14637500Y17300001D01*
X14637500Y17499999D01*
X14637499Y17500000D01*
X14325377Y17500000D01*
X14325363Y17499999D01*
X14314182Y17497775D01*
X14253421Y17504968D01*
X14208493Y17546503D01*
X14196559Y17606513D01*
X14197775Y17614190D01*
X14199999Y17625371D01*
X14200000Y17625378D01*
X14200000Y17937499D01*
X14199999Y17937500D01*
X14000001Y17937500D01*
X14000000Y17937499D01*
X14000000Y17405049D01*
X13800000Y17405049D01*
X13800000Y17937499D01*
X13799999Y17937500D01*
X13600001Y17937500D01*
X13600000Y17937499D01*
X13600000Y17405049D01*
X13400000Y17405049D01*
X13400000Y18137501D01*
X13600000Y18137501D01*
X13600001Y18137500D01*
X13799999Y18137500D01*
X13800000Y18137501D01*
X13800000Y18669954D01*
X14000000Y18669954D01*
X14000000Y18137501D01*
X14000001Y18137500D01*
X14199999Y18137500D01*
X14200000Y18137501D01*
X14200000Y18449623D01*
X14199999Y18449625D01*
X14185493Y18522547D01*
X14185492Y18522549D01*
X14130241Y18605238D01*
X14130238Y18605241D01*
X14047542Y18660496D01*
X14000000Y18669954D01*
X13800000Y18669954D01*
X13752457Y18660496D01*
X13743445Y18656763D01*
X13742639Y18658709D01*
X13696104Y18645590D01*
X13657167Y18658241D01*
X13656555Y18656763D01*
X13647542Y18660496D01*
X13600000Y18669954D01*
X13600000Y18137501D01*
X13400000Y18137501D01*
X13400000Y18688153D01*
X13391553Y18701349D01*
X13395157Y18762428D01*
X13417340Y18796344D01*
X13761158Y19140162D01*
X14520000Y19140162D01*
X14526519Y19090646D01*
X14526521Y19090639D01*
X14577190Y18981979D01*
X14661978Y18897191D01*
X14770638Y18846522D01*
X14770645Y18846520D01*
X14820161Y18840000D01*
X14849999Y18840000D01*
X14850000Y18840001D01*
X14850000Y19199999D01*
X14849999Y19200000D01*
X14520001Y19200000D01*
X14520000Y19199999D01*
X14520000Y19140162D01*
X13761158Y19140162D01*
X14388282Y19767287D01*
X14442797Y19795062D01*
X14503229Y19785491D01*
X14546494Y19742226D01*
X14556065Y19681794D01*
X14548009Y19655443D01*
X14526520Y19609359D01*
X14526519Y19609355D01*
X14520000Y19559839D01*
X14520000Y19500001D01*
X14520001Y19500000D01*
X14849999Y19500000D01*
X14850000Y19500001D01*
X14850000Y19859999D01*
X14849999Y19860000D01*
X14820161Y19860000D01*
X14770645Y19853481D01*
X14770641Y19853480D01*
X14724557Y19831991D01*
X14663827Y19824535D01*
X14610314Y19854199D01*
X14584457Y19909652D01*
X14596132Y19969713D01*
X14612716Y19991720D01*
X14901502Y20280505D01*
X14956018Y20308282D01*
X14971505Y20309501D01*
X15196700Y20309501D01*
X15196702Y20309501D01*
X15220992Y20312318D01*
X15320346Y20356187D01*
X15394884Y20430726D01*
X15449398Y20458502D01*
X15509831Y20448931D01*
X15553095Y20405667D01*
X15555366Y20400885D01*
X15555382Y20400862D01*
X15555383Y20400861D01*
X15555384Y20400859D01*
X15630859Y20325384D01*
X15661393Y20311902D01*
X15728501Y20282270D01*
X15732749Y20281778D01*
X15752377Y20279500D01*
X16207622Y20279501D01*
X16231498Y20282270D01*
X16329141Y20325384D01*
X16404616Y20400859D01*
X16447730Y20498502D01*
X16450500Y20522377D01*
X16450499Y20877622D01*
X16447730Y20901498D01*
X16447729Y20901499D01*
X16446872Y20908897D01*
X16449803Y20909237D01*
X16452118Y20957300D01*
X16474686Y20992214D01*
X17050911Y21568439D01*
X17105427Y21596215D01*
X17165859Y21586644D01*
X17209124Y21543379D01*
X17209853Y21541918D01*
X17259081Y21441220D01*
X17346220Y21354081D01*
X17456933Y21299957D01*
X17528705Y21289500D01*
X18111294Y21289501D01*
X18183067Y21299957D01*
X18293780Y21354081D01*
X18380919Y21441220D01*
X18435043Y21551933D01*
X18445500Y21623705D01*
X18445499Y22131294D01*
X18435043Y22203067D01*
X18387655Y22300001D01*
X18840000Y22300001D01*
X18840001Y22300000D01*
X19199999Y22300000D01*
X19200000Y22300001D01*
X19200000Y22671007D01*
X19203389Y22671007D01*
X19496533Y22671007D01*
X19500000Y22671007D01*
X19500000Y22300001D01*
X19500001Y22300000D01*
X19859999Y22300000D01*
X19860000Y22300001D01*
X19860000Y22329839D01*
X19853480Y22379355D01*
X19853478Y22379362D01*
X19802809Y22488022D01*
X19718023Y22572808D01*
X19689522Y22586098D01*
X19644774Y22627826D01*
X19633099Y22687888D01*
X19658957Y22743340D01*
X19687881Y22764764D01*
X19706187Y22773714D01*
X19788786Y22856313D01*
X19840087Y22961252D01*
X19850000Y23029285D01*
X19850000Y23424999D01*
X19849999Y23425000D01*
X19500001Y23425000D01*
X19500000Y23424999D01*
X19500000Y22671494D01*
X19496610Y22671494D01*
X19496533Y22671007D01*
X19203389Y22671007D01*
X19203466Y22671495D01*
X19200000Y22671495D01*
X19200000Y23424999D01*
X19199999Y23425000D01*
X18850002Y23425000D01*
X18850001Y23424999D01*
X18850001Y23029284D01*
X18859912Y22961250D01*
X18911214Y22856312D01*
X18993812Y22773714D01*
X19012116Y22764766D01*
X19056091Y22722223D01*
X19066662Y22661958D01*
X19039791Y22606989D01*
X19010480Y22586101D01*
X18981978Y22572810D01*
X18897190Y22488022D01*
X18846521Y22379362D01*
X18846519Y22379355D01*
X18840000Y22329839D01*
X18840000Y22300001D01*
X18387655Y22300001D01*
X18380919Y22313780D01*
X18293780Y22400919D01*
X18183067Y22455043D01*
X18183068Y22455043D01*
X18168712Y22457135D01*
X18111295Y22465500D01*
X18111291Y22465500D01*
X17528710Y22465500D01*
X17528707Y22465500D01*
X17528706Y22465499D01*
X17504781Y22462014D01*
X17456931Y22455043D01*
X17346220Y22400919D01*
X17259081Y22313780D01*
X17204958Y22203069D01*
X17204957Y22203067D01*
X17202721Y22187727D01*
X17175625Y22132871D01*
X17121457Y22104419D01*
X17104757Y22103000D01*
X17097454Y22103000D01*
X17097446Y22103001D01*
X17085923Y22103001D01*
X16996214Y22103001D01*
X16949891Y22083813D01*
X16949890Y22083813D01*
X16913332Y22068671D01*
X16849897Y22005237D01*
X16849898Y22005236D01*
X16619503Y21774841D01*
X16564986Y21747064D01*
X16504554Y21756635D01*
X16461289Y21799900D01*
X16450499Y21844845D01*
X16450499Y21897620D01*
X16450499Y21897622D01*
X16447730Y21921498D01*
X16446903Y21923370D01*
X16426884Y21968709D01*
X16404616Y22019141D01*
X16329141Y22094616D01*
X16296153Y22109182D01*
X16250560Y22149981D01*
X16237654Y22209790D01*
X16262368Y22265762D01*
X16266105Y22269714D01*
X16298050Y22301658D01*
X16355646Y22414696D01*
X16375492Y22540000D01*
X16355646Y22665304D01*
X16298050Y22778342D01*
X16208342Y22868050D01*
X16165781Y22889736D01*
X16095307Y22925645D01*
X16095304Y22925646D01*
X15970000Y22945492D01*
X15844696Y22925646D01*
X15844692Y22925645D01*
X15731659Y22868051D01*
X15641949Y22778341D01*
X15584355Y22665308D01*
X15584354Y22665304D01*
X15571072Y22581449D01*
X15552644Y22545283D01*
X15559918Y22538009D01*
X15569488Y22508552D01*
X15582414Y22426942D01*
X15584354Y22414697D01*
X15584355Y22414693D01*
X15636853Y22311661D01*
X15641950Y22301658D01*
X15679986Y22263622D01*
X15707762Y22209107D01*
X15698191Y22148675D01*
X15654926Y22105410D01*
X15649974Y22103057D01*
X15630860Y22094617D01*
X15555384Y22019141D01*
X15553501Y22016391D01*
X15549739Y22013496D01*
X15548898Y22012654D01*
X15548788Y22012764D01*
X15505017Y21979069D01*
X15443855Y21977374D01*
X15401822Y22002336D01*
X15397143Y22007015D01*
X15397143Y22007016D01*
X15320346Y22083813D01*
X15320344Y22083814D01*
X15320343Y22083815D01*
X15292840Y22095959D01*
X15247245Y22136761D01*
X15233830Y22186523D01*
X15233830Y22201431D01*
X15252737Y22259622D01*
X15262820Y22271429D01*
X15303050Y22311658D01*
X15360646Y22424696D01*
X15373927Y22508552D01*
X15392354Y22544719D01*
X15385081Y22551993D01*
X15375511Y22581449D01*
X15360646Y22675304D01*
X15303050Y22788342D01*
X15213342Y22878050D01*
X15129286Y22920879D01*
X15100307Y22935645D01*
X15100304Y22935646D01*
X14975000Y22955492D01*
X14849696Y22935646D01*
X14849692Y22935645D01*
X14736659Y22878051D01*
X14646949Y22788341D01*
X14589355Y22675308D01*
X14589354Y22675304D01*
X14569508Y22550001D01*
X14569508Y22550000D01*
X14589354Y22424697D01*
X14589355Y22424693D01*
X14597145Y22409405D01*
X14646950Y22311658D01*
X14646951Y22311657D01*
X14702618Y22255989D01*
X14730395Y22201472D01*
X14720823Y22141040D01*
X14677558Y22097776D01*
X14672604Y22095422D01*
X14646316Y22083815D01*
X14646314Y22083814D01*
X14646314Y22083813D01*
X14576462Y22013962D01*
X14521948Y21986186D01*
X14461516Y21995757D01*
X14436460Y22013961D01*
X14365805Y22084616D01*
X14365803Y22084617D01*
X14365801Y22084619D01*
X14360213Y22088447D01*
X14322893Y22136932D01*
X14317164Y22170120D01*
X14317164Y22229564D01*
X14308268Y22262761D01*
X14308267Y22262766D01*
X14296688Y22305983D01*
X14296687Y22305986D01*
X14296686Y22305987D01*
X14296686Y22305989D01*
X14257124Y22374512D01*
X14186015Y22445621D01*
X14112827Y22518810D01*
X14085050Y22573326D01*
X14083831Y22588813D01*
X14083831Y23017640D01*
X16999500Y23017640D01*
X16999501Y23017637D01*
X17002414Y22992510D01*
X17023175Y22945492D01*
X17047794Y22889735D01*
X17127235Y22810294D01*
X17230009Y22764915D01*
X17255135Y22762000D01*
X17644864Y22762001D01*
X17669991Y22764915D01*
X17772765Y22810294D01*
X17852206Y22889735D01*
X17897585Y22992509D01*
X17900500Y23017635D01*
X17900499Y23725001D01*
X18850000Y23725001D01*
X18850001Y23725000D01*
X19199999Y23725000D01*
X19200000Y23725001D01*
X19500000Y23725001D01*
X19500001Y23725000D01*
X19849998Y23725000D01*
X19849999Y23725001D01*
X19849999Y24120714D01*
X19849998Y24120717D01*
X19840087Y24188751D01*
X19788785Y24293689D01*
X19706187Y24376287D01*
X19601248Y24427588D01*
X19533216Y24437500D01*
X19500001Y24437500D01*
X19500000Y24437499D01*
X19500000Y23725001D01*
X19200000Y23725001D01*
X19200000Y24437500D01*
X19166787Y24437500D01*
X19166782Y24437499D01*
X19098750Y24427588D01*
X18993811Y24376286D01*
X18911213Y24293688D01*
X18859912Y24188749D01*
X18850000Y24120716D01*
X18850000Y23725001D01*
X17900499Y23725001D01*
X17900499Y24132364D01*
X17897585Y24157491D01*
X17852206Y24260265D01*
X17772765Y24339706D01*
X17669991Y24385085D01*
X17669990Y24385086D01*
X17669988Y24385086D01*
X17644868Y24388000D01*
X17255139Y24388000D01*
X17255136Y24387999D01*
X17230009Y24385086D01*
X17127235Y24339706D01*
X17047794Y24260265D01*
X17002414Y24157489D01*
X16999500Y24132370D01*
X16999500Y23017640D01*
X14083831Y23017640D01*
X14083831Y24789786D01*
X14076770Y24816137D01*
X14076760Y24816172D01*
X14076021Y24818931D01*
X14063353Y24866211D01*
X14063351Y24866214D01*
X14063351Y24866216D01*
X14023794Y24934730D01*
X14023793Y24934731D01*
X14023792Y24934732D01*
X14023791Y24934734D01*
X13079496Y25879029D01*
X13051719Y25933546D01*
X13050500Y25949033D01*
X13050500Y26924101D01*
X13069407Y26982292D01*
X13118907Y27018256D01*
X13180093Y27018256D01*
X13219501Y26994107D01*
X13241658Y26971950D01*
X13354696Y26914354D01*
X13480000Y26894508D01*
X13605304Y26914354D01*
X13718342Y26971950D01*
X13808050Y27061658D01*
X13849723Y27143447D01*
X13892986Y27186709D01*
X13953418Y27196280D01*
X14007934Y27168503D01*
X14027984Y27139626D01*
X14053312Y27084167D01*
X14067118Y27053937D01*
X14123099Y26989331D01*
X14125320Y26986768D01*
X14149137Y26930408D01*
X14149500Y26921937D01*
X14149500Y26880436D01*
X14169978Y26804012D01*
X14169980Y26804008D01*
X14209539Y26735490D01*
X14579539Y26365489D01*
X14635489Y26309540D01*
X14704007Y26269981D01*
X14704011Y26269979D01*
X14780435Y26249501D01*
X14780437Y26249500D01*
X14780438Y26249500D01*
X16039563Y26249500D01*
X16039563Y26249501D01*
X16115989Y26269979D01*
X16184511Y26309540D01*
X16240460Y26365489D01*
X16980496Y27105525D01*
X17035013Y27133302D01*
X17095445Y27123731D01*
X17138710Y27080466D01*
X17149500Y27035521D01*
X17149500Y26677978D01*
X17130593Y26619787D01*
X17120509Y26607981D01*
X17056479Y26543950D01*
X17047794Y26535265D01*
X17002414Y26432489D01*
X16999500Y26407370D01*
X16999500Y25292640D01*
X16999501Y25292637D01*
X17002414Y25267510D01*
X17008617Y25253462D01*
X17047794Y25164735D01*
X17127235Y25085294D01*
X17230009Y25039915D01*
X17255135Y25037000D01*
X17644864Y25037001D01*
X17669991Y25039915D01*
X17772765Y25085294D01*
X17852206Y25164735D01*
X17852206Y25164737D01*
X17854996Y25167526D01*
X17909513Y25195303D01*
X17969945Y25185732D01*
X17995004Y25167526D01*
X17997793Y25164737D01*
X17997794Y25164735D01*
X18077235Y25085294D01*
X18180009Y25039915D01*
X18205135Y25037000D01*
X18594864Y25037001D01*
X18619991Y25039915D01*
X18722765Y25085294D01*
X18802206Y25164735D01*
X18802206Y25164737D01*
X18804996Y25167526D01*
X18859513Y25195303D01*
X18919945Y25185732D01*
X18945004Y25167526D01*
X18947793Y25164737D01*
X18947794Y25164735D01*
X19027235Y25085294D01*
X19130009Y25039915D01*
X19155135Y25037000D01*
X19544864Y25037001D01*
X19569991Y25039915D01*
X19672765Y25085294D01*
X19752206Y25164735D01*
X19797585Y25267509D01*
X19800500Y25292635D01*
X19800499Y26407364D01*
X19797585Y26432491D01*
X19752206Y26535265D01*
X19679494Y26607977D01*
X19651719Y26662491D01*
X19650500Y26677978D01*
X19650500Y26808989D01*
X19669407Y26867180D01*
X19681393Y26878835D01*
X19680529Y26879699D01*
X19742489Y26941660D01*
X19763813Y26962984D01*
X19807682Y27062338D01*
X19810500Y27086627D01*
X19810500Y27139999D01*
X20959692Y27139999D01*
X20965191Y27084167D01*
X20965190Y27084167D01*
X21025232Y26886238D01*
X21025234Y26886233D01*
X21122724Y26703840D01*
X21122731Y26703830D01*
X21253940Y26543950D01*
X21253949Y26543941D01*
X21413829Y26412732D01*
X21413839Y26412725D01*
X21596232Y26315235D01*
X21596237Y26315233D01*
X21794166Y26255192D01*
X21849998Y26249693D01*
X21850000Y26249694D01*
X21850000Y26812555D01*
X21934174Y26790000D01*
X22065826Y26790000D01*
X22150000Y26812555D01*
X22150000Y26249694D01*
X22150001Y26249693D01*
X22205833Y26255192D01*
X22403762Y26315233D01*
X22403767Y26315235D01*
X22586160Y26412725D01*
X22586170Y26412732D01*
X22746050Y26543941D01*
X22746059Y26543950D01*
X22877268Y26703830D01*
X22877275Y26703840D01*
X22974765Y26886233D01*
X22974767Y26886238D01*
X23034808Y27084167D01*
X23040307Y27139999D01*
X23040306Y27140000D01*
X22477445Y27140000D01*
X22500000Y27224174D01*
X22500000Y27355826D01*
X22477445Y27440000D01*
X23040306Y27440000D01*
X23040307Y27440002D01*
X23034808Y27495834D01*
X23034809Y27495834D01*
X22974767Y27693763D01*
X22974765Y27693768D01*
X22877275Y27876161D01*
X22877268Y27876171D01*
X22746059Y28036051D01*
X22746050Y28036060D01*
X22586170Y28167269D01*
X22586160Y28167276D01*
X22403767Y28264766D01*
X22403762Y28264768D01*
X22205843Y28324806D01*
X22205832Y28324809D01*
X22150000Y28330308D01*
X22150000Y27767446D01*
X22065826Y27790000D01*
X21934174Y27790000D01*
X21850000Y27767446D01*
X21850000Y28330308D01*
X21794167Y28324809D01*
X21794156Y28324806D01*
X21596237Y28264768D01*
X21596232Y28264766D01*
X21413839Y28167276D01*
X21413829Y28167269D01*
X21253949Y28036060D01*
X21253940Y28036051D01*
X21122731Y27876171D01*
X21122724Y27876161D01*
X21025234Y27693768D01*
X21025232Y27693763D01*
X20965191Y27495834D01*
X20959692Y27440002D01*
X20959694Y27440000D01*
X21522555Y27440000D01*
X21500000Y27355826D01*
X21500000Y27224174D01*
X21522555Y27140000D01*
X20959694Y27140000D01*
X20959692Y27139999D01*
X19810500Y27139999D01*
X19810499Y27453372D01*
X19807682Y27477662D01*
X19763813Y27577016D01*
X19687016Y27653813D01*
X19674280Y27659437D01*
X19628686Y27700236D01*
X19615781Y27760045D01*
X19640495Y27816017D01*
X19674279Y27840564D01*
X19687016Y27846187D01*
X19763813Y27922984D01*
X19807682Y28022338D01*
X19810500Y28046627D01*
X19810499Y28413372D01*
X19809481Y28422145D01*
X19821554Y28482124D01*
X19837813Y28503554D01*
X19860106Y28525847D01*
X19914621Y28553622D01*
X19932208Y28553621D01*
X19932208Y28554508D01*
X19940000Y28554508D01*
X20065304Y28574354D01*
X20178342Y28631950D01*
X20268050Y28721658D01*
X20325646Y28834696D01*
X20345492Y28960000D01*
X20325646Y29085304D01*
X20268050Y29198342D01*
X20178342Y29288050D01*
X20129169Y29313105D01*
X20065307Y29345645D01*
X20065304Y29345646D01*
X19940000Y29365492D01*
X19814696Y29345646D01*
X19814692Y29345645D01*
X19701659Y29288051D01*
X19611949Y29198341D01*
X19554355Y29085308D01*
X19554354Y29085304D01*
X19534508Y28960002D01*
X19534508Y28952210D01*
X19531504Y28952210D01*
X19524040Y28905148D01*
X19505844Y28880107D01*
X19315233Y28689496D01*
X19260716Y28661719D01*
X19245229Y28660500D01*
X19199500Y28660500D01*
X19141309Y28679407D01*
X19105345Y28728907D01*
X19100500Y28759500D01*
X19100500Y29340444D01*
X19117184Y29395445D01*
X19160240Y29459883D01*
X19175500Y29536599D01*
X19175499Y29829997D01*
X20994659Y29829997D01*
X21013974Y29633874D01*
X21013975Y29633871D01*
X21024250Y29600000D01*
X21062261Y29474693D01*
X21071187Y29445270D01*
X21071188Y29445268D01*
X21122910Y29348504D01*
X21164090Y29271462D01*
X21164092Y29271460D01*
X21164093Y29271458D01*
X21289112Y29119122D01*
X21289121Y29119113D01*
X21441457Y28994094D01*
X21441462Y28994090D01*
X21519814Y28952210D01*
X21607860Y28905148D01*
X21615273Y28901186D01*
X21803868Y28843976D01*
X21803870Y28843976D01*
X21803873Y28843975D01*
X21999997Y28824659D01*
X22000000Y28824659D01*
X22000003Y28824659D01*
X22196126Y28843975D01*
X22196127Y28843976D01*
X22196132Y28843976D01*
X22384727Y28901186D01*
X22558538Y28994090D01*
X22710883Y29119117D01*
X22835910Y29271462D01*
X22928814Y29445273D01*
X22986024Y29633868D01*
X22993128Y29705989D01*
X23005341Y29829997D01*
X23005341Y29830004D01*
X22986025Y30026127D01*
X22986024Y30026130D01*
X22986024Y30026132D01*
X22928814Y30214727D01*
X22916105Y30238503D01*
X22903347Y30262373D01*
X22835910Y30388538D01*
X22833354Y30391653D01*
X22710887Y30540879D01*
X22710878Y30540888D01*
X22558542Y30665907D01*
X22558540Y30665908D01*
X22558538Y30665910D01*
X22517618Y30687782D01*
X22384732Y30758812D01*
X22384730Y30758813D01*
X22196129Y30816025D01*
X22196126Y30816026D01*
X22000003Y30835341D01*
X21999997Y30835341D01*
X21803873Y30816026D01*
X21803870Y30816025D01*
X21615269Y30758813D01*
X21615267Y30758812D01*
X21441467Y30665913D01*
X21441457Y30665907D01*
X21289121Y30540888D01*
X21289112Y30540879D01*
X21164093Y30388543D01*
X21164087Y30388533D01*
X21071188Y30214733D01*
X21071187Y30214731D01*
X21013975Y30026130D01*
X21013974Y30026127D01*
X20994659Y29830004D01*
X20994659Y29829997D01*
X19175499Y29829997D01*
X19175499Y29963400D01*
X19160240Y30040117D01*
X19143357Y30065385D01*
X19117184Y30104556D01*
X19100500Y30159557D01*
X19100500Y30184521D01*
X19119407Y30242712D01*
X19129496Y30254525D01*
X19960356Y31085385D01*
X20905298Y32030328D01*
X20959813Y32058103D01*
X21020245Y32048532D01*
X21063510Y32005267D01*
X21070036Y31989065D01*
X21071187Y31985270D01*
X21071188Y31985268D01*
X21117907Y31897864D01*
X21164090Y31811462D01*
X21164092Y31811460D01*
X21164093Y31811458D01*
X21289112Y31659122D01*
X21289121Y31659113D01*
X21441457Y31534094D01*
X21441462Y31534090D01*
X21615273Y31441186D01*
X21803868Y31383976D01*
X21803870Y31383976D01*
X21803873Y31383975D01*
X21999997Y31364659D01*
X22000000Y31364659D01*
X22000003Y31364659D01*
X22196126Y31383975D01*
X22196127Y31383976D01*
X22196132Y31383976D01*
X22384727Y31441186D01*
X22558538Y31534090D01*
X22710883Y31659117D01*
X22835910Y31811462D01*
X22928814Y31985273D01*
X22986024Y32173868D01*
X22986106Y32174693D01*
X23005341Y32369997D01*
X23005341Y32370003D01*
X23000477Y32419387D01*
X23000000Y32429091D01*
X23000000Y34035241D01*
X23000477Y34044950D01*
X23000500Y34045184D01*
X23000500Y35774819D01*
X23000499Y35774828D01*
X22991767Y35818721D01*
X22991765Y35818725D01*
X22958505Y35868502D01*
X22958504Y35868504D01*
X22917314Y35896026D01*
X22908724Y35901766D01*
X22908720Y35901768D01*
X22864827Y35910500D01*
X22864820Y35910500D01*
X21135180Y35910500D01*
X21135172Y35910500D01*
X21091279Y35901768D01*
X21091275Y35901766D01*
X21041498Y35868506D01*
X21041494Y35868502D01*
X21008234Y35818725D01*
X21008232Y35818721D01*
X20999500Y35774828D01*
X20999500Y35287000D01*
X20980593Y35228809D01*
X20931093Y35192845D01*
X20900500Y35188000D01*
X19489097Y35188000D01*
X19430906Y35206907D01*
X19400156Y35243519D01*
X19360919Y35323780D01*
X19273780Y35410919D01*
X19163067Y35465043D01*
X19163068Y35465043D01*
X19139113Y35468533D01*
X19091295Y35475500D01*
X19091291Y35475500D01*
X18508710Y35475500D01*
X18508707Y35475500D01*
X18508706Y35475499D01*
X18484781Y35472014D01*
X18436931Y35465043D01*
X18326220Y35410919D01*
X18239081Y35323780D01*
X18184957Y35213069D01*
X18174500Y35141292D01*
X18174500Y34727979D01*
X18155593Y34669788D01*
X18145509Y34657982D01*
X17790489Y34302960D01*
X17790488Y34302961D01*
X17734539Y34247011D01*
X17694980Y34178493D01*
X17694978Y34178489D01*
X17674500Y34102065D01*
X17674500Y28690479D01*
X17655593Y28632288D01*
X17645504Y28620475D01*
X15904525Y26879496D01*
X15850008Y26851719D01*
X15834521Y26850500D01*
X15673383Y26850500D01*
X15615192Y26869407D01*
X15579228Y26918907D01*
X15579228Y26980093D01*
X15598561Y27014329D01*
X15632882Y27053937D01*
X15686697Y27171774D01*
X15705133Y27300000D01*
X15704370Y27305304D01*
X15686697Y27428226D01*
X15659170Y27488500D01*
X15632882Y27546063D01*
X15632879Y27546066D01*
X15632263Y27547026D01*
X15632019Y27547951D01*
X15629941Y27552503D01*
X15630729Y27552863D01*
X15616711Y27606202D01*
X15638911Y27663217D01*
X15653170Y27676164D01*
X15658497Y27681492D01*
X15658504Y27681496D01*
X15691767Y27731278D01*
X15700500Y27775180D01*
X15700500Y28340547D01*
X15719407Y28398738D01*
X15768907Y28434702D01*
X15830093Y28434702D01*
X15869504Y28410551D01*
X15905331Y28374724D01*
X15956481Y28340547D01*
X16011866Y28303539D01*
X16011870Y28303537D01*
X16011873Y28303535D01*
X16130256Y28254499D01*
X16255931Y28229500D01*
X16255932Y28229500D01*
X16384068Y28229500D01*
X16384069Y28229500D01*
X16509744Y28254499D01*
X16628127Y28303535D01*
X16734669Y28374724D01*
X16825276Y28465331D01*
X16896465Y28571873D01*
X16945501Y28690256D01*
X16970500Y28815931D01*
X16970500Y30044069D01*
X16945501Y30169744D01*
X16896465Y30288127D01*
X16896463Y30288130D01*
X16896461Y30288134D01*
X16858474Y30344984D01*
X16825276Y30394669D01*
X16734669Y30485276D01*
X16692226Y30513635D01*
X16628133Y30556462D01*
X16628125Y30556466D01*
X16509747Y30605500D01*
X16509745Y30605501D01*
X16509744Y30605501D01*
X16384069Y30630500D01*
X16255931Y30630500D01*
X16255930Y30630500D01*
X16193093Y30618001D01*
X16130256Y30605501D01*
X16130255Y30605501D01*
X16130252Y30605500D01*
X16011874Y30556466D01*
X16011866Y30556462D01*
X15905331Y30485276D01*
X15905327Y30485273D01*
X15814727Y30394673D01*
X15814724Y30394669D01*
X15743538Y30288134D01*
X15743534Y30288126D01*
X15694500Y30169748D01*
X15694499Y30169743D01*
X15669500Y30044070D01*
X15669500Y29489420D01*
X15650593Y29431229D01*
X15601093Y29395265D01*
X15569684Y29391853D01*
X15569684Y29390500D01*
X15373387Y29390500D01*
X15315196Y29409407D01*
X15279232Y29458907D01*
X15279232Y29520093D01*
X15303381Y29559502D01*
X15350515Y29606635D01*
X15366242Y29633874D01*
X15426279Y29737861D01*
X15426279Y29737863D01*
X15426281Y29737865D01*
X15465500Y29884234D01*
X15465500Y30035766D01*
X15426281Y30182135D01*
X15426279Y30182138D01*
X15426279Y30182140D01*
X15350518Y30313361D01*
X15350516Y30313363D01*
X15350515Y30313365D01*
X15243365Y30420515D01*
X15243362Y30420517D01*
X15243360Y30420519D01*
X15112138Y30496280D01*
X15112140Y30496280D01*
X15055347Y30511497D01*
X14965766Y30535500D01*
X14814234Y30535500D01*
X14724652Y30511497D01*
X14667860Y30496280D01*
X14536639Y30420519D01*
X14429481Y30313361D01*
X14353720Y30182140D01*
X14350124Y30168719D01*
X14314500Y30035766D01*
X14314500Y29884234D01*
X14318309Y29870020D01*
X14353720Y29737861D01*
X14429481Y29606640D01*
X14429483Y29606638D01*
X14429485Y29606635D01*
X14476618Y29559502D01*
X14504394Y29504987D01*
X14494823Y29444555D01*
X14451558Y29401290D01*
X14406613Y29390500D01*
X14135172Y29390500D01*
X14091279Y29381768D01*
X14091274Y29381766D01*
X14079999Y29374232D01*
X14021110Y29357625D01*
X13970001Y29374232D01*
X13958725Y29381766D01*
X13958720Y29381768D01*
X13914827Y29390500D01*
X13914820Y29390500D01*
X13585180Y29390500D01*
X13585172Y29390500D01*
X13541278Y29381768D01*
X13537881Y29380360D01*
X13531801Y29379882D01*
X13531717Y29379865D01*
X13531715Y29379875D01*
X13476885Y29375562D01*
X13462119Y29380360D01*
X13458721Y29381768D01*
X13414827Y29390500D01*
X13414820Y29390500D01*
X13149500Y29390500D01*
X13091309Y29409407D01*
X13055345Y29458907D01*
X13050500Y29489500D01*
X13050500Y29629563D01*
X13050499Y29629565D01*
X13049344Y29633874D01*
X13030021Y29705989D01*
X13011617Y29737865D01*
X12990461Y29774509D01*
X12990460Y29774511D01*
X12934511Y29830460D01*
X12934508Y29830462D01*
X12865992Y29870020D01*
X12865988Y29870022D01*
X12789564Y29890500D01*
X12789562Y29890500D01*
X11789562Y29890500D01*
X11710438Y29890500D01*
X11710435Y29890500D01*
X11634011Y29870022D01*
X11634007Y29870020D01*
X11565491Y29830462D01*
X11509538Y29774509D01*
X11469980Y29705993D01*
X11469978Y29705989D01*
X11449500Y29629565D01*
X11449500Y29489500D01*
X11430593Y29431309D01*
X11381093Y29395345D01*
X11350500Y29390500D01*
X11085172Y29390500D01*
X11041278Y29381768D01*
X11037881Y29380360D01*
X11031801Y29379882D01*
X11031717Y29379865D01*
X11031715Y29379875D01*
X10976885Y29375562D01*
X10962119Y29380360D01*
X10958721Y29381768D01*
X10914827Y29390500D01*
X10914820Y29390500D01*
X10585180Y29390500D01*
X10585172Y29390500D01*
X10541278Y29381768D01*
X10537881Y29380360D01*
X10531801Y29379882D01*
X10531717Y29379865D01*
X10531715Y29379875D01*
X10476885Y29375562D01*
X10462119Y29380360D01*
X10458721Y29381768D01*
X10414827Y29390500D01*
X10414820Y29390500D01*
X10085180Y29390500D01*
X10085172Y29390500D01*
X10041279Y29381768D01*
X10041274Y29381766D01*
X10029999Y29374232D01*
X9971110Y29357625D01*
X9920001Y29374232D01*
X9908725Y29381766D01*
X9908720Y29381768D01*
X9864827Y29390500D01*
X9864820Y29390500D01*
X9593387Y29390500D01*
X9535196Y29409407D01*
X9499232Y29458907D01*
X9499232Y29520093D01*
X9523381Y29559502D01*
X9570515Y29606635D01*
X9586242Y29633874D01*
X9646279Y29737861D01*
X9646279Y29737863D01*
X9646281Y29737865D01*
X9685500Y29884234D01*
X9685500Y30035766D01*
X9646281Y30182135D01*
X9646279Y30182138D01*
X9646279Y30182140D01*
X9570518Y30313361D01*
X9570516Y30313363D01*
X9570515Y30313365D01*
X9463365Y30420515D01*
X9463362Y30420517D01*
X9463360Y30420519D01*
X9332138Y30496280D01*
X9332140Y30496280D01*
X9275347Y30511497D01*
X9185766Y30535500D01*
X9034234Y30535500D01*
X8944652Y30511497D01*
X8887860Y30496280D01*
X8756639Y30420519D01*
X8649481Y30313361D01*
X8573720Y30182140D01*
X8570124Y30168719D01*
X8534500Y30035766D01*
X8534500Y29884234D01*
X8538309Y29870020D01*
X8573720Y29737861D01*
X8649481Y29606640D01*
X8649483Y29606638D01*
X8649485Y29606635D01*
X8696618Y29559502D01*
X8724394Y29504987D01*
X8714823Y29444555D01*
X8671558Y29401290D01*
X8626613Y29390500D01*
X8430316Y29390500D01*
X8430316Y29392837D01*
X8379402Y29404032D01*
X8338780Y29449786D01*
X8330500Y29489420D01*
X8330500Y30044068D01*
X8330500Y30044069D01*
X8305501Y30169744D01*
X8256465Y30288127D01*
X8256463Y30288130D01*
X8256461Y30288134D01*
X8218474Y30344984D01*
X8185276Y30394669D01*
X8094669Y30485276D01*
X8052226Y30513635D01*
X7988133Y30556462D01*
X7988125Y30556466D01*
X7869747Y30605500D01*
X7869745Y30605501D01*
X7869744Y30605501D01*
X7744069Y30630500D01*
X7615931Y30630500D01*
X7615930Y30630500D01*
X7553093Y30618001D01*
X7490256Y30605501D01*
X7490255Y30605501D01*
X7490252Y30605500D01*
X7371874Y30556466D01*
X7371866Y30556462D01*
X7265331Y30485276D01*
X7265327Y30485273D01*
X7174727Y30394673D01*
X7174724Y30394669D01*
X7103538Y30288134D01*
X7103534Y30288126D01*
X7054500Y30169748D01*
X7054499Y30169745D01*
X7054499Y30169744D01*
X7029500Y30044069D01*
X7029500Y28815931D01*
X7044266Y28741698D01*
X7054499Y28690258D01*
X7054500Y28690253D01*
X7103534Y28571875D01*
X7103538Y28571867D01*
X7129925Y28532377D01*
X7174724Y28465331D01*
X7265331Y28374724D01*
X7316481Y28340547D01*
X7371866Y28303539D01*
X7371870Y28303537D01*
X7371873Y28303535D01*
X7490256Y28254499D01*
X7615931Y28229500D01*
X7615932Y28229500D01*
X7744068Y28229500D01*
X7744069Y28229500D01*
X7869744Y28254499D01*
X7988127Y28303535D01*
X8094669Y28374724D01*
X8130496Y28410551D01*
X8185013Y28438328D01*
X8245445Y28428757D01*
X8288710Y28385492D01*
X8299500Y28340547D01*
X8299500Y27775173D01*
X8308232Y27731280D01*
X8308234Y27731276D01*
X8335748Y27690099D01*
X8341496Y27681496D01*
X8341499Y27681494D01*
X8348391Y27674602D01*
X8347033Y27673245D01*
X8377330Y27634814D01*
X8379734Y27573676D01*
X8367741Y27547035D01*
X8367121Y27546071D01*
X8313302Y27428226D01*
X8294867Y27300003D01*
X8294867Y27299998D01*
X8313302Y27171775D01*
X8353312Y27084167D01*
X8367118Y27053937D01*
X8418962Y26994105D01*
X8423099Y26989331D01*
X8446916Y26932971D01*
X8433057Y26873376D01*
X8386816Y26833308D01*
X8348279Y26825500D01*
X7324413Y26825500D01*
X7266222Y26844407D01*
X7254409Y26854496D01*
X6599495Y27509410D01*
X6571718Y27563927D01*
X6570499Y27579414D01*
X6570499Y27867620D01*
X6570499Y27867622D01*
X6567730Y27891498D01*
X6553827Y27922984D01*
X6524616Y27989140D01*
X6524616Y27989141D01*
X6449141Y28064616D01*
X6449139Y28064617D01*
X6347635Y28109436D01*
X6302040Y28150237D01*
X6289135Y28210046D01*
X6313849Y28266017D01*
X6347635Y28290564D01*
X6373558Y28302011D01*
X6449141Y28335384D01*
X6524616Y28410859D01*
X6567730Y28508502D01*
X6570500Y28532377D01*
X6570499Y28887622D01*
X6567730Y28911498D01*
X6524616Y29009141D01*
X6449141Y29084616D01*
X6447574Y29085308D01*
X6409511Y29102115D01*
X6363916Y29142916D01*
X6350500Y29192679D01*
X6350500Y29243101D01*
X6369407Y29301292D01*
X6379490Y29313099D01*
X6428050Y29361658D01*
X6485646Y29474696D01*
X6505492Y29600000D01*
X6504440Y29606639D01*
X6500127Y29633874D01*
X6485646Y29725304D01*
X6428050Y29838342D01*
X6428048Y29838344D01*
X6379496Y29886897D01*
X6351719Y29941414D01*
X6350500Y29956900D01*
X6350500Y29957322D01*
X6369407Y30015513D01*
X6409509Y30047885D01*
X6449141Y30065384D01*
X6524616Y30140859D01*
X6567730Y30238502D01*
X6570500Y30262377D01*
X6570499Y30617622D01*
X6567730Y30641498D01*
X6524616Y30739141D01*
X6449141Y30814616D01*
X6402204Y30835341D01*
X6347635Y30859436D01*
X6302040Y30900237D01*
X6289135Y30960046D01*
X6313849Y31016017D01*
X6347635Y31040564D01*
X6373558Y31052011D01*
X6449141Y31085384D01*
X6524616Y31160859D01*
X6567730Y31258502D01*
X6570500Y31282377D01*
X6570499Y31637622D01*
X6567730Y31661498D01*
X6524616Y31759141D01*
X6449141Y31834616D01*
X6409216Y31852245D01*
X6363622Y31893044D01*
X6350717Y31952853D01*
X6375431Y32008825D01*
X6379185Y32012794D01*
X6428050Y32061658D01*
X6485646Y32174696D01*
X6505492Y32300000D01*
X6485646Y32425304D01*
X6428050Y32538342D01*
X6338342Y32628050D01*
X6334406Y32630056D01*
X6225307Y32685645D01*
X6225304Y32685646D01*
X6100000Y32705492D01*
X5974696Y32685646D01*
X5974692Y32685645D01*
X5861659Y32628051D01*
X5771949Y32538341D01*
X5714355Y32425308D01*
X5714354Y32425304D01*
X5694508Y32300001D01*
X5694508Y32300000D01*
X5714354Y32174697D01*
X5714355Y32174693D01*
X5767954Y32069500D01*
X5771950Y32061658D01*
X5820797Y32012811D01*
X5848573Y31958296D01*
X5839002Y31897864D01*
X5795737Y31854599D01*
X5790783Y31852246D01*
X5750861Y31834618D01*
X5675383Y31759140D01*
X5632269Y31661499D01*
X5632269Y31661498D01*
X5629500Y31637628D01*
X5629500Y31282381D01*
X5629501Y31282378D01*
X5632270Y31258500D01*
X5646296Y31226736D01*
X5675384Y31160859D01*
X5750859Y31085384D01*
X5848502Y31042270D01*
X5848504Y31042270D01*
X5852363Y31040566D01*
X5897959Y30999765D01*
X5910864Y30939956D01*
X5886150Y30883984D01*
X5852365Y30859437D01*
X5750860Y30814617D01*
X5675383Y30739140D01*
X5632269Y30641499D01*
X5632269Y30641498D01*
X5629500Y30617628D01*
X5629500Y30262381D01*
X5629501Y30262378D01*
X5632270Y30238500D01*
X5662628Y30169748D01*
X5675384Y30140859D01*
X5750859Y30065384D01*
X5790490Y30047885D01*
X5836083Y30007086D01*
X5849500Y29957322D01*
X5849500Y29956900D01*
X5830593Y29898709D01*
X5820504Y29886897D01*
X5771951Y29838344D01*
X5771950Y29838342D01*
X5714355Y29725308D01*
X5714354Y29725304D01*
X5695560Y29606639D01*
X5694508Y29600000D01*
X5709556Y29504987D01*
X5714354Y29474697D01*
X5714355Y29474693D01*
X5765543Y29374232D01*
X5771950Y29361658D01*
X5820505Y29313103D01*
X5848281Y29258588D01*
X5849500Y29243101D01*
X5849500Y29192679D01*
X5830593Y29134488D01*
X5790489Y29102115D01*
X5750860Y29084617D01*
X5675383Y29009140D01*
X5632269Y28911499D01*
X5632269Y28911498D01*
X5629500Y28887628D01*
X5629500Y28532381D01*
X5629501Y28532378D01*
X5632270Y28508500D01*
X5663255Y28438328D01*
X5675384Y28410859D01*
X5750859Y28335384D01*
X5848502Y28292270D01*
X5848504Y28292270D01*
X5852363Y28290566D01*
X5897959Y28249765D01*
X5910864Y28189956D01*
X5886150Y28133984D01*
X5852365Y28109437D01*
X5750860Y28064617D01*
X5675383Y27989140D01*
X5632269Y27891499D01*
X5632269Y27891498D01*
X5629500Y27867628D01*
X5629500Y27512381D01*
X5629501Y27512378D01*
X5632270Y27488500D01*
X5671154Y27400438D01*
X5675384Y27390859D01*
X5750859Y27315384D01*
X5785700Y27300000D01*
X5848501Y27272270D01*
X5852749Y27271778D01*
X5872377Y27269500D01*
X6160586Y27269501D01*
X6218776Y27250594D01*
X6230590Y27240505D01*
X6998829Y26472266D01*
X6998830Y26472264D01*
X7062264Y26408830D01*
X7096595Y26394610D01*
X7145146Y26374499D01*
X7145147Y26374499D01*
X7246378Y26374499D01*
X7246386Y26374500D01*
X9743614Y26374500D01*
X9743622Y26374499D01*
X9755145Y26374499D01*
X9844854Y26374499D01*
X9844855Y26374499D01*
X9903460Y26398775D01*
X9927736Y26408830D01*
X9991170Y26472264D01*
X9991170Y26472265D01*
X10005076Y26486171D01*
X10005085Y26486181D01*
X10363812Y26844908D01*
X10363815Y26844910D01*
X10377735Y26858830D01*
X10377736Y26858830D01*
X10441170Y26922264D01*
X10451225Y26946540D01*
X10455158Y26956033D01*
X10465124Y26980093D01*
X10475501Y27005145D01*
X10475501Y27094855D01*
X10475501Y27102829D01*
X10475500Y27102843D01*
X10475500Y27541073D01*
X10494407Y27599264D01*
X10543907Y27635228D01*
X10580316Y27639175D01*
X10580316Y27639500D01*
X10583321Y27639500D01*
X10584207Y27639596D01*
X10585179Y27639501D01*
X10585180Y27639500D01*
X10585181Y27639500D01*
X10850500Y27639500D01*
X10908691Y27620593D01*
X10944655Y27571093D01*
X10949500Y27540500D01*
X10949500Y27400436D01*
X10969978Y27324012D01*
X10969980Y27324008D01*
X11009218Y27256047D01*
X11009540Y27255489D01*
X11065489Y27199540D01*
X11065491Y27199539D01*
X11134007Y27159981D01*
X11134011Y27159979D01*
X11210435Y27139501D01*
X11210437Y27139500D01*
X11210438Y27139500D01*
X11289562Y27139500D01*
X11850500Y27139500D01*
X11908691Y27120593D01*
X11944655Y27071093D01*
X11949500Y27040500D01*
X11949500Y25536882D01*
X11969865Y25460883D01*
X11969979Y25460457D01*
X11970415Y25459702D01*
X11970427Y25459656D01*
X11970438Y25459662D01*
X11970439Y25459661D01*
X12009540Y25391935D01*
X12953836Y24447639D01*
X12981612Y24393124D01*
X12982831Y24377637D01*
X12982831Y22588813D01*
X12963924Y22530622D01*
X12953835Y22518809D01*
X12865487Y22430461D01*
X12865486Y22430462D01*
X12809537Y22374512D01*
X12769978Y22305994D01*
X12769976Y22305990D01*
X12749498Y22229566D01*
X12749498Y22170120D01*
X12730591Y22111929D01*
X12706449Y22088447D01*
X12700860Y22084619D01*
X12700857Y22084617D01*
X12700857Y22084616D01*
X12630202Y22013962D01*
X12575688Y21986186D01*
X12515256Y21995757D01*
X12490200Y22013961D01*
X12420348Y22083813D01*
X12420346Y22083814D01*
X12420345Y22083815D01*
X12392842Y22095959D01*
X12347247Y22136761D01*
X12333832Y22186523D01*
X12333832Y22201433D01*
X12352739Y22259624D01*
X12362822Y22271431D01*
X12403050Y22311658D01*
X12460646Y22424696D01*
X12480492Y22550000D01*
X12460646Y22675304D01*
X12403050Y22788342D01*
X12313342Y22878050D01*
X12229286Y22920879D01*
X12200307Y22935645D01*
X12200304Y22935646D01*
X12075000Y22955492D01*
X11949696Y22935646D01*
X11949692Y22935645D01*
X11836659Y22878051D01*
X11746949Y22788341D01*
X11688209Y22673058D01*
X11644944Y22629794D01*
X11584512Y22620223D01*
X11529996Y22648001D01*
X11511791Y22673058D01*
X11466471Y22762002D01*
X11453050Y22788342D01*
X11363342Y22878050D01*
X11279286Y22920879D01*
X11250307Y22935645D01*
X11250304Y22935646D01*
X11125000Y22955492D01*
X10999696Y22935646D01*
X10999692Y22935645D01*
X10886659Y22878051D01*
X10796949Y22788341D01*
X10739355Y22675308D01*
X10739354Y22675304D01*
X10719508Y22550001D01*
X10719508Y22550000D01*
X10739354Y22424697D01*
X10739355Y22424693D01*
X10770076Y22364401D01*
X10796950Y22311658D01*
X10837171Y22271437D01*
X10864947Y22216922D01*
X10866166Y22201435D01*
X10866166Y22186523D01*
X10847259Y22128332D01*
X10807156Y22095959D01*
X10779652Y22083815D01*
X10702853Y22007016D01*
X10658983Y21907660D01*
X10656166Y21883378D01*
X10656166Y21516631D01*
X10656167Y21516628D01*
X10658983Y21492339D01*
X10678391Y21448386D01*
X10702853Y21392984D01*
X10774417Y21321420D01*
X10802193Y21266905D01*
X10792622Y21206473D01*
X10754990Y21168842D01*
X10755737Y21167776D01*
X10749692Y21163544D01*
X10749357Y21163208D01*
X10748883Y21162977D01*
X10748645Y21162811D01*
X10663856Y21078022D01*
X10613187Y20969362D01*
X10613185Y20969355D01*
X10606666Y20919839D01*
X10606666Y20890001D01*
X10606667Y20890000D01*
X12134332Y20890000D01*
X12192523Y20871093D01*
X12228487Y20821593D01*
X12233332Y20791000D01*
X12233332Y20260001D01*
X12233333Y20260000D01*
X12293170Y20260000D01*
X12342686Y20266520D01*
X12342693Y20266522D01*
X12451353Y20317191D01*
X12451355Y20317192D01*
X12505198Y20371035D01*
X12559714Y20398813D01*
X12620146Y20389242D01*
X12645202Y20371039D01*
X12700857Y20315384D01*
X12740488Y20297885D01*
X12786081Y20257086D01*
X12799498Y20207322D01*
X12799498Y19969767D01*
X12780591Y19911576D01*
X12770502Y19899763D01*
X12158103Y19287364D01*
X12158102Y19287365D01*
X12087635Y19216897D01*
X12049500Y19124829D01*
X12049500Y18757401D01*
X12030593Y18699210D01*
X12013305Y18680873D01*
X12000000Y18669954D01*
X12000000Y18036500D01*
X11981093Y17978309D01*
X11931593Y17942345D01*
X11901000Y17937500D01*
X11499000Y17937500D01*
X11440809Y17956407D01*
X11404845Y18005907D01*
X11400000Y18036500D01*
X11400000Y18137501D01*
X11600000Y18137501D01*
X11600001Y18137500D01*
X11799999Y18137500D01*
X11800000Y18137501D01*
X11800000Y18669954D01*
X11752457Y18660496D01*
X11743445Y18656763D01*
X11742639Y18658709D01*
X11696104Y18645590D01*
X11657167Y18658241D01*
X11656555Y18656763D01*
X11647542Y18660496D01*
X11600000Y18669954D01*
X11600000Y18137501D01*
X11400000Y18137501D01*
X11400000Y18669954D01*
X11391100Y18668183D01*
X11330339Y18675375D01*
X11299198Y18701974D01*
X11298066Y18700841D01*
X11222093Y18776813D01*
X11222092Y18776813D01*
X10044496Y19954409D01*
X10016719Y20008926D01*
X10015500Y20024413D01*
X10015500Y20282440D01*
X10034407Y20340631D01*
X10074509Y20373004D01*
X10127016Y20396187D01*
X10203813Y20472984D01*
X10242306Y20560162D01*
X10606666Y20560162D01*
X10613185Y20510646D01*
X10613187Y20510639D01*
X10663856Y20401979D01*
X10748644Y20317191D01*
X10857304Y20266522D01*
X10857311Y20266520D01*
X10906827Y20260000D01*
X10966665Y20260000D01*
X10966666Y20260001D01*
X11266666Y20260001D01*
X11266667Y20260000D01*
X11326504Y20260000D01*
X11376020Y20266520D01*
X11376027Y20266522D01*
X11484687Y20317191D01*
X11529995Y20362498D01*
X11584512Y20390275D01*
X11644944Y20380704D01*
X11670003Y20362498D01*
X11715310Y20317191D01*
X11823970Y20266522D01*
X11823977Y20266520D01*
X11873493Y20260000D01*
X11933331Y20260000D01*
X11933332Y20260001D01*
X11933332Y20589999D01*
X11933331Y20590000D01*
X11266667Y20590000D01*
X11266666Y20589999D01*
X11266666Y20260001D01*
X10966666Y20260001D01*
X10966666Y20589999D01*
X10966665Y20590000D01*
X10606667Y20590000D01*
X10606666Y20589999D01*
X10606666Y20560162D01*
X10242306Y20560162D01*
X10247682Y20572338D01*
X10250500Y20596627D01*
X10250499Y20963372D01*
X10247682Y20987662D01*
X10203813Y21087016D01*
X10127016Y21163813D01*
X10114280Y21169437D01*
X10068686Y21210236D01*
X10055781Y21270045D01*
X10080495Y21326017D01*
X10114279Y21350564D01*
X10127016Y21356187D01*
X10203813Y21432984D01*
X10247682Y21532338D01*
X10250500Y21556627D01*
X10250499Y21923372D01*
X10247682Y21947662D01*
X10203813Y22047016D01*
X10127016Y22123813D01*
X10127014Y22123814D01*
X10127012Y22123816D01*
X10114512Y22129335D01*
X10068916Y22170135D01*
X10055500Y22219899D01*
X10055500Y23028313D01*
X10074407Y23086504D01*
X10123907Y23122468D01*
X10169987Y23126094D01*
X10180000Y23124508D01*
X10305304Y23144354D01*
X10418342Y23201950D01*
X10508050Y23291658D01*
X10565646Y23404696D01*
X10585492Y23530000D01*
X10584039Y23539171D01*
X10579746Y23566278D01*
X10565646Y23655304D01*
X10508050Y23768342D01*
X10418342Y23858050D01*
X10384130Y23875482D01*
X10305307Y23915645D01*
X10305304Y23915646D01*
X10180000Y23935492D01*
X10054696Y23915646D01*
X10054692Y23915645D01*
X9941658Y23858050D01*
X9935353Y23853469D01*
X9933367Y23856202D01*
X9891987Y23835118D01*
X9831555Y23844689D01*
X9788290Y23887954D01*
X9777500Y23932899D01*
X9777500Y24016614D01*
X9777501Y24016623D01*
X9777501Y24117855D01*
X9743170Y24200735D01*
X9743170Y24200736D01*
X9679736Y24264170D01*
X9679734Y24264171D01*
X9191170Y24752735D01*
X9191170Y24752736D01*
X9179493Y24764413D01*
X9151718Y24818931D01*
X9150500Y24834414D01*
X9150500Y24839819D01*
X9150499Y24839828D01*
X9144931Y24867817D01*
X9152121Y24928578D01*
X9193652Y24973509D01*
X9253662Y24985447D01*
X9309227Y24959833D01*
X9312032Y24957137D01*
X9321978Y24947191D01*
X9430638Y24896522D01*
X9430645Y24896520D01*
X9480161Y24890000D01*
X9509999Y24890000D01*
X9510000Y24890001D01*
X9810000Y24890001D01*
X9810001Y24890000D01*
X9839838Y24890000D01*
X9889354Y24896520D01*
X9889361Y24896522D01*
X9998021Y24947191D01*
X10082810Y25031980D01*
X10087776Y25039071D01*
X10089449Y25037900D01*
X10123407Y25074327D01*
X10183467Y25086011D01*
X10238924Y25060162D01*
X10241391Y25057780D01*
X10312984Y24986187D01*
X10412338Y24942318D01*
X10436627Y24939500D01*
X10803372Y24939501D01*
X10827662Y24942318D01*
X10927016Y24986187D01*
X10991920Y25051092D01*
X11046434Y25078868D01*
X11106864Y25069298D01*
X11214696Y25014354D01*
X11340000Y24994508D01*
X11465304Y25014354D01*
X11578342Y25071950D01*
X11668050Y25161658D01*
X11725646Y25274696D01*
X11745492Y25400000D01*
X11725646Y25525304D01*
X11668050Y25638342D01*
X11578342Y25728050D01*
X11512348Y25761676D01*
X11465307Y25785645D01*
X11465304Y25785646D01*
X11340000Y25805492D01*
X11214696Y25785646D01*
X11214694Y25785646D01*
X11106867Y25730704D01*
X11046435Y25721133D01*
X10991919Y25748910D01*
X10927016Y25813813D01*
X10827662Y25857682D01*
X10827661Y25857683D01*
X10827659Y25857683D01*
X10803376Y25860500D01*
X10436630Y25860500D01*
X10436627Y25860499D01*
X10412338Y25857683D01*
X10312982Y25813812D01*
X10241420Y25742250D01*
X10186903Y25714473D01*
X10126471Y25724045D01*
X10088841Y25761676D01*
X10087776Y25760929D01*
X10083543Y25766974D01*
X10083207Y25767310D01*
X10082975Y25767785D01*
X10082810Y25768021D01*
X9998021Y25852810D01*
X9889361Y25903479D01*
X9889354Y25903481D01*
X9839839Y25910000D01*
X9810001Y25910000D01*
X9810000Y25909999D01*
X9810000Y24890001D01*
X9510000Y24890001D01*
X9510000Y25249999D01*
X9509999Y25250000D01*
X9203007Y25250000D01*
X9144816Y25268907D01*
X9137682Y25275000D01*
X8549000Y25275000D01*
X8490809Y25293907D01*
X8454845Y25343407D01*
X8450000Y25374000D01*
X8450000Y25575001D01*
X8750000Y25575001D01*
X8750001Y25575000D01*
X9176993Y25575000D01*
X9235184Y25556093D01*
X9242318Y25550000D01*
X9509999Y25550000D01*
X9510000Y25550001D01*
X9510000Y25909999D01*
X9509999Y25910000D01*
X9480161Y25910000D01*
X9430645Y25903481D01*
X9430638Y25903479D01*
X9321978Y25852810D01*
X9321975Y25852808D01*
X9258091Y25788924D01*
X9203574Y25761147D01*
X9143142Y25770719D01*
X9133086Y25776613D01*
X9078036Y25813397D01*
X9019700Y25825000D01*
X8750001Y25825000D01*
X8750000Y25824999D01*
X8750000Y25575001D01*
X8450000Y25575001D01*
X8450000Y25824999D01*
X8449999Y25825000D01*
X8180299Y25825000D01*
X8121963Y25813397D01*
X8121961Y25813396D01*
X8100559Y25799095D01*
X8041671Y25782487D01*
X7984268Y25803666D01*
X7963244Y25826410D01*
X7958504Y25833504D01*
X7942935Y25843907D01*
X7908724Y25866766D01*
X7908720Y25866768D01*
X7864827Y25875500D01*
X7864820Y25875500D01*
X5535180Y25875500D01*
X5535172Y25875500D01*
X5491279Y25866768D01*
X5491275Y25866766D01*
X5441498Y25833506D01*
X5441495Y25833503D01*
X5409253Y25785250D01*
X5361202Y25747371D01*
X5300064Y25744970D01*
X5271936Y25757938D01*
X5258724Y25766766D01*
X5258720Y25766768D01*
X5214827Y25775500D01*
X5214820Y25775500D01*
X5124500Y25775500D01*
X5066309Y25794407D01*
X5030345Y25843907D01*
X5025500Y25874500D01*
X5025500Y27206283D01*
X5044407Y27264474D01*
X5084509Y27296847D01*
X5149141Y27325384D01*
X5224616Y27400859D01*
X5267730Y27498502D01*
X5270500Y27522377D01*
X5270499Y27877622D01*
X5267730Y27901498D01*
X5258242Y27922985D01*
X5224616Y27999140D01*
X5224616Y27999141D01*
X5149141Y28074616D01*
X5149139Y28074617D01*
X5149138Y28074618D01*
X5109332Y28092194D01*
X5063736Y28132994D01*
X5050831Y28192803D01*
X5075545Y28248775D01*
X5107481Y28272482D01*
X5180109Y28306350D01*
X5263650Y28389891D01*
X5313574Y28496953D01*
X5313576Y28496960D01*
X5320000Y28545747D01*
X5320000Y28569999D01*
X5319999Y28570000D01*
X4280002Y28570000D01*
X4280001Y28569999D01*
X4280001Y28545740D01*
X4286422Y28496959D01*
X4336349Y28389891D01*
X4419888Y28306352D01*
X4492518Y28272484D01*
X4537266Y28230756D01*
X4548941Y28170694D01*
X4523083Y28115241D01*
X4490670Y28092196D01*
X4450861Y28074618D01*
X4375383Y27999140D01*
X4332269Y27901499D01*
X4332269Y27901498D01*
X4329500Y27877628D01*
X4329500Y27522381D01*
X4329501Y27522378D01*
X4332270Y27498500D01*
X4375383Y27400861D01*
X4375384Y27400859D01*
X4450859Y27325384D01*
X4515489Y27296847D01*
X4561084Y27256047D01*
X4574500Y27206283D01*
X4574500Y25874500D01*
X4555593Y25816309D01*
X4506093Y25780345D01*
X4475500Y25775500D01*
X4385172Y25775500D01*
X4341279Y25766768D01*
X4341275Y25766766D01*
X4291498Y25733506D01*
X4291494Y25733502D01*
X4258234Y25683725D01*
X4258232Y25683721D01*
X4249500Y25639828D01*
X4249500Y25434413D01*
X4230593Y25376222D01*
X4220504Y25364409D01*
X3665504Y24809409D01*
X3610987Y24781632D01*
X3550555Y24791203D01*
X3507290Y24834468D01*
X3496500Y24879413D01*
X3496500Y28870001D01*
X4280000Y28870001D01*
X4280001Y28870000D01*
X4649999Y28870000D01*
X4650000Y28870001D01*
X4950000Y28870001D01*
X4950001Y28870000D01*
X5319998Y28870000D01*
X5319999Y28870001D01*
X5319999Y28894251D01*
X5319998Y28894261D01*
X5313577Y28943042D01*
X5263650Y29050110D01*
X5180109Y29133651D01*
X5073047Y29183575D01*
X5073040Y29183577D01*
X5024254Y29190000D01*
X4950001Y29190000D01*
X4950000Y29189999D01*
X4950000Y28870001D01*
X4650000Y28870001D01*
X4650000Y29190001D01*
X4575749Y29190000D01*
X4575738Y29189999D01*
X4526959Y29183578D01*
X4419890Y29133651D01*
X4336349Y29050110D01*
X4286425Y28943048D01*
X4286423Y28943041D01*
X4280000Y28894254D01*
X4280000Y28870001D01*
X3496500Y28870001D01*
X3496500Y31143857D01*
X3462170Y31226736D01*
X3398736Y31290171D01*
X3398736Y31290170D01*
X2902295Y31786611D01*
X2874518Y31841128D01*
X2884089Y31901560D01*
X2884964Y31903238D01*
X2928814Y31985273D01*
X2986024Y32173868D01*
X2986106Y32174693D01*
X3005341Y32369997D01*
X3005341Y32370004D01*
X2986025Y32566127D01*
X2986024Y32566130D01*
X2986024Y32566132D01*
X2928814Y32754727D01*
X2835910Y32928538D01*
X2835906Y32928543D01*
X2710887Y33080879D01*
X2710878Y33080888D01*
X2558542Y33205907D01*
X2558540Y33205908D01*
X2558538Y33205910D01*
X2483664Y33245931D01*
X7029500Y33245931D01*
X7037461Y33205907D01*
X7054499Y33120258D01*
X7054500Y33120253D01*
X7103534Y33001875D01*
X7103538Y33001867D01*
X7146365Y32937774D01*
X7174724Y32895331D01*
X7265331Y32804724D01*
X7328848Y32762283D01*
X7371866Y32733539D01*
X7371870Y32733537D01*
X7371873Y32733535D01*
X7490256Y32684499D01*
X7615931Y32659500D01*
X7615932Y32659500D01*
X7744068Y32659500D01*
X7744069Y32659500D01*
X7869744Y32684499D01*
X7988127Y32733535D01*
X8094669Y32804724D01*
X8185276Y32895331D01*
X8256465Y33001873D01*
X8305501Y33120256D01*
X8330500Y33245931D01*
X15669500Y33245931D01*
X15677461Y33205907D01*
X15694499Y33120258D01*
X15694500Y33120253D01*
X15743534Y33001875D01*
X15743538Y33001867D01*
X15786365Y32937774D01*
X15814724Y32895331D01*
X15905331Y32804724D01*
X15968848Y32762283D01*
X16011866Y32733539D01*
X16011870Y32733537D01*
X16011873Y32733535D01*
X16130256Y32684499D01*
X16255931Y32659500D01*
X16255932Y32659500D01*
X16384068Y32659500D01*
X16384069Y32659500D01*
X16509744Y32684499D01*
X16628127Y32733535D01*
X16734669Y32804724D01*
X16825276Y32895331D01*
X16896465Y33001873D01*
X16945501Y33120256D01*
X16970500Y33245931D01*
X16970500Y33974069D01*
X16945501Y34099744D01*
X16896465Y34218127D01*
X16896463Y34218130D01*
X16896461Y34218134D01*
X16839781Y34302960D01*
X16825276Y34324669D01*
X16734669Y34415276D01*
X16692226Y34443635D01*
X16628133Y34486462D01*
X16628125Y34486466D01*
X16509747Y34535500D01*
X16509745Y34535501D01*
X16509744Y34535501D01*
X16384069Y34560500D01*
X16255931Y34560500D01*
X16255930Y34560500D01*
X16193093Y34548001D01*
X16130256Y34535501D01*
X16130255Y34535501D01*
X16130252Y34535500D01*
X16011874Y34486466D01*
X16011866Y34486462D01*
X15905331Y34415276D01*
X15905327Y34415273D01*
X15814727Y34324673D01*
X15814724Y34324669D01*
X15743538Y34218134D01*
X15743534Y34218126D01*
X15694500Y34099748D01*
X15694499Y34099745D01*
X15694499Y34099744D01*
X15669500Y33974069D01*
X15669500Y33245931D01*
X8330500Y33245931D01*
X8330500Y33974069D01*
X8305501Y34099744D01*
X8256465Y34218127D01*
X8256463Y34218130D01*
X8256461Y34218134D01*
X8199781Y34302960D01*
X8185276Y34324669D01*
X8094669Y34415276D01*
X8052226Y34443635D01*
X7988133Y34486462D01*
X7988125Y34486466D01*
X7869747Y34535500D01*
X7869745Y34535501D01*
X7869744Y34535501D01*
X7744069Y34560500D01*
X7615931Y34560500D01*
X7615930Y34560500D01*
X7553093Y34548001D01*
X7490256Y34535501D01*
X7490255Y34535501D01*
X7490252Y34535500D01*
X7371874Y34486466D01*
X7371866Y34486462D01*
X7265331Y34415276D01*
X7265327Y34415273D01*
X7174727Y34324673D01*
X7174724Y34324669D01*
X7103538Y34218134D01*
X7103534Y34218126D01*
X7054500Y34099748D01*
X7054499Y34099745D01*
X7054499Y34099744D01*
X7029500Y33974069D01*
X7029500Y33245931D01*
X2483664Y33245931D01*
X2384732Y33298812D01*
X2384730Y33298813D01*
X2196129Y33356025D01*
X2196126Y33356026D01*
X2000003Y33375341D01*
X1999997Y33375341D01*
X1803873Y33356026D01*
X1803870Y33356025D01*
X1615269Y33298813D01*
X1615267Y33298812D01*
X1441467Y33205913D01*
X1441457Y33205907D01*
X1289121Y33080888D01*
X1289112Y33080879D01*
X1164093Y32928543D01*
X1164087Y32928533D01*
X1071188Y32754733D01*
X1071187Y32754731D01*
X1013975Y32566130D01*
X1013974Y32566127D01*
X994659Y32370004D01*
X994659Y32369997D01*
X1013974Y32173874D01*
X1013975Y32173871D01*
X1013976Y32173868D01*
X1051996Y32048532D01*
X1071187Y31985270D01*
X1071188Y31985268D01*
X1117907Y31897864D01*
X1164090Y31811462D01*
X1164092Y31811460D01*
X1164093Y31811458D01*
X1289112Y31659122D01*
X1289121Y31659113D01*
X1441457Y31534094D01*
X1441462Y31534090D01*
X1615273Y31441186D01*
X1803868Y31383976D01*
X1803870Y31383976D01*
X1803873Y31383975D01*
X1999997Y31364659D01*
X2000000Y31364659D01*
X2000003Y31364659D01*
X2196126Y31383975D01*
X2196132Y31383976D01*
X2384727Y31441186D01*
X2466717Y31485012D01*
X2526948Y31495767D01*
X2582000Y31469066D01*
X2583388Y31467705D01*
X3016503Y31034591D01*
X3044281Y30980074D01*
X3045500Y30964587D01*
X3045500Y30391653D01*
X3026593Y30333462D01*
X2977093Y30297498D01*
X2915907Y30297498D01*
X2866407Y30333462D01*
X2859190Y30344984D01*
X2835910Y30388538D01*
X2833354Y30391653D01*
X2710887Y30540879D01*
X2710878Y30540888D01*
X2558542Y30665907D01*
X2558540Y30665908D01*
X2558538Y30665910D01*
X2517618Y30687782D01*
X2384732Y30758812D01*
X2384730Y30758813D01*
X2196129Y30816025D01*
X2196126Y30816026D01*
X2000003Y30835341D01*
X1999997Y30835341D01*
X1803873Y30816026D01*
X1803870Y30816025D01*
X1615269Y30758813D01*
X1615267Y30758812D01*
X1441467Y30665913D01*
X1441457Y30665907D01*
X1289121Y30540888D01*
X1289112Y30540879D01*
X1164093Y30388543D01*
X1164087Y30388533D01*
X1071188Y30214733D01*
X1071187Y30214731D01*
X1013975Y30026130D01*
X1013974Y30026127D01*
X994659Y29830004D01*
X994659Y29829997D01*
X1013974Y29633874D01*
X1013975Y29633871D01*
X1024250Y29600000D01*
X1062261Y29474693D01*
X1071187Y29445270D01*
X1071188Y29445268D01*
X1122910Y29348504D01*
X1164090Y29271462D01*
X1164092Y29271460D01*
X1164093Y29271458D01*
X1289112Y29119122D01*
X1289121Y29119113D01*
X1441457Y28994094D01*
X1441462Y28994090D01*
X1519814Y28952210D01*
X1607860Y28905148D01*
X1615273Y28901186D01*
X1803868Y28843976D01*
X1803870Y28843976D01*
X1803873Y28843975D01*
X1999997Y28824659D01*
X2000000Y28824659D01*
X2000003Y28824659D01*
X2196126Y28843975D01*
X2196127Y28843976D01*
X2196132Y28843976D01*
X2384727Y28901186D01*
X2558538Y28994090D01*
X2710883Y29119117D01*
X2835910Y29271462D01*
X2859190Y29315017D01*
X2903295Y29357423D01*
X2963904Y29365806D01*
X3017864Y29336964D01*
X3044566Y29281912D01*
X3045500Y29268348D01*
X3045500Y27851653D01*
X3026593Y27793462D01*
X2977093Y27757498D01*
X2915907Y27757498D01*
X2866407Y27793462D01*
X2859190Y27804984D01*
X2853293Y27816017D01*
X2835910Y27848538D01*
X2812041Y27877622D01*
X2710887Y28000879D01*
X2710878Y28000888D01*
X2558542Y28125907D01*
X2558540Y28125908D01*
X2558538Y28125910D01*
X2481148Y28167276D01*
X2384732Y28218812D01*
X2384730Y28218813D01*
X2196129Y28276025D01*
X2196126Y28276026D01*
X2000003Y28295341D01*
X1999997Y28295341D01*
X1803873Y28276026D01*
X1803870Y28276025D01*
X1615269Y28218813D01*
X1615267Y28218812D01*
X1441467Y28125913D01*
X1441457Y28125907D01*
X1289121Y28000888D01*
X1289112Y28000879D01*
X1164093Y27848543D01*
X1164087Y27848533D01*
X1071188Y27674733D01*
X1071187Y27674731D01*
X1013975Y27486130D01*
X1013974Y27486127D01*
X994659Y27290004D01*
X994659Y27289997D01*
X1013974Y27093874D01*
X1013975Y27093871D01*
X1071187Y26905270D01*
X1071188Y26905268D01*
X1114587Y26824075D01*
X1164090Y26731462D01*
X1164092Y26731460D01*
X1164093Y26731458D01*
X1289112Y26579122D01*
X1289121Y26579113D01*
X1419317Y26472264D01*
X1441462Y26454090D01*
X1552741Y26394610D01*
X1607222Y26365489D01*
X1615273Y26361186D01*
X1803868Y26303976D01*
X1803870Y26303976D01*
X1803873Y26303975D01*
X1999997Y26284659D01*
X2000000Y26284659D01*
X2000003Y26284659D01*
X2196126Y26303975D01*
X2196127Y26303976D01*
X2196132Y26303976D01*
X2384727Y26361186D01*
X2558538Y26454090D01*
X2710883Y26579117D01*
X2835910Y26731462D01*
X2859190Y26775017D01*
X2903295Y26817423D01*
X2963904Y26825806D01*
X3017864Y26796964D01*
X3044566Y26741912D01*
X3045500Y26728348D01*
X3045500Y25311653D01*
X3026593Y25253462D01*
X2977093Y25217498D01*
X2915907Y25217498D01*
X2866407Y25253462D01*
X2859190Y25264984D01*
X2857093Y25268907D01*
X2835910Y25308538D01*
X2790058Y25364409D01*
X2710887Y25460879D01*
X2710878Y25460888D01*
X2558542Y25585907D01*
X2558540Y25585908D01*
X2558538Y25585910D01*
X2457665Y25639828D01*
X2384732Y25678812D01*
X2384730Y25678813D01*
X2368547Y25683722D01*
X2222419Y25728050D01*
X2196129Y25736025D01*
X2196126Y25736026D01*
X2000003Y25755341D01*
X1999997Y25755341D01*
X1803873Y25736026D01*
X1803870Y25736025D01*
X1615269Y25678813D01*
X1615267Y25678812D01*
X1441467Y25585913D01*
X1441457Y25585907D01*
X1289121Y25460888D01*
X1289112Y25460879D01*
X1164093Y25308543D01*
X1164087Y25308533D01*
X1071188Y25134733D01*
X1071187Y25134731D01*
X1013975Y24946130D01*
X1013974Y24946127D01*
X994659Y24750004D01*
X994659Y24749997D01*
X1013974Y24553874D01*
X1013975Y24553871D01*
X1013976Y24553868D01*
X1062737Y24393124D01*
X1071187Y24365270D01*
X1071188Y24365268D01*
X1115037Y24283233D01*
X1164090Y24191462D01*
X1164092Y24191460D01*
X1164093Y24191458D01*
X1289112Y24039122D01*
X1289121Y24039113D01*
X1418543Y23932899D01*
X1441462Y23914090D01*
X1615273Y23821186D01*
X1803868Y23763976D01*
X1803870Y23763976D01*
X1803873Y23763975D01*
X1999997Y23744659D01*
X2000000Y23744659D01*
X2000003Y23744659D01*
X2196126Y23763975D01*
X2196127Y23763976D01*
X2196132Y23763976D01*
X2384727Y23821186D01*
X2558538Y23914090D01*
X2710883Y24039117D01*
X2835910Y24191462D01*
X2859190Y24235017D01*
X2903295Y24277423D01*
X2963904Y24285806D01*
X3017864Y24256964D01*
X3044566Y24201912D01*
X3045500Y24188348D01*
X3045500Y22771653D01*
X3026593Y22713462D01*
X2977093Y22677498D01*
X2915907Y22677498D01*
X2866407Y22713462D01*
X2859190Y22724984D01*
X2835910Y22768538D01*
X2801641Y22810295D01*
X2710887Y22920879D01*
X2710878Y22920888D01*
X2558542Y23045907D01*
X2558540Y23045908D01*
X2558538Y23045910D01*
X2482592Y23086504D01*
X2384732Y23138812D01*
X2384730Y23138813D01*
X2366457Y23144356D01*
X2196132Y23196024D01*
X2196129Y23196025D01*
X2196126Y23196026D01*
X2000003Y23215341D01*
X1999997Y23215341D01*
X1803873Y23196026D01*
X1803870Y23196025D01*
X1615269Y23138813D01*
X1615267Y23138812D01*
X1441467Y23045913D01*
X1441457Y23045907D01*
X1289121Y22920888D01*
X1289112Y22920879D01*
X1164093Y22768543D01*
X1164087Y22768533D01*
X1071188Y22594733D01*
X1071187Y22594731D01*
X1013975Y22406130D01*
X1013974Y22406127D01*
X994659Y22210004D01*
X994659Y22209997D01*
X1013974Y22013874D01*
X1013975Y22013871D01*
X1071187Y21825270D01*
X1071188Y21825268D01*
X1129078Y21716964D01*
X1164090Y21651462D01*
X1164092Y21651460D01*
X1164093Y21651458D01*
X1289112Y21499122D01*
X1289121Y21499113D01*
X1441457Y21374094D01*
X1441462Y21374090D01*
X1574353Y21303058D01*
X1599892Y21289407D01*
X1615273Y21281186D01*
X1803868Y21223976D01*
X1803870Y21223976D01*
X1803873Y21223975D01*
X1999997Y21204659D01*
X2000000Y21204659D01*
X2000003Y21204659D01*
X2196126Y21223975D01*
X2196127Y21223976D01*
X2196132Y21223976D01*
X2384727Y21281186D01*
X2558538Y21374090D01*
X2710883Y21499117D01*
X2835910Y21651462D01*
X2859190Y21695017D01*
X2903295Y21737423D01*
X2963904Y21745806D01*
X3017864Y21716964D01*
X3044566Y21661912D01*
X3045500Y21648348D01*
X3045500Y20231653D01*
X3026593Y20173462D01*
X2977093Y20137498D01*
X2915907Y20137498D01*
X2866407Y20173462D01*
X2859190Y20184984D01*
X2835910Y20228538D01*
X2833354Y20231653D01*
X2710887Y20380879D01*
X2710878Y20380888D01*
X2558542Y20505907D01*
X2558540Y20505908D01*
X2558538Y20505910D01*
X2464280Y20556292D01*
X2384732Y20598812D01*
X2384730Y20598813D01*
X2196129Y20656025D01*
X2196126Y20656026D01*
X2000003Y20675341D01*
X1999997Y20675341D01*
X1803873Y20656026D01*
X1803870Y20656025D01*
X1615269Y20598813D01*
X1615267Y20598812D01*
X1441467Y20505913D01*
X1441457Y20505907D01*
X1289121Y20380888D01*
X1289112Y20380879D01*
X1164093Y20228543D01*
X1164087Y20228533D01*
X1071188Y20054733D01*
X1071187Y20054731D01*
X1013975Y19866130D01*
X1013974Y19866127D01*
X994659Y19670004D01*
X994659Y19669997D01*
X1013974Y19473874D01*
X1013975Y19473871D01*
X1071187Y19285270D01*
X1071188Y19285268D01*
X1116765Y19200000D01*
X1164090Y19111462D01*
X1164092Y19111460D01*
X1164093Y19111458D01*
X1289112Y18959122D01*
X1289121Y18959113D01*
X1426316Y18846520D01*
X1441462Y18834090D01*
X1615273Y18741186D01*
X1803868Y18683976D01*
X1803870Y18683976D01*
X1803873Y18683975D01*
X1999997Y18664659D01*
X2000000Y18664659D01*
X2000003Y18664659D01*
X2196126Y18683975D01*
X2196132Y18683976D01*
X2384727Y18741186D01*
X2466719Y18785013D01*
X2526949Y18795769D01*
X2582001Y18769067D01*
X2583297Y18767797D01*
X2875505Y18475590D01*
X2903281Y18421075D01*
X2904500Y18405588D01*
X2904500Y17881648D01*
X2885593Y17823457D01*
X2836093Y17787493D01*
X2774907Y17787493D01*
X2728973Y17818842D01*
X2710888Y17840878D01*
X2710878Y17840888D01*
X2558542Y17965907D01*
X2558540Y17965908D01*
X2558538Y17965910D01*
X2483709Y18005907D01*
X2384732Y18058812D01*
X2384730Y18058813D01*
X2382465Y18059500D01*
X2196132Y18116024D01*
X2196129Y18116025D01*
X2196126Y18116026D01*
X2000003Y18135341D01*
X1999997Y18135341D01*
X1803873Y18116026D01*
X1803870Y18116025D01*
X1615269Y18058813D01*
X1615267Y18058812D01*
X1441467Y17965913D01*
X1441457Y17965907D01*
X1289121Y17840888D01*
X1289112Y17840879D01*
X1164093Y17688543D01*
X1164087Y17688533D01*
X1071188Y17514733D01*
X1071187Y17514731D01*
X1013975Y17326130D01*
X1013974Y17326127D01*
X994659Y17130004D01*
X994659Y17129997D01*
X1013974Y16933874D01*
X1013975Y16933871D01*
X1013976Y16933868D01*
X1058774Y16786188D01*
X1071187Y16745270D01*
X1071188Y16745268D01*
X1140656Y16615304D01*
X1164090Y16571462D01*
X1164092Y16571460D01*
X1164093Y16571458D01*
X1289112Y16419122D01*
X1289121Y16419113D01*
X1423901Y16308502D01*
X1441462Y16294090D01*
X1566277Y16227375D01*
X1613613Y16202073D01*
X1615273Y16201186D01*
X1803868Y16143976D01*
X1803870Y16143976D01*
X1803873Y16143975D01*
X1999997Y16124659D01*
X2000000Y16124659D01*
X2000003Y16124659D01*
X2196126Y16143975D01*
X2196127Y16143976D01*
X2196132Y16143976D01*
X2384727Y16201186D01*
X2466717Y16245012D01*
X2526950Y16255767D01*
X2582001Y16229066D01*
X2583390Y16227705D01*
X4416591Y14394504D01*
X4444368Y14339987D01*
X4434797Y14279555D01*
X4391532Y14236290D01*
X4346587Y14225500D01*
X3444413Y14225500D01*
X3386222Y14244407D01*
X3374409Y14254496D01*
X3026721Y14602184D01*
X2998944Y14656701D01*
X2998202Y14662485D01*
X2986025Y14786127D01*
X2986024Y14786130D01*
X2986024Y14786132D01*
X2928814Y14974727D01*
X2835910Y15148538D01*
X2736436Y15269747D01*
X2710887Y15300879D01*
X2710878Y15300888D01*
X2558542Y15425907D01*
X2558540Y15425908D01*
X2558538Y15425910D01*
X2472742Y15471769D01*
X2384732Y15518812D01*
X2384730Y15518813D01*
X2347014Y15530254D01*
X2196132Y15576024D01*
X2196129Y15576025D01*
X2196126Y15576026D01*
X2000003Y15595341D01*
X1999997Y15595341D01*
X1803873Y15576026D01*
X1803870Y15576025D01*
X1615269Y15518813D01*
X1615267Y15518812D01*
X1441467Y15425913D01*
X1441457Y15425907D01*
X1289121Y15300888D01*
X1289112Y15300879D01*
X1164093Y15148543D01*
X1164087Y15148533D01*
X1071188Y14974733D01*
X1071187Y14974731D01*
X1013975Y14786130D01*
X1013974Y14786127D01*
X994659Y14590004D01*
X994659Y14589997D01*
X1013974Y14393874D01*
X1013975Y14393871D01*
X1013976Y14393868D01*
X1056100Y14255003D01*
X1071187Y14205270D01*
X1071188Y14205268D01*
X1120994Y14112089D01*
X1164090Y14031462D01*
X1164092Y14031460D01*
X1164093Y14031458D01*
X1289112Y13879122D01*
X1289121Y13879113D01*
X1441457Y13754094D01*
X1441462Y13754090D01*
X1615273Y13661186D01*
X1803868Y13603976D01*
X1803870Y13603976D01*
X1803873Y13603975D01*
X1999997Y13584659D01*
X2000000Y13584659D01*
X2000003Y13584659D01*
X2196126Y13603975D01*
X2196127Y13603976D01*
X2196132Y13603976D01*
X2384727Y13661186D01*
X2558538Y13754090D01*
X2710883Y13879117D01*
X2710887Y13879123D01*
X2710891Y13879126D01*
X2822383Y14014980D01*
X2873914Y14047968D01*
X2934993Y14044367D01*
X2968915Y14022180D01*
X3118829Y13872266D01*
X3118829Y13872265D01*
X3182261Y13808832D01*
X3182262Y13808832D01*
X3182264Y13808830D01*
X3202373Y13800501D01*
X3202374Y13800500D01*
X3213907Y13795723D01*
X3265145Y13774499D01*
X3265146Y13774499D01*
X3366378Y13774499D01*
X3366386Y13774500D01*
X3779101Y13774500D01*
X3837292Y13755593D01*
X3873256Y13706093D01*
X3873256Y13644907D01*
X3849106Y13605499D01*
X3824108Y13580500D01*
X3801949Y13558341D01*
X3744355Y13445308D01*
X3744354Y13445304D01*
X3724508Y13320001D01*
X3724508Y13320000D01*
X3744354Y13194697D01*
X3744355Y13194693D01*
X3777189Y13130254D01*
X3801950Y13081658D01*
X3891658Y12991950D01*
X4004696Y12934354D01*
X4130000Y12914508D01*
X4255304Y12934354D01*
X4368342Y12991950D01*
X4397620Y13021228D01*
X4426897Y13050504D01*
X4481414Y13078281D01*
X4496900Y13079500D01*
X4503478Y13079500D01*
X4561669Y13060593D01*
X4594042Y13020489D01*
X4601374Y13003885D01*
X4606187Y12992984D01*
X4682984Y12916187D01*
X4782338Y12872318D01*
X4806627Y12869500D01*
X5173372Y12869501D01*
X5197662Y12872318D01*
X5297016Y12916187D01*
X5368580Y12987752D01*
X5423094Y13015528D01*
X5483526Y13005957D01*
X5521158Y12968326D01*
X5522224Y12969071D01*
X5526453Y12963031D01*
X5526791Y12962693D01*
X5527023Y12962217D01*
X5527189Y12961980D01*
X5611978Y12877191D01*
X5720638Y12826522D01*
X5720645Y12826520D01*
X5770161Y12820000D01*
X5799999Y12820000D01*
X5800000Y12820001D01*
X6100000Y12820001D01*
X6100001Y12820000D01*
X6129838Y12820000D01*
X6179354Y12826520D01*
X6179361Y12826522D01*
X6288021Y12877191D01*
X6372809Y12961979D01*
X6423478Y13070639D01*
X6423480Y13070646D01*
X6430000Y13120162D01*
X6430000Y13179999D01*
X6429999Y13180000D01*
X6100001Y13180000D01*
X6100000Y13179999D01*
X6100000Y12820001D01*
X5800000Y12820001D01*
X5800000Y13381000D01*
X5818907Y13439191D01*
X5868407Y13475155D01*
X5899000Y13480000D01*
X6429999Y13480000D01*
X6430000Y13480001D01*
X6430000Y13539839D01*
X6423480Y13589355D01*
X6423479Y13589359D01*
X6402821Y13633660D01*
X6395364Y13694389D01*
X6425027Y13747903D01*
X6480479Y13773762D01*
X6492545Y13774500D01*
X7124236Y13774500D01*
X7182427Y13755593D01*
X7197948Y13734230D01*
X7200344Y13736195D01*
X7230049Y13700000D01*
X8494951Y13700000D01*
X8494951Y13700001D01*
X8485495Y13747545D01*
X8453304Y13795723D01*
X8436696Y13854611D01*
X8438523Y13870039D01*
X8450498Y13930242D01*
X8450500Y13930254D01*
X8450500Y14069747D01*
X8450498Y14069759D01*
X8447711Y14083769D01*
X8438867Y14128231D01*
X8427663Y14144998D01*
X8411054Y14203885D01*
X8427664Y14255003D01*
X8438867Y14271769D01*
X8450500Y14330252D01*
X8450500Y14469748D01*
X8438867Y14528231D01*
X8427663Y14544998D01*
X8411054Y14603885D01*
X8427664Y14655003D01*
X8438867Y14671769D01*
X8450500Y14730252D01*
X8450500Y14869748D01*
X8438867Y14928231D01*
X8427663Y14944998D01*
X8411054Y15003885D01*
X8427664Y15055003D01*
X8438867Y15071769D01*
X8450500Y15130252D01*
X8450500Y15269748D01*
X8438867Y15328231D01*
X8427663Y15344998D01*
X8411054Y15403885D01*
X8427664Y15455003D01*
X8438867Y15471769D01*
X8450500Y15530252D01*
X8450500Y15669748D01*
X8438867Y15728231D01*
X8427663Y15744998D01*
X8411054Y15803885D01*
X8427664Y15855003D01*
X8438867Y15871769D01*
X8450500Y15930252D01*
X8450500Y16069748D01*
X8438867Y16128231D01*
X8427663Y16144998D01*
X8411054Y16203885D01*
X8427664Y16255003D01*
X8427985Y16255483D01*
X8438867Y16271769D01*
X8450500Y16330252D01*
X8450500Y16469748D01*
X8438867Y16528231D01*
X8427663Y16544998D01*
X8411054Y16603885D01*
X8427664Y16655003D01*
X8432726Y16662579D01*
X8438867Y16671769D01*
X8450500Y16730252D01*
X8450500Y16869748D01*
X8450499Y16869754D01*
X8450499Y16869756D01*
X8443950Y16902675D01*
X8438867Y16928231D01*
X8438865Y16928233D01*
X8438522Y16929961D01*
X8445712Y16990722D01*
X8453304Y17004280D01*
X8485495Y17052457D01*
X8494952Y17100000D01*
X7230048Y17100000D01*
X7225574Y17094548D01*
X7174042Y17061561D01*
X7112963Y17065163D01*
X7079044Y17087348D01*
X7028342Y17138050D01*
X6959451Y17173152D01*
X6916187Y17216417D01*
X6906616Y17276849D01*
X6911643Y17293291D01*
X6911361Y17293373D01*
X6913292Y17300001D01*
X7230048Y17300001D01*
X7230049Y17300000D01*
X7762499Y17300000D01*
X7762500Y17300001D01*
X7762500Y17499999D01*
X7762499Y17500000D01*
X7450375Y17500000D01*
X7377453Y17485494D01*
X7377451Y17485493D01*
X7294762Y17430242D01*
X7294758Y17430238D01*
X7239504Y17347546D01*
X7230048Y17300001D01*
X6913292Y17300001D01*
X6913480Y17300646D01*
X6920000Y17350162D01*
X6920000Y17379999D01*
X6919999Y17380000D01*
X5900001Y17380000D01*
X5884457Y17364456D01*
X5829940Y17336679D01*
X5769508Y17346250D01*
X5744449Y17364456D01*
X5428904Y17680001D01*
X5900000Y17680001D01*
X5900001Y17680000D01*
X6919999Y17680000D01*
X6920000Y17680001D01*
X6920000Y17709839D01*
X6913480Y17759355D01*
X6913478Y17759362D01*
X6862809Y17868022D01*
X6778020Y17952811D01*
X6770929Y17957776D01*
X6772098Y17959447D01*
X6735666Y17993421D01*
X6723991Y18053482D01*
X6749849Y18108935D01*
X6752222Y18111394D01*
X6823813Y18182984D01*
X6867682Y18282338D01*
X6870500Y18306627D01*
X6870499Y18673372D01*
X6867682Y18697662D01*
X6823813Y18797016D01*
X6747016Y18873813D01*
X6747014Y18873814D01*
X6747013Y18873815D01*
X6721883Y18884911D01*
X6676288Y18925713D01*
X6663384Y18985522D01*
X6688099Y19041493D01*
X6691852Y19045461D01*
X6738050Y19091658D01*
X6795646Y19204696D01*
X6815492Y19330000D01*
X6795646Y19455304D01*
X6738050Y19568342D01*
X6648342Y19658050D01*
X6594459Y19685505D01*
X6535307Y19715645D01*
X6535304Y19715646D01*
X6410000Y19735492D01*
X6284696Y19715646D01*
X6284692Y19715645D01*
X6171659Y19658051D01*
X6081949Y19568341D01*
X6024355Y19455308D01*
X6024354Y19455304D01*
X6010158Y19365670D01*
X6004508Y19330000D01*
X6011592Y19285270D01*
X6024354Y19204697D01*
X6024355Y19204693D01*
X6065048Y19124829D01*
X6081950Y19091658D01*
X6128131Y19045477D01*
X6155907Y18990962D01*
X6146336Y18930530D01*
X6103071Y18887265D01*
X6098117Y18884912D01*
X6072987Y18873816D01*
X5996187Y18797016D01*
X5952317Y18697660D01*
X5949500Y18673378D01*
X5949500Y18306631D01*
X5949501Y18306628D01*
X5952317Y18282339D01*
X5966108Y18251107D01*
X5996187Y18182984D01*
X6067751Y18111420D01*
X6095527Y18056905D01*
X6085956Y17996473D01*
X6048324Y17958842D01*
X6049071Y17957776D01*
X6043026Y17953544D01*
X6042691Y17953208D01*
X6042217Y17952977D01*
X6041979Y17952811D01*
X5957190Y17868022D01*
X5906521Y17759362D01*
X5906519Y17759355D01*
X5900000Y17709839D01*
X5900000Y17680001D01*
X5428904Y17680001D01*
X3525496Y19583409D01*
X3497719Y19637926D01*
X3496500Y19653413D01*
X3496500Y20778850D01*
X3515407Y20837041D01*
X3564907Y20873005D01*
X3626093Y20873005D01*
X3665504Y20848853D01*
X4145447Y20368909D01*
X4145448Y20368909D01*
X4151091Y20363266D01*
X4151092Y20363264D01*
X4214526Y20299830D01*
X4214527Y20299830D01*
X4214528Y20299829D01*
X4238800Y20289775D01*
X4238801Y20289775D01*
X4297407Y20265499D01*
X4297408Y20265499D01*
X4398640Y20265499D01*
X4398648Y20265500D01*
X4767477Y20265500D01*
X4825668Y20246593D01*
X4861632Y20197093D01*
X4865258Y20151013D01*
X4845207Y20024413D01*
X4844508Y20020000D01*
X4863551Y19899763D01*
X4864354Y19894697D01*
X4864355Y19894693D01*
X4908690Y19807682D01*
X4921950Y19781658D01*
X5011658Y19691950D01*
X5124696Y19634354D01*
X5250000Y19614508D01*
X5375304Y19634354D01*
X5488342Y19691950D01*
X5578050Y19781658D01*
X5635646Y19894696D01*
X5655492Y20020000D01*
X5654793Y20024413D01*
X5634742Y20151013D01*
X5644313Y20211445D01*
X5687578Y20254710D01*
X5732523Y20265500D01*
X6615587Y20265500D01*
X6673778Y20246593D01*
X6685590Y20236505D01*
X8420505Y18501589D01*
X8448281Y18447074D01*
X8449500Y18431587D01*
X8449500Y17630252D01*
X8454045Y17607401D01*
X8454775Y17603734D01*
X8447583Y17542972D01*
X8406051Y17498042D01*
X8346041Y17486105D01*
X8338362Y17487321D01*
X8274624Y17500000D01*
X7962501Y17500000D01*
X7962500Y17499999D01*
X7962500Y17300001D01*
X7962501Y17300000D01*
X8494951Y17300000D01*
X8494951Y17300001D01*
X8487321Y17338365D01*
X8494513Y17399126D01*
X8536046Y17444056D01*
X8596056Y17455992D01*
X8603716Y17454779D01*
X8630252Y17449500D01*
X8630253Y17449500D01*
X8769747Y17449500D01*
X8769748Y17449500D01*
X8828231Y17461133D01*
X8844997Y17472337D01*
X8903885Y17488946D01*
X8955002Y17472337D01*
X8971769Y17461133D01*
X9016231Y17452289D01*
X9030241Y17449502D01*
X9030246Y17449502D01*
X9030252Y17449500D01*
X9030253Y17449500D01*
X9169747Y17449500D01*
X9169748Y17449500D01*
X9228231Y17461133D01*
X9244997Y17472337D01*
X9303885Y17488946D01*
X9355002Y17472337D01*
X9371769Y17461133D01*
X9416231Y17452289D01*
X9430241Y17449502D01*
X9430246Y17449502D01*
X9430252Y17449500D01*
X9430253Y17449500D01*
X9569747Y17449500D01*
X9569748Y17449500D01*
X9628231Y17461133D01*
X9644997Y17472337D01*
X9703885Y17488946D01*
X9755002Y17472337D01*
X9771769Y17461133D01*
X9816231Y17452289D01*
X9830241Y17449502D01*
X9830246Y17449502D01*
X9830252Y17449500D01*
X9830253Y17449500D01*
X9969747Y17449500D01*
X9969748Y17449500D01*
X10028231Y17461133D01*
X10044997Y17472337D01*
X10103885Y17488946D01*
X10155002Y17472337D01*
X10171769Y17461133D01*
X10216231Y17452289D01*
X10230241Y17449502D01*
X10230246Y17449502D01*
X10230252Y17449500D01*
X10230253Y17449500D01*
X10369747Y17449500D01*
X10369748Y17449500D01*
X10428231Y17461133D01*
X10444997Y17472337D01*
X10503885Y17488946D01*
X10555002Y17472337D01*
X10571769Y17461133D01*
X10616231Y17452289D01*
X10630241Y17449502D01*
X10630246Y17449502D01*
X10630252Y17449500D01*
X10630253Y17449500D01*
X10769747Y17449500D01*
X10769748Y17449500D01*
X10769748Y17449501D01*
X10774592Y17449977D01*
X10774837Y17447484D01*
X10826017Y17441505D01*
X10871010Y17400040D01*
X10876169Y17389423D01*
X10887633Y17361747D01*
X10887635Y17361745D01*
X10887636Y17361743D01*
X11161743Y17087636D01*
X11161744Y17087636D01*
X11161745Y17087635D01*
X11253811Y17049500D01*
X11253812Y17049500D01*
X11353467Y17049500D01*
X12775231Y17049500D01*
X12833422Y17030593D01*
X12845235Y17020504D01*
X13680504Y16185235D01*
X13708281Y16130718D01*
X13709500Y16115231D01*
X13709500Y12904769D01*
X13690593Y12846578D01*
X13680504Y12834765D01*
X13275235Y12429496D01*
X13220718Y12401719D01*
X13205231Y12400500D01*
X12303811Y12400500D01*
X12211743Y12362365D01*
X12141275Y12291898D01*
X12141276Y12291897D01*
X12141275Y12291896D01*
X11758103Y11908725D01*
X11758103Y11908724D01*
X11758102Y11908725D01*
X11680742Y11831363D01*
X11679558Y11832547D01*
X11640511Y11801767D01*
X11604886Y11798965D01*
X11600000Y11794954D01*
X11600000Y10530049D01*
X11605901Y10525205D01*
X11647696Y10520258D01*
X11679877Y10492774D01*
X11680742Y10493638D01*
X11687635Y10486745D01*
X11687636Y10486743D01*
X12329071Y9845308D01*
X12972201Y9202178D01*
X12999978Y9147661D01*
X12990407Y9087229D01*
X12968026Y9061743D01*
X12969470Y9060299D01*
X12909816Y9000646D01*
X12855299Y8972869D01*
X12794867Y8982441D01*
X12770585Y9003553D01*
X12768932Y9001899D01*
X12678021Y9092810D01*
X12569361Y9143479D01*
X12569354Y9143481D01*
X12519839Y9150000D01*
X12460001Y9150000D01*
X12460000Y9149999D01*
X12460000Y8619000D01*
X12441093Y8560809D01*
X12391593Y8524845D01*
X12361000Y8520000D01*
X12259000Y8520000D01*
X12200809Y8538907D01*
X12164845Y8588407D01*
X12160000Y8619000D01*
X12160000Y9149999D01*
X12159999Y9150000D01*
X12100161Y9150000D01*
X12050645Y9143481D01*
X12050638Y9143479D01*
X11941978Y9092810D01*
X11851068Y9001899D01*
X11849755Y9003212D01*
X11809487Y8972879D01*
X11748311Y8971822D01*
X11707271Y8996486D01*
X11649141Y9054616D01*
X11649139Y9054617D01*
X11584511Y9083154D01*
X11538916Y9123955D01*
X11525500Y9173718D01*
X11525500Y10113614D01*
X11525501Y10113623D01*
X11525501Y10214854D01*
X11504462Y10265646D01*
X11504462Y10265647D01*
X11491171Y10297734D01*
X11491170Y10297735D01*
X11491170Y10297736D01*
X11427736Y10361170D01*
X11427734Y10361171D01*
X11399714Y10389191D01*
X11371937Y10443708D01*
X11381508Y10504140D01*
X11400000Y10527128D01*
X11400000Y11794954D01*
X11352458Y11785496D01*
X11352456Y11785496D01*
X11304278Y11753304D01*
X11245389Y11736696D01*
X11229962Y11738522D01*
X11228232Y11738867D01*
X11228231Y11738867D01*
X11169748Y11750500D01*
X11030252Y11750500D01*
X11030251Y11750500D01*
X11030241Y11750499D01*
X10971772Y11738868D01*
X10971767Y11738866D01*
X10955001Y11727663D01*
X10896113Y11711055D01*
X10844999Y11727663D01*
X10828232Y11738866D01*
X10828233Y11738866D01*
X10828231Y11738867D01*
X10828228Y11738868D01*
X10828227Y11738868D01*
X10769758Y11750499D01*
X10769748Y11750500D01*
X10649500Y11750500D01*
X10591309Y11769407D01*
X10555345Y11818907D01*
X10550500Y11849500D01*
X10550500Y12750500D01*
X10569407Y12808691D01*
X10618907Y12844655D01*
X10649500Y12849500D01*
X12914819Y12849500D01*
X12914820Y12849500D01*
X12914821Y12849501D01*
X12914827Y12849501D01*
X12936623Y12853838D01*
X12958722Y12858233D01*
X13008504Y12891496D01*
X13041767Y12941278D01*
X13047296Y12969071D01*
X13050499Y12985173D01*
X13050500Y12985182D01*
X13050500Y16214819D01*
X13050499Y16214828D01*
X13041767Y16258721D01*
X13041765Y16258725D01*
X13033047Y16271773D01*
X13008504Y16308504D01*
X12975953Y16330254D01*
X12958724Y16341766D01*
X12958720Y16341768D01*
X12914827Y16350500D01*
X12914820Y16350500D01*
X9685180Y16350500D01*
X9685172Y16350500D01*
X9641279Y16341768D01*
X9641275Y16341766D01*
X9591498Y16308506D01*
X9591494Y16308502D01*
X9558234Y16258725D01*
X9558232Y16258721D01*
X9549500Y16214828D01*
X9549500Y12985173D01*
X9558232Y12941280D01*
X9558234Y12941276D01*
X9574997Y12916188D01*
X9591496Y12891496D01*
X9641278Y12858233D01*
X9652327Y12856036D01*
X9685172Y12849501D01*
X9685178Y12849501D01*
X9685180Y12849500D01*
X9950500Y12849500D01*
X10008691Y12830593D01*
X10044655Y12781093D01*
X10049500Y12750500D01*
X10049500Y11849500D01*
X10030593Y11791309D01*
X9981093Y11755345D01*
X9950500Y11750500D01*
X9830252Y11750500D01*
X9830251Y11750500D01*
X9830241Y11750499D01*
X9771772Y11738868D01*
X9771767Y11738866D01*
X9755001Y11727663D01*
X9696113Y11711055D01*
X9644999Y11727663D01*
X9628232Y11738866D01*
X9628233Y11738866D01*
X9628231Y11738867D01*
X9628228Y11738868D01*
X9628227Y11738868D01*
X9569758Y11750499D01*
X9569748Y11750500D01*
X9430252Y11750500D01*
X9430251Y11750500D01*
X9430241Y11750499D01*
X9371772Y11738868D01*
X9371767Y11738866D01*
X9355001Y11727663D01*
X9296113Y11711055D01*
X9244999Y11727663D01*
X9228232Y11738866D01*
X9228233Y11738866D01*
X9228231Y11738867D01*
X9228228Y11738868D01*
X9228227Y11738868D01*
X9169758Y11750499D01*
X9169748Y11750500D01*
X9030252Y11750500D01*
X9030251Y11750500D01*
X9030241Y11750499D01*
X8971772Y11738868D01*
X8971767Y11738866D01*
X8955001Y11727663D01*
X8896113Y11711055D01*
X8844999Y11727663D01*
X8828232Y11738866D01*
X8828233Y11738866D01*
X8828231Y11738867D01*
X8828228Y11738868D01*
X8828227Y11738868D01*
X8769758Y11750499D01*
X8769748Y11750500D01*
X8630252Y11750500D01*
X8630251Y11750500D01*
X8630241Y11750499D01*
X8571769Y11738868D01*
X8565699Y11736353D01*
X8504702Y11731555D01*
X8452535Y11763527D01*
X8429123Y11820056D01*
X8436355Y11865708D01*
X8438862Y11871762D01*
X8438867Y11871769D01*
X8450500Y11930252D01*
X8450500Y12069748D01*
X8438867Y12128231D01*
X8427663Y12144999D01*
X8411054Y12203885D01*
X8427664Y12255003D01*
X8438867Y12271769D01*
X8450500Y12330252D01*
X8450500Y12469748D01*
X8438867Y12528231D01*
X8427663Y12544998D01*
X8411054Y12603885D01*
X8427664Y12655003D01*
X8438867Y12671769D01*
X8450500Y12730252D01*
X8450500Y12869748D01*
X8449019Y12877191D01*
X8443534Y12904769D01*
X8438867Y12928231D01*
X8427663Y12944998D01*
X8411054Y13003885D01*
X8427664Y13055003D01*
X8431399Y13060593D01*
X8438867Y13071769D01*
X8450500Y13130252D01*
X8450500Y13269748D01*
X8450499Y13269750D01*
X8450499Y13269756D01*
X8440504Y13320000D01*
X8438867Y13328231D01*
X8438865Y13328233D01*
X8438522Y13329961D01*
X8445712Y13390722D01*
X8453304Y13404280D01*
X8485495Y13452457D01*
X8494952Y13500000D01*
X7230048Y13500000D01*
X7238810Y13455945D01*
X7231617Y13395184D01*
X7211716Y13366630D01*
X7172824Y13327737D01*
X7172824Y13327736D01*
X7172823Y13327735D01*
X6653780Y12808691D01*
X6149585Y12304496D01*
X6095068Y12276719D01*
X6079581Y12275500D01*
X3050538Y12275500D01*
X2992347Y12294407D01*
X2956383Y12343907D01*
X2955801Y12345762D01*
X2950765Y12362364D01*
X2928814Y12434727D01*
X2918505Y12454013D01*
X2906942Y12475647D01*
X2835910Y12608538D01*
X2820989Y12626719D01*
X2710887Y12760879D01*
X2710878Y12760888D01*
X2558542Y12885907D01*
X2558540Y12885908D01*
X2558538Y12885910D01*
X2454952Y12941278D01*
X2384732Y12978812D01*
X2384730Y12978813D01*
X2363734Y12985182D01*
X2196132Y13036024D01*
X2196129Y13036025D01*
X2196126Y13036026D01*
X2000003Y13055341D01*
X1999997Y13055341D01*
X1803873Y13036026D01*
X1803870Y13036025D01*
X1615269Y12978813D01*
X1615267Y12978812D01*
X1441467Y12885913D01*
X1441457Y12885907D01*
X1289121Y12760888D01*
X1289112Y12760879D01*
X1164093Y12608543D01*
X1164087Y12608533D01*
X1071188Y12434733D01*
X1071187Y12434731D01*
X1013975Y12246130D01*
X1013974Y12246127D01*
X994659Y12050004D01*
X994659Y12049997D01*
X1013974Y11853874D01*
X1013975Y11853871D01*
X1024233Y11820056D01*
X1064777Y11686399D01*
X1071187Y11665270D01*
X1071188Y11665268D01*
X1122239Y11569759D01*
X1164090Y11491462D01*
X1164092Y11491460D01*
X1164093Y11491458D01*
X1289112Y11339122D01*
X1289121Y11339113D01*
X1441457Y11214094D01*
X1441462Y11214090D01*
X1615273Y11121186D01*
X1803868Y11063976D01*
X1803870Y11063976D01*
X1803873Y11063975D01*
X1999997Y11044659D01*
X2000000Y11044659D01*
X2000003Y11044659D01*
X2196126Y11063975D01*
X2196127Y11063976D01*
X2196132Y11063976D01*
X2384727Y11121186D01*
X2558538Y11214090D01*
X2710883Y11339117D01*
X2835910Y11491462D01*
X2928814Y11665273D01*
X2955801Y11754239D01*
X2990786Y11804435D01*
X3048594Y11824481D01*
X3050538Y11824500D01*
X5830581Y11824500D01*
X5888772Y11805593D01*
X5924736Y11756093D01*
X5924736Y11694907D01*
X5900585Y11655496D01*
X4009585Y9764496D01*
X3955068Y9736719D01*
X3939581Y9735500D01*
X3050538Y9735500D01*
X2992347Y9754407D01*
X2956383Y9803907D01*
X2955801Y9805762D01*
X2933281Y9880000D01*
X2928814Y9894727D01*
X2835910Y10068538D01*
X2822476Y10084907D01*
X2710887Y10220879D01*
X2710878Y10220888D01*
X2558542Y10345907D01*
X2558540Y10345908D01*
X2558538Y10345910D01*
X2477565Y10389191D01*
X2384732Y10438812D01*
X2384730Y10438813D01*
X2368593Y10443708D01*
X2196132Y10496024D01*
X2196129Y10496025D01*
X2196126Y10496026D01*
X2000003Y10515341D01*
X1999997Y10515341D01*
X1803873Y10496026D01*
X1803870Y10496025D01*
X1615269Y10438813D01*
X1615267Y10438812D01*
X1441467Y10345913D01*
X1441457Y10345907D01*
X1289121Y10220888D01*
X1289112Y10220879D01*
X1164093Y10068543D01*
X1164087Y10068533D01*
X1071188Y9894733D01*
X1071187Y9894731D01*
X1013975Y9706130D01*
X1013974Y9706127D01*
X994659Y9510004D01*
X994659Y9509997D01*
X1013974Y9313874D01*
X1013975Y9313871D01*
X1071187Y9125270D01*
X1071188Y9125268D01*
X1136136Y9003761D01*
X1164090Y8951462D01*
X1164092Y8951460D01*
X1164093Y8951458D01*
X1289112Y8799122D01*
X1289121Y8799113D01*
X1395227Y8712034D01*
X1441462Y8674090D01*
X1615273Y8581186D01*
X1803868Y8523976D01*
X1803870Y8523976D01*
X1803873Y8523975D01*
X1999997Y8504659D01*
X2000000Y8504659D01*
X2000003Y8504659D01*
X2196126Y8523975D01*
X2196127Y8523976D01*
X2196132Y8523976D01*
X2384727Y8581186D01*
X2558538Y8674090D01*
X2710883Y8799117D01*
X2835910Y8951462D01*
X2928814Y9125273D01*
X2955801Y9214239D01*
X2990786Y9264435D01*
X3048594Y9284481D01*
X3050538Y9284500D01*
X3690581Y9284500D01*
X3748772Y9265593D01*
X3784736Y9216093D01*
X3784736Y9154907D01*
X3760585Y9115496D01*
X2540375Y7895288D01*
X2485858Y7867511D01*
X2425426Y7877082D01*
X2423704Y7877981D01*
X2384729Y7898813D01*
X2384728Y7898814D01*
X2384727Y7898814D01*
X2196132Y7956024D01*
X2196129Y7956025D01*
X2196126Y7956026D01*
X2000003Y7975341D01*
X1999997Y7975341D01*
X1803873Y7956026D01*
X1803870Y7956025D01*
X1615269Y7898813D01*
X1615267Y7898812D01*
X1441467Y7805913D01*
X1441457Y7805907D01*
X1289121Y7680888D01*
X1289112Y7680879D01*
X1164093Y7528543D01*
X1164087Y7528533D01*
X1071188Y7354733D01*
X1071187Y7354731D01*
X1013975Y7166130D01*
X1013974Y7166127D01*
X994659Y6970004D01*
X994659Y6969997D01*
X1013974Y6773874D01*
X1013975Y6773871D01*
X1013976Y6773868D01*
X1057466Y6630500D01*
X1071187Y6585270D01*
X1071188Y6585268D01*
X1120022Y6493907D01*
X1164090Y6411462D01*
X1164092Y6411460D01*
X1164093Y6411458D01*
X1289112Y6259122D01*
X1289121Y6259113D01*
X1441457Y6134094D01*
X1441462Y6134090D01*
X1615273Y6041186D01*
X1803868Y5983976D01*
X1803870Y5983976D01*
X1803873Y5983975D01*
X1999997Y5964659D01*
X2000000Y5964659D01*
X2000003Y5964659D01*
X2196126Y5983975D01*
X2196127Y5983976D01*
X2196132Y5983976D01*
X2384727Y6041186D01*
X2558538Y6134090D01*
X2710883Y6259117D01*
X2835910Y6411462D01*
X2928814Y6585273D01*
X2986024Y6773868D01*
X2986481Y6778500D01*
X3005341Y6969997D01*
X3005341Y6970004D01*
X2986025Y7166127D01*
X2986024Y7166130D01*
X2986024Y7166132D01*
X2928814Y7354727D01*
X2861995Y7479736D01*
X2851240Y7539966D01*
X2877941Y7595017D01*
X2879246Y7596349D01*
X3143364Y7860466D01*
X3197879Y7888242D01*
X3258311Y7878671D01*
X3301576Y7835406D01*
X3312366Y7790461D01*
X3312366Y6102280D01*
X3293459Y6044089D01*
X3283370Y6032276D01*
X2583389Y5332296D01*
X2528872Y5304519D01*
X2468440Y5314090D01*
X2466717Y5314990D01*
X2384732Y5358812D01*
X2384730Y5358813D01*
X2320711Y5378233D01*
X2241321Y5402316D01*
X2196129Y5416025D01*
X2196126Y5416026D01*
X2000003Y5435341D01*
X1999997Y5435341D01*
X1803873Y5416026D01*
X1803870Y5416025D01*
X1615269Y5358813D01*
X1615267Y5358812D01*
X1441467Y5265913D01*
X1441457Y5265907D01*
X1289121Y5140888D01*
X1289112Y5140879D01*
X1164093Y4988543D01*
X1164087Y4988533D01*
X1071188Y4814733D01*
X1071187Y4814731D01*
X1013975Y4626130D01*
X1013974Y4626127D01*
X994659Y4430004D01*
X994659Y4429997D01*
X1013974Y4233874D01*
X1013975Y4233871D01*
X1014902Y4230816D01*
X1058774Y4086188D01*
X1071187Y4045270D01*
X1071188Y4045268D01*
X1135206Y3925500D01*
X1164090Y3871462D01*
X1164092Y3871460D01*
X1164093Y3871458D01*
X1289112Y3719122D01*
X1289121Y3719113D01*
X1420855Y3611002D01*
X1441462Y3594090D01*
X1615273Y3501186D01*
X1803868Y3443976D01*
X1803870Y3443976D01*
X1803873Y3443975D01*
X1999997Y3424659D01*
X2000000Y3424659D01*
X2000003Y3424659D01*
X2196126Y3443975D01*
X2196127Y3443976D01*
X2196132Y3443976D01*
X2384727Y3501186D01*
X2558538Y3594090D01*
X2710883Y3719117D01*
X2835910Y3871462D01*
X2928814Y4045273D01*
X2986024Y4233868D01*
X2987072Y4244500D01*
X3005341Y4429997D01*
X3005341Y4430004D01*
X2986025Y4626127D01*
X2986024Y4626130D01*
X2986024Y4626132D01*
X2928814Y4814727D01*
X2884987Y4896722D01*
X2874232Y4956950D01*
X2900933Y5012002D01*
X2902242Y5013339D01*
X3454232Y5565328D01*
X3508748Y5593104D01*
X3569180Y5583533D01*
X3612445Y5540268D01*
X3623235Y5495323D01*
X3623235Y3873149D01*
X3604328Y3814958D01*
X3594239Y3803145D01*
X2583389Y2792296D01*
X2528872Y2764519D01*
X2468440Y2774090D01*
X2466717Y2774990D01*
X2384732Y2818812D01*
X2384730Y2818813D01*
X2362999Y2825405D01*
X2290429Y2847419D01*
X2196129Y2876025D01*
X2196126Y2876026D01*
X2000003Y2895341D01*
X1999997Y2895341D01*
X1803873Y2876026D01*
X1803870Y2876025D01*
X1615269Y2818813D01*
X1615267Y2818812D01*
X1441467Y2725913D01*
X1441457Y2725907D01*
X1289121Y2600888D01*
X1289112Y2600879D01*
X1164093Y2448543D01*
X1164087Y2448533D01*
X1071188Y2274733D01*
X1071187Y2274731D01*
X1013975Y2086130D01*
X1013974Y2086127D01*
X994659Y1890004D01*
X994659Y1889997D01*
X1013974Y1693874D01*
X1013975Y1693871D01*
X1071187Y1505270D01*
X1071188Y1505268D01*
X1104320Y1443283D01*
X1164090Y1331462D01*
X1164092Y1331460D01*
X1164093Y1331458D01*
X1289112Y1179122D01*
X1289121Y1179113D01*
X1416596Y1074497D01*
X1441462Y1054090D01*
X1615273Y961186D01*
X1803868Y903976D01*
X1803870Y903976D01*
X1803873Y903975D01*
X1999997Y884659D01*
X2000000Y884659D01*
X2000003Y884659D01*
X2196126Y903975D01*
X2196127Y903976D01*
X2196132Y903976D01*
X2384727Y961186D01*
X2558538Y1054090D01*
X2710883Y1179117D01*
X2835910Y1331462D01*
X2928814Y1505273D01*
X2986024Y1693868D01*
X2987995Y1713874D01*
X3005341Y1889997D01*
X3005341Y1890004D01*
X2986025Y2086127D01*
X2986024Y2086130D01*
X2986024Y2086132D01*
X2928814Y2274727D01*
X2884987Y2356722D01*
X2874232Y2416950D01*
X2900933Y2472002D01*
X2902245Y2473342D01*
X3976469Y3547565D01*
X3976471Y3547565D01*
X4039905Y3610999D01*
X4068279Y3679500D01*
X4074236Y3693880D01*
X4074236Y3783590D01*
X4074236Y3791564D01*
X4074235Y3791578D01*
X4074235Y5020173D01*
X4909500Y5020173D01*
X4918232Y4976280D01*
X4918233Y4976278D01*
X4951496Y4926496D01*
X5001278Y4893233D01*
X5012327Y4891036D01*
X5045172Y4884501D01*
X5045178Y4884501D01*
X5045180Y4884500D01*
X5045181Y4884500D01*
X6434819Y4884500D01*
X6434820Y4884500D01*
X6434821Y4884501D01*
X6434827Y4884501D01*
X6459488Y4889407D01*
X6478722Y4893233D01*
X6528504Y4926496D01*
X6561767Y4976278D01*
X6566947Y5002318D01*
X6570499Y5020173D01*
X6570500Y5020182D01*
X6570500Y6279819D01*
X6570499Y6279828D01*
X6561767Y6323721D01*
X6561765Y6323725D01*
X6561323Y6324386D01*
X6528504Y6373504D01*
X6527840Y6373948D01*
X6478724Y6406766D01*
X6478720Y6406768D01*
X6434827Y6415500D01*
X6434820Y6415500D01*
X6118405Y6415500D01*
X6060214Y6434407D01*
X6024250Y6483907D01*
X6024250Y6545093D01*
X6060214Y6594593D01*
X6078416Y6605064D01*
X6079141Y6605384D01*
X6154616Y6680859D01*
X6197730Y6778502D01*
X6200500Y6802377D01*
X6200499Y7157622D01*
X6197730Y7181498D01*
X6154616Y7279141D01*
X6079141Y7354616D01*
X6055952Y7364855D01*
X5977635Y7399436D01*
X5932040Y7440237D01*
X5919135Y7500046D01*
X5943849Y7556017D01*
X5977635Y7580564D01*
X6010367Y7595017D01*
X6079141Y7625384D01*
X6154616Y7700859D01*
X6197730Y7798502D01*
X6200500Y7822377D01*
X6200499Y8177622D01*
X6197730Y8201498D01*
X6197659Y8201658D01*
X6172119Y8259501D01*
X6154616Y8299141D01*
X6079141Y8374616D01*
X6079139Y8374617D01*
X6074836Y8378920D01*
X6047059Y8433437D01*
X6056630Y8493869D01*
X6064752Y8507121D01*
X6068043Y8511652D01*
X6068050Y8511658D01*
X6125646Y8624696D01*
X6145492Y8750000D01*
X6125646Y8875304D01*
X6068050Y8988342D01*
X5978342Y9078050D01*
X5922526Y9106490D01*
X5865307Y9135645D01*
X5865304Y9135646D01*
X5740000Y9155492D01*
X5614696Y9135646D01*
X5614692Y9135645D01*
X5501659Y9078051D01*
X5411949Y8988341D01*
X5354355Y8875308D01*
X5354354Y8875304D01*
X5334508Y8750001D01*
X5334508Y8750000D01*
X5354354Y8624697D01*
X5354355Y8624693D01*
X5377630Y8579014D01*
X5407751Y8519898D01*
X5415487Y8504717D01*
X5412647Y8503271D01*
X5427179Y8458497D01*
X5408252Y8400312D01*
X5384130Y8376857D01*
X5380862Y8374619D01*
X5305383Y8299140D01*
X5262269Y8201499D01*
X5262269Y8201498D01*
X5259500Y8177628D01*
X5259500Y7822381D01*
X5259501Y7822378D01*
X5262270Y7798500D01*
X5297449Y7718830D01*
X5305384Y7700859D01*
X5380859Y7625384D01*
X5478502Y7582270D01*
X5478504Y7582270D01*
X5482363Y7580566D01*
X5527959Y7539765D01*
X5540864Y7479956D01*
X5516150Y7423984D01*
X5482365Y7399437D01*
X5380860Y7354617D01*
X5305383Y7279140D01*
X5262269Y7181499D01*
X5262269Y7181498D01*
X5259500Y7157628D01*
X5259500Y6802381D01*
X5259501Y6802378D01*
X5262270Y6778500D01*
X5305194Y6681290D01*
X5305384Y6680859D01*
X5380859Y6605384D01*
X5381582Y6605065D01*
X5382421Y6604314D01*
X5388427Y6600200D01*
X5387891Y6599419D01*
X5427178Y6564265D01*
X5440084Y6504456D01*
X5415371Y6448484D01*
X5362477Y6417727D01*
X5341595Y6415500D01*
X5045172Y6415500D01*
X5001279Y6406768D01*
X5001275Y6406766D01*
X4951498Y6373506D01*
X4951494Y6373502D01*
X4918234Y6323725D01*
X4918232Y6323721D01*
X4909500Y6279828D01*
X4909500Y5020173D01*
X4074235Y5020173D01*
X4074235Y7966852D01*
X4093142Y8025043D01*
X4103231Y8036856D01*
X5540883Y9474508D01*
X6979045Y10912671D01*
X7033560Y10940446D01*
X7073173Y10934173D01*
X7073187Y10991567D01*
X7097332Y11030957D01*
X7428145Y11361769D01*
X7482661Y11389546D01*
X7498148Y11390765D01*
X8111822Y11390765D01*
X8170013Y11371858D01*
X8181826Y11361769D01*
X8420504Y11123091D01*
X8448281Y11068574D01*
X8449500Y11053087D01*
X8449500Y10774500D01*
X8430593Y10716309D01*
X8381093Y10680345D01*
X8350500Y10675500D01*
X7906213Y10675500D01*
X7848022Y10694407D01*
X7818004Y10729555D01*
X7788051Y10788340D01*
X7788050Y10788342D01*
X7698342Y10878050D01*
X7694406Y10880056D01*
X7585307Y10935645D01*
X7585304Y10935646D01*
X7460000Y10955492D01*
X7334696Y10935646D01*
X7334692Y10935645D01*
X7246100Y10890505D01*
X7221658Y10878050D01*
X7221657Y10878050D01*
X7214717Y10874513D01*
X7213479Y10876943D01*
X7167312Y10861953D01*
X7139909Y10870864D01*
X7146828Y10827178D01*
X7133946Y10796069D01*
X7135487Y10795283D01*
X7074355Y10675308D01*
X7074354Y10675304D01*
X7054508Y10550001D01*
X7054508Y10550000D01*
X7074354Y10424697D01*
X7074355Y10424693D01*
X7106722Y10361171D01*
X7131950Y10311658D01*
X7221658Y10221950D01*
X7334696Y10164354D01*
X7460000Y10144508D01*
X7585304Y10164354D01*
X7682168Y10213710D01*
X7727114Y10224500D01*
X7839830Y10224500D01*
X7898021Y10205593D01*
X7933985Y10156093D01*
X7933985Y10094907D01*
X7905300Y10055427D01*
X7907168Y10053559D01*
X7901659Y10048051D01*
X7901658Y10048050D01*
X7858916Y10005308D01*
X7811949Y9958341D01*
X7754355Y9845308D01*
X7754354Y9845304D01*
X7734508Y9720001D01*
X7734508Y9720000D01*
X7754354Y9594697D01*
X7754355Y9594693D01*
X7764061Y9575645D01*
X7811950Y9481658D01*
X7901658Y9391950D01*
X8014696Y9334354D01*
X8140000Y9314508D01*
X8265304Y9334354D01*
X8378342Y9391950D01*
X8451897Y9465506D01*
X8506412Y9493281D01*
X8521899Y9494500D01*
X8536232Y9494500D01*
X8594423Y9475593D01*
X8630387Y9426093D01*
X8634013Y9380013D01*
X8624508Y9320001D01*
X8624508Y9320000D01*
X8644354Y9194697D01*
X8644355Y9194693D01*
X8692349Y9100500D01*
X8701950Y9081658D01*
X8791658Y8991950D01*
X8904696Y8934354D01*
X9030000Y8914508D01*
X9155304Y8934354D01*
X9268342Y8991950D01*
X9358050Y9081658D01*
X9415646Y9194696D01*
X9435492Y9320000D01*
X9415646Y9445304D01*
X9400560Y9474912D01*
X9390988Y9535344D01*
X9418765Y9589861D01*
X9418766Y9589862D01*
X9880497Y10051592D01*
X9935013Y10079369D01*
X9995445Y10069798D01*
X10038710Y10026533D01*
X10049500Y9981588D01*
X10049500Y9044769D01*
X10030593Y8986578D01*
X10020503Y8974765D01*
X9919893Y8874156D01*
X9865377Y8846379D01*
X9847790Y8846377D01*
X9847790Y8845492D01*
X9839999Y8845492D01*
X9714696Y8825646D01*
X9714692Y8825645D01*
X9601659Y8768051D01*
X9511949Y8678341D01*
X9454355Y8565308D01*
X9454354Y8565304D01*
X9437438Y8458497D01*
X9434508Y8440000D01*
X9451812Y8330743D01*
X9454354Y8314697D01*
X9454355Y8314693D01*
X9492132Y8240552D01*
X9511950Y8201658D01*
X9601658Y8111950D01*
X9714696Y8054354D01*
X9840000Y8034508D01*
X9965304Y8054354D01*
X10078342Y8111950D01*
X10168050Y8201658D01*
X10225646Y8314696D01*
X10245492Y8440000D01*
X10245492Y8440001D01*
X10245492Y8447792D01*
X10248500Y8447792D01*
X10255944Y8494828D01*
X10274153Y8519894D01*
X10305498Y8551239D01*
X10360015Y8579014D01*
X10420446Y8569442D01*
X10463710Y8526177D01*
X10474500Y8481233D01*
X10474500Y8044414D01*
X10455593Y7986223D01*
X10445504Y7974410D01*
X9057264Y6586170D01*
X9057263Y6586171D01*
X8993830Y6522738D01*
X8993830Y6522735D01*
X8959499Y6439855D01*
X8959499Y6338623D01*
X8959500Y6338614D01*
X8959500Y5107843D01*
X8959499Y5107829D01*
X8959499Y5010145D01*
X8971334Y4981573D01*
X8993828Y4927267D01*
X8993829Y4927266D01*
X8993830Y4927264D01*
X9057264Y4863830D01*
X9057265Y4863830D01*
X9280504Y4640591D01*
X9308281Y4586074D01*
X9309500Y4570587D01*
X9309500Y4286631D01*
X9309501Y4286628D01*
X9312317Y4262339D01*
X9333437Y4214508D01*
X9356187Y4162984D01*
X9432984Y4086187D01*
X9532338Y4042318D01*
X9556627Y4039500D01*
X9983372Y4039501D01*
X10007662Y4042318D01*
X10107016Y4086187D01*
X10183813Y4162984D01*
X10193750Y4185490D01*
X10234550Y4231084D01*
X10284314Y4244500D01*
X10445500Y4244500D01*
X10503691Y4225593D01*
X10539655Y4176093D01*
X10544500Y4145500D01*
X10544500Y4105173D01*
X10553232Y4061280D01*
X10553234Y4061276D01*
X10586052Y4012160D01*
X10586496Y4011496D01*
X10636278Y3978233D01*
X10647327Y3976036D01*
X10680172Y3969501D01*
X10680178Y3969501D01*
X10680180Y3969500D01*
X10680181Y3969500D01*
X10701586Y3969500D01*
X10759777Y3950593D01*
X10795741Y3901093D01*
X10795741Y3839907D01*
X10771590Y3800496D01*
X9910591Y2939496D01*
X9856074Y2911719D01*
X9840587Y2910500D01*
X8610172Y2910500D01*
X8566279Y2901768D01*
X8566275Y2901766D01*
X8516498Y2868506D01*
X8516494Y2868502D01*
X8483234Y2818725D01*
X8483232Y2818721D01*
X8474500Y2774828D01*
X8474500Y1109500D01*
X8455593Y1051309D01*
X8406093Y1015345D01*
X8375500Y1010500D01*
X6669500Y1010500D01*
X6611309Y1029407D01*
X6575345Y1078907D01*
X6570500Y1109500D01*
X6570500Y1919819D01*
X6570499Y1919828D01*
X6561767Y1963721D01*
X6561765Y1963725D01*
X6528505Y2013502D01*
X6528504Y2013504D01*
X6527840Y2013948D01*
X6478724Y2046766D01*
X6478720Y2046768D01*
X6434827Y2055500D01*
X6434820Y2055500D01*
X5045180Y2055500D01*
X5045172Y2055500D01*
X5001279Y2046768D01*
X5001275Y2046766D01*
X4951498Y2013506D01*
X4951494Y2013502D01*
X4918234Y1963725D01*
X4918232Y1963721D01*
X4909500Y1919828D01*
X4909500Y660173D01*
X4917728Y618816D01*
X4910538Y558055D01*
X4869006Y513124D01*
X4820631Y500500D01*
X599500Y500500D01*
X541309Y519407D01*
X505345Y568907D01*
X500500Y599500D01*
X500500Y34909997D01*
X994659Y34909997D01*
X1013974Y34713874D01*
X1013975Y34713871D01*
X1071187Y34525270D01*
X1071188Y34525268D01*
X1129981Y34415276D01*
X1164090Y34351462D01*
X1164092Y34351460D01*
X1164093Y34351458D01*
X1289112Y34199122D01*
X1289121Y34199113D01*
X1410204Y34099743D01*
X1441462Y34074090D01*
X1615273Y33981186D01*
X1803868Y33923976D01*
X1803870Y33923976D01*
X1803873Y33923975D01*
X1999997Y33904659D01*
X2000000Y33904659D01*
X2000003Y33904659D01*
X2196126Y33923975D01*
X2196127Y33923976D01*
X2196132Y33923976D01*
X2384727Y33981186D01*
X2558538Y34074090D01*
X2710883Y34199117D01*
X2835910Y34351462D01*
X2928814Y34525273D01*
X2986024Y34713868D01*
X3005341Y34910000D01*
X3005341Y34910004D01*
X2986025Y35106127D01*
X2986024Y35106130D01*
X2986024Y35106132D01*
X2928814Y35294727D01*
X2835910Y35468538D01*
X2830197Y35475499D01*
X2710887Y35620879D01*
X2710878Y35620888D01*
X2558542Y35745907D01*
X2558540Y35745908D01*
X2558538Y35745910D01*
X2504436Y35774828D01*
X2384732Y35838812D01*
X2384730Y35838813D01*
X2196129Y35896025D01*
X2196126Y35896026D01*
X2000003Y35915341D01*
X1999997Y35915341D01*
X1803873Y35896026D01*
X1803870Y35896025D01*
X1615269Y35838813D01*
X1615267Y35838812D01*
X1441467Y35745913D01*
X1441457Y35745907D01*
X1289121Y35620888D01*
X1289112Y35620879D01*
X1164093Y35468543D01*
X1164087Y35468533D01*
X1071188Y35294733D01*
X1071187Y35294731D01*
X1013975Y35106130D01*
X1013974Y35106127D01*
X994659Y34910004D01*
X994659Y34909997D01*
X500500Y34909997D01*
X500500Y36400500D01*
X519407Y36458691D01*
X568907Y36494655D01*
X599500Y36499500D01*
X23400500Y36499500D01*
X23458691Y36480593D01*
G37*
%TD.AperFunction*%
%TA.AperFunction,Conductor*%
G36*
X20595445Y18241536D02*
G01*
X20638710Y18198271D01*
X20649500Y18153326D01*
X20649500Y16732583D01*
X20630593Y16674392D01*
X20620504Y16662579D01*
X16612421Y12654496D01*
X16557904Y12626719D01*
X16542417Y12625500D01*
X15424413Y12625500D01*
X15366222Y12644407D01*
X15330258Y12693907D01*
X15326837Y12725388D01*
X15325500Y12725388D01*
X15325500Y12869747D01*
X15325498Y12869759D01*
X15318534Y12904769D01*
X15313867Y12928231D01*
X15302663Y12944998D01*
X15286054Y13003885D01*
X15302664Y13055003D01*
X15306399Y13060593D01*
X15313867Y13071769D01*
X15325500Y13130252D01*
X15325500Y13269748D01*
X15325499Y13269750D01*
X15325499Y13269756D01*
X15315504Y13320000D01*
X15313867Y13328231D01*
X15313865Y13328233D01*
X15313522Y13329961D01*
X15320712Y13390722D01*
X15328304Y13404280D01*
X15360495Y13452457D01*
X15369952Y13500000D01*
X14736500Y13500000D01*
X14678309Y13518907D01*
X14642345Y13568407D01*
X14637500Y13599000D01*
X14637500Y13601000D01*
X14656407Y13659191D01*
X14705907Y13695155D01*
X14736500Y13700000D01*
X15369951Y13700000D01*
X15369951Y13700001D01*
X15360495Y13747545D01*
X15328304Y13795723D01*
X15311696Y13854611D01*
X15313523Y13870039D01*
X15325498Y13930242D01*
X15325500Y13930254D01*
X15325500Y14069747D01*
X15325498Y14069759D01*
X15322711Y14083769D01*
X15313867Y14128231D01*
X15302663Y14144998D01*
X15286054Y14203885D01*
X15302664Y14255003D01*
X15313867Y14271769D01*
X15325500Y14330252D01*
X15325500Y14469748D01*
X15313867Y14528231D01*
X15311965Y14537793D01*
X15315486Y14538494D01*
X15312057Y14581979D01*
X15344018Y14634153D01*
X15400542Y14657577D01*
X15423809Y14656666D01*
X15531499Y14639609D01*
X15656803Y14659455D01*
X15769841Y14717051D01*
X15859549Y14806759D01*
X15917145Y14919797D01*
X15936991Y15045101D01*
X15917145Y15170405D01*
X15886496Y15230556D01*
X15876925Y15290986D01*
X15904702Y15345503D01*
X15959218Y15373281D01*
X15974706Y15374500D01*
X17481876Y15374500D01*
X17481884Y15374499D01*
X17493407Y15374499D01*
X17583116Y15374499D01*
X17583117Y15374499D01*
X17648683Y15401658D01*
X17665998Y15408830D01*
X17729432Y15472264D01*
X17729432Y15472266D01*
X20480497Y18223331D01*
X20535013Y18251107D01*
X20595445Y18241536D01*
G37*
%TD.AperFunction*%
%TD*%
M02*
