M48
; DRILL file {KiCad 8.0.0} date 2024-02-27T23:55:06+0200
; FORMAT={-:-/ absolute / inch / decimal}
; #@! TF.CreationDate,2024-02-27T23:55:06+02:00
; #@! TF.GenerationSoftware,Kicad,Pcbnew,8.0.0
; #@! TF.FileFunction,Plated,1,2,PTH
FMAT,2
INCH
; #@! TA.AperFunction,Plated,PTH,ViaDrill
T1C0.0079
; #@! TA.AperFunction,Plated,PTH,ViaDrill
T2C0.0098
; #@! TA.AperFunction,Plated,PTH,ViaDrill
T3C0.0118
; #@! TA.AperFunction,Plated,PTH,ComponentDrill
T4C0.0236
; #@! TA.AperFunction,Plated,PTH,ComponentDrill
T5C0.0394
%
G90
G05
T1
X0.2323Y0.999
X0.2323Y0.9075
X0.2628Y0.9557
X0.2943Y0.998
X0.2943Y0.9075
X0.4012Y0.6177
X0.402Y0.5299
X0.4461Y0.5776
X0.4882Y0.6157
X0.4882Y0.5291
T2
X0.5705Y0.1819
T3
X0.1626Y0.5244
X0.1776Y0.6224
X0.187Y0.6776
X0.189Y0.8531
X0.2067Y0.7882
X0.2126Y0.6492
X0.226Y0.3445
X0.2402Y1.2717
X0.2402Y1.1654
X0.2524Y0.761
X0.2673Y0.6618
X0.2937Y0.4154
X0.3205Y0.3827
X0.3445Y1.0748
X0.3555Y0.3669
X0.376Y1.0748
X0.385Y0.237
X0.3874Y0.3323
X0.4008Y0.9264
X0.438Y0.8878
X0.4465Y1.0
X0.4754Y0.8878
X0.5043Y0.278
X0.5307Y1.0748
X0.5689Y1.0748
X0.5896Y0.8878
X0.6004Y1.0748
X0.6115Y0.5923
X0.6122Y0.3618
X0.6287Y0.8874
X0.6331Y0.652
X0.6406Y0.389
X0.6406Y0.3362
X0.6429Y0.5831
X0.6669Y0.7618
X0.6969Y0.6772
X0.7244Y1.0701
X0.7626Y0.8012
X0.785Y1.1402
T5
X0.0787Y1.3744
X0.0787Y1.2744
X0.0787Y1.1744
X0.0787Y1.0744
X0.0787Y0.9744
X0.0787Y0.8744
X0.0787Y0.7744
X0.0787Y0.6744
X0.0787Y0.5744
X0.0787Y0.4744
X0.0787Y0.3744
X0.0787Y0.2744
X0.0787Y0.1744
X0.0787Y0.0744
X0.373Y0.0752
X0.473Y0.0752
X0.573Y0.0752
X0.8661Y1.3744
X0.8661Y1.2744
X0.8661Y1.1744
X0.8661Y1.0744
X0.8661Y0.9744
X0.8661Y0.8744
X0.8661Y0.7744
X0.8661Y0.6744
X0.8661Y0.5744
X0.8661Y0.4744
X0.8661Y0.3744
X0.8661Y0.2744
X0.8661Y0.1744
X0.8661Y0.0744
T4
G00X0.3024Y1.3114
M15
G01X0.3024Y1.335
M16
G05
G00X0.3024Y1.137
M15
G01X0.3024Y1.1803
M16
G05
G00X0.6425Y1.3114
M15
G01X0.6425Y1.335
M16
G05
G00X0.6425Y1.137
M15
G01X0.6425Y1.1803
M16
G05
M30
